<svg width="467" height="350" viewBox="0 0 467 350" fill="none" xmlns="http://www.w3.org/2000/svg">
<g clip-path="url(#clip0_388_1691)">
<path d="M336.218 116.3C365.47 115.301 388.371 90.7931 387.369 61.5611C386.367 32.3292 361.842 9.44236 332.591 10.442C303.339 11.4416 280.439 35.9491 281.44 65.1811C282.442 94.4131 306.967 117.3 336.218 116.3Z" stroke="#B7B7B7" stroke-width="3" stroke-miterlimit="10"/>
<path d="M321.468 44.3132C325.681 44.1692 328.979 40.64 328.834 36.4304C328.69 32.2208 325.158 28.925 320.946 29.0689C316.734 29.2129 313.436 32.7421 313.58 36.9517C313.724 41.1613 317.256 44.4571 321.468 44.3132Z" stroke="#B7B7B7" stroke-width="3" stroke-miterlimit="10"/>
<path d="M344.868 96.9264C347.442 96.8384 349.458 94.6818 349.369 92.1095C349.281 89.5372 347.123 87.5233 344.549 87.6112C341.975 87.6992 339.96 89.8558 340.048 92.4281C340.136 95.0004 342.294 97.0143 344.868 96.9264Z" stroke="#B7B7B7" stroke-width="3" stroke-miterlimit="10"/>
<path d="M278.079 61.0096C260.384 62.8778 249.173 64.4618 249.249 66.6695C249.386 70.6656 286.348 72.6453 331.806 71.0915C377.263 69.5378 414.003 65.039 413.866 61.0429C413.799 59.0732 404.813 58.4404 390.244 57.6324" stroke="#B7B7B7" stroke-width="3" stroke-miterlimit="10" stroke-linecap="round"/>
<path opacity="0.5" d="M282.928 76.0028C296.646 76.4278 313.613 76.3762 331.965 75.7488C353.008 75.0294 372.183 73.6789 386.697 72.0388" stroke="#B7B7B7" stroke-width="3" stroke-miterlimit="10" stroke-linecap="round"/>
<path d="M302.355 143.136L302.491 155.505" stroke="#B7B7B7" stroke-width="3" stroke-miterlimit="10" stroke-linecap="round"/>
<path d="M296.621 149.385L308.225 149.257" stroke="#B7B7B7" stroke-width="3" stroke-miterlimit="10" stroke-linecap="round"/>
<path d="M90.4575 134.982L89.9797 147.345" stroke="#B7B7B7" stroke-width="3" stroke-miterlimit="10" stroke-linecap="round"/>
<path d="M84.4194 140.94L96.0169 141.388" stroke="#B7B7B7" stroke-width="3" stroke-miterlimit="10" stroke-linecap="round"/>
<path d="M186.849 77.4355L186.909 89.8057" stroke="#B7B7B7" stroke-width="3" stroke-miterlimit="10" stroke-linecap="round"/>
<path d="M181.076 83.6484L192.681 83.5928" stroke="#B7B7B7" stroke-width="3" stroke-miterlimit="10" stroke-linecap="round"/>
<path d="M117.365 281.819L116.917 294.18" stroke="#B7B7B7" stroke-width="3" stroke-miterlimit="10" stroke-linecap="round"/>
<path d="M122.94 288.209L111.343 287.79" stroke="#B7B7B7" stroke-width="3" stroke-miterlimit="10" stroke-linecap="round"/>
<path d="M252.281 221.971V228.568" stroke="#B7B7B7" stroke-width="3" stroke-miterlimit="10" stroke-linecap="round"/>
<path d="M249.186 225.27H255.375" stroke="#B7B7B7" stroke-width="3" stroke-miterlimit="10" stroke-linecap="round"/>
<path d="M285.778 174.864V179.74" stroke="#B7B7B7" stroke-width="3" stroke-miterlimit="10" stroke-linecap="round"/>
<path d="M283.49 177.302H288.065" stroke="#B7B7B7" stroke-width="3" stroke-miterlimit="10" stroke-linecap="round"/>
<path d="M135.119 169.756V174.633" stroke="#B7B7B7" stroke-width="3" stroke-miterlimit="10" stroke-linecap="round"/>
<path d="M132.832 172.194H137.407" stroke="#B7B7B7" stroke-width="3" stroke-miterlimit="10" stroke-linecap="round"/>
<path d="M142.453 319.398V324.275" stroke="#B7B7B7" stroke-width="3" stroke-miterlimit="10" stroke-linecap="round"/>
<path d="M144.741 321.837H140.166" stroke="#B7B7B7" stroke-width="3" stroke-miterlimit="10" stroke-linecap="round"/>
<path d="M108.787 237.398V242.274" stroke="#B7B7B7" stroke-width="3" stroke-miterlimit="10" stroke-linecap="round"/>
<path d="M111.074 239.835H106.499" stroke="#B7B7B7" stroke-width="3" stroke-miterlimit="10" stroke-linecap="round"/>
<path d="M280.373 237.48V242.191" stroke="#B7B7B7" stroke-width="2.89815" stroke-miterlimit="10" stroke-linecap="round"/>
<path d="M282.583 239.835H278.163" stroke="#B7B7B7" stroke-width="2.89815" stroke-miterlimit="10" stroke-linecap="round"/>
<path d="M343.815 152.817C346.379 152.817 348.457 150.741 348.457 148.179C348.457 145.617 346.379 143.54 343.815 143.54C341.252 143.54 339.173 145.617 339.173 148.179C339.173 150.741 341.252 152.817 343.815 152.817Z" stroke="#B7B7B7" stroke-width="3" stroke-miterlimit="10" stroke-linecap="round"/>
<path d="M262.726 190.314C265.29 190.314 267.368 188.238 267.368 185.676C267.368 183.114 265.29 181.037 262.726 181.037C260.162 181.037 258.084 183.114 258.084 185.676C258.084 188.238 260.162 190.314 262.726 190.314Z" stroke="#B7B7B7" stroke-width="3" stroke-miterlimit="10" stroke-linecap="round"/>
<path d="M98.247 209.853C100.811 209.853 102.889 207.776 102.889 205.214C102.889 202.652 100.811 200.576 98.247 200.576C95.6833 200.576 93.605 202.652 93.605 205.214C93.605 207.776 95.6833 209.853 98.247 209.853Z" stroke="#B7B7B7" stroke-width="3" stroke-miterlimit="10" stroke-linecap="round"/>
<path d="M250.734 120.855C253.297 120.855 255.376 118.778 255.376 116.216C255.376 113.654 253.297 111.578 250.734 111.578C248.17 111.578 246.092 113.654 246.092 116.216C246.092 118.778 248.17 120.855 250.734 120.855Z" stroke="#B7B7B7" stroke-width="3" stroke-miterlimit="10" stroke-linecap="round"/>
<path d="M117.141 106.346C119.705 106.346 121.783 104.269 121.783 101.708C121.783 99.1457 119.705 97.0688 117.141 97.0688C114.578 97.0688 112.499 99.1457 112.499 101.708C112.499 104.269 114.578 106.346 117.141 106.346Z" stroke="#B7B7B7" stroke-width="3" stroke-miterlimit="10" stroke-linecap="round"/>
<path d="M77.839 281.755C80.4027 281.755 82.481 279.678 82.481 277.116C82.481 274.554 80.4027 272.478 77.839 272.478C75.2753 272.478 73.197 274.554 73.197 277.116C73.197 279.678 75.2753 281.755 77.839 281.755Z" stroke="#B7B7B7" stroke-width="3" stroke-miterlimit="10" stroke-linecap="round"/>
<path d="M165.506 334.85C168.069 334.85 170.147 332.773 170.147 330.211C170.147 327.649 168.069 325.572 165.506 325.572C162.942 325.572 160.864 327.649 160.864 330.211C160.864 332.773 162.942 334.85 165.506 334.85Z" stroke="#B7B7B7" stroke-width="3" stroke-miterlimit="10" stroke-linecap="round"/>
<path d="M241.45 284.889C244.013 284.889 246.092 282.812 246.092 280.25C246.092 277.689 244.013 275.612 241.45 275.612C238.886 275.612 236.808 277.689 236.808 280.25C236.808 282.812 238.886 284.889 241.45 284.889Z" stroke="#B7B7B7" stroke-width="3" stroke-miterlimit="10" stroke-linecap="round"/>
<path d="M320.992 172.163C321.847 172.163 322.54 171.471 322.54 170.617C322.54 169.763 321.847 169.07 320.992 169.07C320.137 169.07 319.445 169.763 319.445 170.617C319.445 171.471 320.137 172.163 320.992 172.163Z" fill="#B7B7B7"/>
<path d="M147.858 132.985C148.713 132.985 149.406 132.293 149.406 131.439C149.406 130.585 148.713 129.893 147.858 129.893C147.003 129.893 146.311 130.585 146.311 131.439C146.311 132.293 147.003 132.985 147.858 132.985Z" fill="#B7B7B7"/>
<path d="M253.829 153.222C254.683 153.222 255.376 152.529 255.376 151.675C255.376 150.821 254.683 150.129 253.829 150.129C252.974 150.129 252.281 150.821 252.281 151.675C252.281 152.529 252.974 153.222 253.829 153.222Z" fill="#B7B7B7"/>
<path d="M107.24 316.698C108.094 316.698 108.787 316.006 108.787 315.152C108.787 314.298 108.094 313.605 107.24 313.605C106.385 313.605 105.692 314.298 105.692 315.152C105.692 316.006 106.385 316.698 107.24 316.698Z" fill="#B7B7B7"/>
<path d="M223.293 308.967C224.148 308.967 224.841 308.275 224.841 307.421C224.841 306.567 224.148 305.875 223.293 305.875C222.438 305.875 221.746 306.567 221.746 307.421C221.746 308.275 222.438 308.967 223.293 308.967Z" fill="#B7B7B7"/>
<path d="M76.2921 177.533C77.1468 177.533 77.8397 176.841 77.8397 175.987C77.8397 175.133 77.1468 174.44 76.2921 174.44C75.4375 174.44 74.7446 175.133 74.7446 175.987C74.7446 176.841 75.4375 177.533 76.2921 177.533Z" fill="#B7B7B7"/>
<path d="M280.373 277.52C281.228 277.52 281.92 276.828 281.92 275.974C281.92 275.12 281.228 274.427 280.373 274.427C279.518 274.427 278.825 275.12 278.825 275.974C278.825 276.828 279.518 277.52 280.373 277.52Z" fill="#B7B7B7"/>
<path d="M157.923 243.261C157.923 243.261 125.702 265.758 90.2191 264.403C88.8888 264.352 87.3463 264.213 85.6479 264.005C46.0067 259.139 7.70464 237.023 -10.9835 201.75C-11.4971 200.781 -11.9971 199.807 -12.4831 198.828C-22.8655 177.932 -33.3983 149.819 -30.0188 129.204" stroke="#B7B7B7" stroke-width="3" stroke-miterlimit="10" stroke-linecap="round" stroke-linejoin="round"/>
<path d="M195.047 269.403L157.441 258.636C151 256.792 147.274 250.078 149.12 243.642L158.865 209.655C161.28 201.234 170.068 196.362 178.495 198.775L208.91 207.484C217.337 209.897 222.211 218.679 219.797 227.1L210.052 261.087C208.206 267.523 201.489 271.247 195.047 269.403Z" fill="white" stroke="#B7B7B7" stroke-width="3" stroke-miterlimit="10" stroke-linecap="round" stroke-linejoin="round"/>
<path d="M188.605 142.063L171.027 210.101" stroke="#B7B7B7" stroke-width="3" stroke-miterlimit="10" stroke-linecap="round" stroke-linejoin="round"/>
<path d="M188.708 145.197C190.764 145.232 192.458 143.596 192.493 141.542C192.528 139.489 190.891 137.795 188.836 137.76C186.781 137.725 185.086 139.362 185.051 141.415C185.016 143.469 186.653 145.162 188.708 145.197Z" fill="white" stroke="#B7B7B7" stroke-width="3" stroke-miterlimit="10" stroke-linecap="round" stroke-linejoin="round"/>
<path d="M209.079 216.169C209.857 216.801 211.894 219.167 212.412 220.096L228.205 248.158C230.388 252.075 228.981 257.019 225.062 259.202C221.143 261.384 216.196 259.978 214.011 256.062L210.838 250.369" fill="white"/>
<path d="M209.079 216.169C209.857 216.801 211.894 219.167 212.412 220.096L228.205 248.158C230.388 252.075 228.981 257.019 225.062 259.202C221.143 261.384 216.196 259.978 214.011 256.062L210.838 250.369" stroke="#B7B7B7" stroke-width="3" stroke-miterlimit="10" stroke-linecap="round" stroke-linejoin="round"/>
<path d="M224.781 258.234C227.867 256.514 229.383 253.081 228.825 249.788C230.18 250.595 231.35 251.75 232.174 253.225C234.673 257.7 233.068 263.352 228.591 265.849C224.113 268.346 218.457 266.743 215.958 262.269C214.965 260.489 214.372 258.847 214.599 256.967C217.087 259.665 221.436 260.1 224.781 258.234Z" fill="white" stroke="#B7B7B7" stroke-width="3" stroke-miterlimit="10" stroke-linecap="round" stroke-linejoin="round"/>
<path d="M174.6 206.606C173.604 206.731 171.134 207.497 170.201 208.011L141.932 223.458C138.004 225.625 136.577 230.563 138.746 234.488C140.914 238.414 145.856 239.839 149.784 237.672L155.492 234.523" fill="white"/>
<path d="M174.6 206.606C173.604 206.731 171.134 207.497 170.201 208.011L141.932 223.458C138.004 225.625 136.577 230.563 138.746 234.488C140.914 238.414 145.856 239.839 149.784 237.672L155.492 234.523" stroke="#B7B7B7" stroke-width="3" stroke-miterlimit="10" stroke-linecap="round" stroke-linejoin="round"/>
<path d="M139.497 233.816C137.792 230.724 138.324 227.01 140.543 224.512C138.967 224.48 137.361 224.841 135.881 225.656C131.39 228.129 129.755 233.772 132.23 238.26C134.705 242.748 140.351 244.381 144.842 241.908C146.628 240.925 148.001 239.845 148.805 238.131C145.266 239.102 141.346 237.17 139.497 233.816Z" fill="white" stroke="#B7B7B7" stroke-width="3" stroke-miterlimit="10" stroke-linecap="round" stroke-linejoin="round"/>
<path d="M204.804 217.465C200.152 218.123 195.31 217.845 190.528 216.476C185.746 215.107 181.492 212.78 177.894 209.76C167.928 212.045 159.471 219.533 156.454 230.055L155.6 233.03C151.184 248.431 160.093 264.491 175.497 268.902C190.901 273.312 206.968 264.403 211.384 249.001L212.237 246.027C215.254 235.505 212.049 224.678 204.804 217.465Z" fill="white" stroke="#B7B7B7" stroke-width="3" stroke-miterlimit="10" stroke-linecap="round" stroke-linejoin="round"/>
<path d="M155.67 233.853C170.815 246.156 190.194 251.704 209.758 249.785L211.171 249.743" stroke="#B7B7B7" stroke-width="3" stroke-miterlimit="10" stroke-linecap="round" stroke-linejoin="round"/>
<path d="M180.315 270.343L171.426 301.345C170.249 305.45 172.625 309.731 176.733 310.908C180.84 312.084 185.124 309.71 186.302 305.604L197.378 266.973C192.285 270.053 186.477 270.83 180.315 270.343Z" fill="white" stroke="#B7B7B7" stroke-width="3" stroke-miterlimit="10" stroke-linecap="round" stroke-linejoin="round"/>
<path d="M175.301 287.828L190.177 292.087" stroke="#B7B7B7" stroke-width="3" stroke-miterlimit="10" stroke-linecap="round" stroke-linejoin="round"/>
<path d="M170.645 267.576L161.756 298.577C160.578 302.682 156.294 305.056 152.187 303.88C148.079 302.704 145.703 298.423 146.88 294.318L157.957 255.688C160.644 260.994 165.159 264.726 170.645 267.576Z" fill="white" stroke="#B7B7B7" stroke-width="3" stroke-miterlimit="10" stroke-linecap="round" stroke-linejoin="round"/>
<path d="M150.756 280.8L165.631 285.06" stroke="#B7B7B7" stroke-width="3" stroke-miterlimit="10" stroke-linecap="round" stroke-linejoin="round"/>
<path d="M232.121 197.776C237.624 178.584 226.934 158.688 208.243 153.337C189.553 147.985 169.939 159.203 164.436 178.395C158.932 197.586 169.622 217.482 188.313 222.834C207.004 228.186 226.617 216.967 232.121 197.776Z" fill="white" stroke="#B7B7B7" stroke-width="3" stroke-miterlimit="10" stroke-linecap="round" stroke-linejoin="round"/>
<path d="M192.709 157.055C188.049 157.9 183.63 159.807 179.786 162.595" stroke="#B7B7B7" stroke-width="3" stroke-miterlimit="10" stroke-linecap="round" stroke-linejoin="round"/>
<path d="M221.05 206.528C220.276 209.228 218.241 211.393 215.582 212.304C210.101 214.181 200.211 216.603 190.857 213.924C181.502 211.246 174.396 203.959 170.741 199.466C168.968 197.286 168.39 194.373 169.164 191.673L173.792 175.532C174.262 173.895 175.698 172.725 177.397 172.601C181.346 172.312 189.395 172.451 201.735 175.984C214.075 179.518 220.976 183.659 224.173 185.993C225.55 186.998 226.147 188.75 225.677 190.388L221.05 206.528Z" fill="white" stroke="#B7B7B7" stroke-width="3" stroke-miterlimit="10" stroke-linecap="round" stroke-linejoin="round"/>
<mask id="mask0_388_1691" style="mask-type:luminance" maskUnits="userSpaceOnUse" x="168" y="172" width="58" height="44">
<path d="M221.05 206.528C220.275 209.228 218.241 211.393 215.582 212.304C210.101 214.181 200.211 216.603 190.856 213.925C181.502 211.246 174.396 203.959 170.741 199.466C168.968 197.287 168.39 194.373 169.164 191.673L173.793 175.532C174.262 173.895 175.698 172.725 177.397 172.601C181.346 172.312 189.396 172.451 201.735 175.984C214.075 179.517 220.976 183.659 224.173 185.993C225.55 186.998 226.147 188.75 225.677 190.387L221.05 206.528Z" fill="white"/>
</mask>
<g mask="url(#mask0_388_1691)">
<path d="M229.172 232.258L250.971 145.777L237.943 144.69L219.193 230.672L229.172 232.258Z" stroke="#B7B7B7" stroke-width="3" stroke-miterlimit="10"/>
</g>
</g>
<defs>
<clipPath id="clip0_388_1691">
<rect width="467" height="350" fill="white"/>
</clipPath>
</defs>
</svg>
