<svg width="105" height="28" viewBox="0 0 105 28" fill="none" xmlns="http://www.w3.org/2000/svg">
<g clip-path="url(#clip0_51_8438)">
<path d="M25.004 19.1865L24.9894 19.1404L34.1766 10.7297V6.67725H19.4373V10.7297H28.2411L28.2557 10.7686L19.1582 19.1865V23.239H34.3247V19.1865H25.004Z" fill="#201515"/>
<path d="M43.3733 6.2915C41.6732 6.2915 40.2876 6.54787 39.2166 7.06074C38.219 7.50764 37.3786 8.24404 36.8045 9.17432C36.2554 10.1107 35.9105 11.1527 35.7926 12.2319L40.2649 12.8604C40.4267 11.9075 40.7502 11.2321 41.2356 10.8341C41.7873 10.4179 42.4671 10.2076 43.1574 10.2396C44.0652 10.2396 44.7236 10.4823 45.1326 10.9676C45.5382 11.4529 45.7443 12.1251 45.7443 13.0108V13.4525H41.4443C39.2554 13.4525 37.683 13.9378 36.7269 14.9085C35.7708 15.8791 35.2936 17.1604 35.2952 18.7522C35.2952 20.3829 35.7724 21.5963 36.7269 22.3922C37.6814 23.1881 38.8818 23.5836 40.328 23.5788C42.1221 23.5788 43.5022 22.9616 44.4678 21.7273C45.0384 20.9687 45.4457 20.1004 45.6642 19.1769H45.8266L46.4431 23.2293H50.4954V12.9671C50.4954 10.8463 49.9367 9.20346 48.8188 8.03866C47.701 6.87386 45.8856 6.2915 43.3733 6.2915ZM44.7907 18.9415C44.1475 19.4778 43.3054 19.7447 42.2572 19.7447C41.3933 19.7447 40.7931 19.5935 40.4566 19.2909C40.2927 19.1478 40.1622 18.9703 40.0746 18.7711C39.987 18.5719 39.9442 18.3559 39.9495 18.1383C39.9399 17.9331 39.9722 17.7281 40.0444 17.5358C40.1165 17.3435 40.2271 17.1678 40.3693 17.0196C40.5231 16.8754 40.7045 16.7638 40.9026 16.6917C41.1007 16.6195 41.3114 16.5882 41.5219 16.5998H45.7516V16.8789C45.76 17.2733 45.6777 17.6645 45.5114 18.0221C45.3447 18.3797 45.0982 18.6943 44.7907 18.9415Z" fill="#201515"/>
<path d="M74.9997 6.67725H70.2122V23.2415H74.9997V6.67725Z" fill="#201515"/>
<path d="M103.267 6.67725C101.915 6.67725 100.849 7.15448 100.069 8.10898C99.5094 8.79489 99.0839 9.80841 98.7929 11.1495H98.652L98.0259 6.67725H93.937V23.239H98.725V14.7458C98.725 13.6749 98.9757 12.8538 99.4772 12.2828C99.9786 11.7117 100.904 11.4262 102.253 11.4262H104.07V6.67725H103.267Z" fill="#201515"/>
<path d="M89.1854 7.21833C88.068 6.55341 86.6578 6.22178 84.9562 6.22339C82.2771 6.22339 80.1805 6.98618 78.6663 8.51172C77.1518 10.0372 76.3949 12.1403 76.3949 14.821C76.3563 16.4416 76.7102 18.0475 77.4263 19.5019C78.0817 20.7979 79.1025 21.8736 80.3625 22.5959C81.6305 23.3287 83.1391 23.6959 84.8883 23.6976C86.4007 23.6976 87.6641 23.4646 88.6785 22.9987C89.6322 22.5803 90.4624 21.9244 91.0907 21.0938C91.6885 20.2784 92.1326 19.3607 92.4008 18.3857L88.2758 17.2306C88.1019 17.8646 87.7676 18.443 87.3052 18.9098C86.8389 19.3757 86.0583 19.6087 84.9634 19.6087C83.6609 19.6087 82.6903 19.2358 82.0514 18.49C81.5877 17.9513 81.2966 17.182 81.1681 16.1847H92.464C92.5102 15.7188 92.5344 15.3281 92.5344 15.0126V13.9813C92.5615 12.5959 92.2756 11.2221 91.6974 9.96284C91.156 8.81569 90.2804 7.85898 89.1854 7.21833ZM84.8178 10.1715C86.7592 10.1715 87.8597 11.1268 88.1202 13.0374H81.2529C81.362 12.3999 81.6263 11.799 82.0221 11.2878C82.6517 10.542 83.5833 10.1699 84.8178 10.1715Z" fill="#201515"/>
<path d="M72.6579 0.0015538C72.2977 -0.0106957 71.9388 0.0495829 71.6024 0.178811C71.266 0.30804 70.9592 0.503576 70.6996 0.753802C70.4442 1.00643 70.2435 1.30946 70.1112 1.64365C69.9788 1.97784 69.9173 2.33588 69.9305 2.69511C69.9177 3.05665 69.9792 3.41699 70.112 3.75362C70.2444 4.09024 70.4451 4.39596 70.7009 4.65165C70.9567 4.90734 71.2626 5.10754 71.5994 5.23978C71.9363 5.37201 72.2965 5.43344 72.6579 5.42021C73.0172 5.43378 73.3753 5.37239 73.7096 5.23999C74.0439 5.10754 74.3468 4.90696 74.5992 4.65097C74.85 4.39235 75.0451 4.08578 75.1741 3.74966C75.3031 3.41354 75.3624 3.05483 75.3493 2.69511C75.3658 2.33751 75.3077 1.98039 75.1783 1.64655C75.0489 1.31271 74.8517 1.00949 74.5988 0.756246C74.3455 0.503003 74.0426 0.305304 73.7088 0.175775C73.3753 0.0462471 73.0181 -0.0122583 72.6604 0.0039828L72.6579 0.0015538Z" fill="#201515"/>
<path d="M62.7671 6.22339C61.1363 6.22339 59.8258 6.73541 58.8361 7.75944C58.103 8.51816 57.565 9.65059 57.2222 11.1567H57.0695L56.4433 6.68446H52.3545V28H57.1421V19.2204H57.3169C57.4628 19.8058 57.6677 20.3749 57.9282 20.9191C58.3333 21.8054 58.9977 22.5483 59.8335 23.0497C60.6998 23.5225 61.6759 23.7578 62.6627 23.7315C64.6673 23.7315 66.1933 22.951 67.2416 21.3898C68.2899 19.8287 68.8143 17.6504 68.8143 14.8549C68.8143 12.1549 68.3069 10.0413 67.2929 8.51413C66.2786 6.98698 64.77 6.22339 62.7671 6.22339ZM63.2524 18.2255C62.6941 19.0344 61.8206 19.4388 60.6315 19.4388C60.1415 19.4614 59.6527 19.3669 59.2064 19.1631C58.7597 18.9593 58.3681 18.652 58.0644 18.2667C57.4446 17.4886 57.1357 16.4233 57.1374 15.0709V14.7554C57.1374 13.3819 57.4462 12.3304 58.0644 11.6008C58.6821 10.8712 59.5382 10.5104 60.6315 10.5185C61.8418 10.5185 62.7209 10.9027 63.2694 11.6712C63.8179 12.4396 64.092 13.5114 64.092 14.8865C64.0954 16.3084 63.8171 17.4215 63.2571 18.2255H63.2524Z" fill="#201515"/>
<path d="M17.3066 19.1865H0.742432V23.2439H17.3066V19.1865Z" fill="#FF4F00"/>
</g>
<defs>
<clipPath id="clip0_51_8438">
<rect width="105" height="28" fill="white"/>
</clipPath>
</defs>
</svg>
