<svg width="68" height="32" viewBox="0 0 68 32" fill="none" xmlns="http://www.w3.org/2000/svg">
<path d="M33.1112 6.29053C34.7576 6.29053 36.0923 4.95174 36.0923 3.30029C36.0923 1.64883 34.7576 0.310059 33.1112 0.310059C31.4648 0.310059 30.1301 1.64883 30.1301 3.30029C30.1301 4.95174 31.4648 6.29053 33.1112 6.29053Z" fill="#131032"/>
<path d="M7.92785 15.9278L15.5751 8.25702C15.7067 8.12496 15.6131 7.89608 15.4259 7.89608H9.24724C9.19165 7.89608 9.13898 7.91957 9.09803 7.95771L5.11644 11.9515V1.46077C5.11644 1.31112 4.96433 1.20841 4.82682 1.26416L0.456111 3.03952C0.377122 3.07181 0.324463 3.1481 0.324463 3.23613V23.8978C0.324463 24.0915 0.482442 24.2499 0.675523 24.2499H4.76539C4.95845 24.2499 5.11644 24.0915 5.11644 23.8978V19.904L9.39352 24.1912C9.43154 24.2294 9.48714 24.2529 9.54273 24.2529L15.7243 24.2499C15.9115 24.2499 16.0051 24.021 15.8735 23.889L7.92785 15.9278Z" fill="#131032"/>
<path d="M31.0656 24.2501H35.1555C35.3486 24.2501 35.5066 24.0916 35.5066 23.8979V8.2513C35.5066 8.05766 35.3486 7.89917 35.1555 7.89917H31.0656C30.8726 7.89917 30.7146 8.05766 30.7146 8.2513V23.9009C30.7175 24.0946 30.8726 24.2501 31.0656 24.2501Z" fill="#131032"/>
<path fill-rule="evenodd" clip-rule="evenodd" d="M60.0456 7.91667C64.0654 8.19249 67.3216 11.4586 67.6021 15.4876C67.9329 20.2708 64.1647 24.25 59.4723 24.2529C58.273 24.2529 57.1348 23.9888 56.1109 23.5222V28.819C56.1109 28.9627 56.0259 29.0919 55.8915 29.1447L51.6086 30.8848C51.4711 30.9406 51.3188 30.8408 51.3188 30.6882V16.0745H51.3219C51.3219 11.3647 55.2829 7.58803 60.0456 7.91667ZM56.1109 16.0745C56.1109 17.935 57.6146 19.4462 59.4723 19.4462C61.3272 19.4462 62.8309 17.935 62.8309 16.0745C62.8309 14.214 61.3272 12.7028 59.4723 12.7028C57.6146 12.7028 56.1109 14.214 56.1109 16.0745Z" fill="#131032"/>
<path d="M43.5838 11.8373C43.5984 11.8373 43.6162 11.8373 43.6305 11.8402C44.4175 11.8079 45.1257 12.3126 45.7018 13.102C45.7957 13.2311 45.9653 13.2751 46.1114 13.2165L49.4055 11.8871C49.5871 11.8138 49.6748 11.6054 49.5987 11.4235C48.7707 9.42218 46.252 7.89917 43.5811 7.89917C40.0937 7.89917 37.2619 10.1235 37.2619 12.8673C37.2619 14.3374 38.1161 15.6139 39.2893 16.4473C40.3426 17.1956 41.6006 17.6798 42.8408 18.0026C42.8613 18.0085 42.8817 18.0136 42.9022 18.0187C42.9227 18.0239 42.9432 18.029 42.9636 18.0349C44.637 18.4076 44.8769 18.8506 44.8769 19.2879C44.8769 19.8572 44.1896 20.3179 43.3438 20.3179C42.4691 20.3737 41.6941 19.7721 41.0855 18.8565C40.9947 18.7186 40.8162 18.6687 40.6644 18.7303L37.4082 20.0685C37.2297 20.1418 37.1478 20.3414 37.2151 20.5233C38.1483 23.0587 40.6644 24.256 43.3438 24.256C46.8311 24.256 49.6632 22.0346 49.6632 19.2879C49.6632 18.6893 49.5284 18.117 49.2799 17.5859C49.0427 17.0782 48.4257 15.9984 46.8284 15.25C46.4301 15.0644 45.7242 14.8174 44.9824 14.5579C44.0238 14.2225 43.0058 13.8663 42.5162 13.595C42.2176 13.4307 42.048 13.1578 42.048 12.8673C42.048 12.298 42.7384 11.8373 43.5838 11.8373Z" fill="#131032"/>
<path d="M29.0266 8.18968C29.0822 8.05178 28.9798 7.89917 28.8306 7.89917H25.7442C21.2536 7.89917 17.6113 11.5526 17.6113 16.057V23.8979C17.6113 24.0916 17.7693 24.2501 17.9624 24.2501H22.0522C22.2453 24.2501 22.4004 24.0946 22.4004 23.9009V16.057C22.4004 14.2024 23.8982 12.7 25.7471 12.7H27.0402C27.1251 12.7 27.2011 12.6501 27.2333 12.5709L29.0266 8.18968Z" fill="#131032"/>
</svg>
