<svg xmlns="http://www.w3.org/2000/svg" fill="none" viewBox="0 0 1200 1200"><path fill="#fff" d="M0 0h1200v1200H0z"/><path fill="url(#a)" d="M0 0h1200v1200H0z"/><path fill="#fff" fill-rule="evenodd" d="M787.826 689.927v97.899h-97.899c12.379 17.747 19.638 39.33 19.638 62.609C709.565 910.946 660.511 960 600 960c-60.511 0-109.565-49.054-109.565-109.565 0-23.279 7.26-44.862 19.638-62.609h-97.899V740.87H740.87V412.174h46.956v97.899c17.747-12.378 39.33-19.638 62.609-19.638C910.946 490.435 960 539.489 960 600c0 60.511-49.054 109.565-109.565 109.565-23.279 0-44.862-7.259-62.609-19.638ZM600 905.218c30.256 0 54.783-24.527 54.783-54.783 0-30.255-24.527-54.783-54.783-54.783-30.255 0-54.782 24.528-54.782 54.783 0 30.256 24.527 54.783 54.782 54.783ZM905.217 600c0 30.256-24.527 54.783-54.782 54.783-30.256 0-54.783-24.527-54.783-54.783 0-30.255 24.527-54.782 54.783-54.782 30.255 0 54.782 24.527 54.782 54.782Z" clip-rule="evenodd"/><path fill="#fff" fill-rule="evenodd" d="M600 240c60.511 0 109.565 49.054 109.565 109.565 0 23.279-7.259 44.862-19.638 62.609h97.9v46.956H459.131v281.739l-46.956 46.957v-97.9c-17.748 12.379-39.331 19.639-62.61 19.639C289.054 709.565 240 660.511 240 600c0-60.511 49.054-109.565 109.565-109.565 23.279 0 44.862 7.26 62.61 19.639v-97.9h97.898c-12.378-17.747-19.638-39.33-19.638-62.609C490.435 289.054 539.489 240 600 240Zm0 54.783c-30.256 0-54.783 24.527-54.783 54.782 0 30.256 24.527 54.783 54.783 54.783 30.255 0 54.782-24.527 54.782-54.783 0-30.255-24.527-54.782-54.782-54.782ZM293.633 591.766c3.687-30.03 31.02-51.386 61.05-47.698 30.03 3.687 51.385 31.02 47.698 61.05-3.687 30.03-31.02 51.385-61.05 47.698-30.03-3.687-51.386-31.02-47.698-61.05Z" clip-rule="evenodd"/><defs><linearGradient id="a" x1="-151.031" x2="235.5" y1="316.359" y2="1495.55" gradientUnits="userSpaceOnUse"><stop stop-color="#FF5740"/><stop offset="1" stop-color="#E22922"/></linearGradient></defs></svg>