<svg xmlns="http://www.w3.org/2000/svg" xml:space="preserve" id="Layer_1" x="0" y="0" style="enable-background:new 0 0 71.09 71.09" version="1.1" viewBox="0 0 71.09 71.09"><style>.st1{fill:#fff}</style><path d="M35.54 71.09c19.63 0 35.54-15.91 35.54-35.54S55.17 0 35.54 0 0 15.91 0 35.54s15.91 35.55 35.54 35.55" style="fill:#f89b22"/><path d="M56.63 49.22V31.5c0-4.43-2.66-4.43-2.66-4.43l-1.61 1.16v.01l-9.31 6.7-7.01 5.05h-.01l-.5.36-.5-.36h-.01l-4.28-3.09-.25-.18L28 34.93l-9.33-6.71s0-.01.01-.01l-1.59-1.14s-2.66 0-2.66 4.43v17.73s0 3.84 3.59 4.37l.01-.01v.01h35c3.6-.54 3.6-4.38 3.6-4.38" class="st1"/><path d="M25.93 18.53a2.949 2.949 0 1 0-5.9 0 2.949 2.949 0 1 0 5.9 0m2.11 13.43.01-4.13h-.03a5.18 5.18 0 0 0-.37-1.82c-.25-.65-.6-1.22-1.05-1.71-.45-.49-.98-.88-1.6-1.16-.62-.28-1.28-.42-2-.42s-1.38.14-1.99.42c-.62.28-1.15.67-1.61 1.16-.27.29-.5.61-.69.95l9.33 6.71zm10.34-16.83a2.949 2.949 0 1 0-5.9 0 2.949 2.949 0 1 0 5.9 0m2.2 18.63.01-9.32h-.03a5.18 5.18 0 0 0-.37-1.82c-.25-.65-.6-1.22-1.05-1.71-.45-.49-.98-.88-1.6-1.16-.62-.28-1.28-.42-1.99-.42-.72 0-1.38.14-2 .42-.62.28-1.15.67-1.61 1.16-.46.49-.81 1.06-1.06 1.71-.22.57-.34 1.17-.37 1.82l.01 9.31 5.03 3.62 5.03-3.61zm10.24-15.23a2.949 2.949 0 1 0-5.9 0 2.949 2.949 0 1 0 5.9 0m1.56 6.73c-.2-.35-.42-.67-.69-.96-.45-.49-.98-.88-1.6-1.16-.62-.28-1.28-.42-1.99-.42s-1.38.14-1.99.42c-.62.28-1.15.67-1.61 1.16-.46.49-.81 1.06-1.06 1.71-.22.57-.34 1.17-.37 1.82l.01 4.14 9.3-6.71z" class="st1"/><path d="M0 0h71v72.6H0z" style="fill:none"/></svg>