<svg width="346" height="205" viewBox="0 0 346 205" fill="none" xmlns="http://www.w3.org/2000/svg">
<g clip-path="url(#clip0_191_2858)">
<path d="M194.96 100.05C221.64 100.05 243.268 78.4338 243.268 51.7689C243.268 25.104 221.64 3.48779 194.96 3.48779C168.281 3.48779 146.653 25.104 146.653 51.7689C146.653 78.4338 168.281 100.05 194.96 100.05Z" fill="#FAF4C1"/>
<path opacity="0.23" fill-rule="evenodd" clip-rule="evenodd" d="M202.771 4.1161V66.7081C202.771 68.5371 201.283 70.0189 199.448 70.0189H150.223C147.921 64.3891 146.652 58.2272 146.652 51.7693C146.652 25.1044 168.281 3.48828 194.96 3.48828C197.62 3.48828 200.228 3.70302 202.771 4.1161Z" fill="#ADB649"/>
<g opacity="0.8">
<g opacity="0.4">
<path d="M169.611 39.3931L175.315 42.6843V49.2668L169.611 52.558L163.908 49.2668V42.6843L169.611 39.3931Z" stroke="white" stroke-width="1.91455" stroke-linecap="round" stroke-linejoin="round"/>
<path d="M175.401 29.5559L181.105 32.8472V39.4296L175.401 42.7208L169.698 39.4296V32.8472L175.401 29.5559Z" stroke="white" stroke-width="1.91455" stroke-linecap="round" stroke-linejoin="round"/>
<path d="M186.895 23.009V29.5915L181.191 32.8827L175.487 29.5915V23.009" stroke="white" stroke-width="1.91455" stroke-linecap="round" stroke-linejoin="round"/>
<path d="M169.697 59.0678V52.4853L175.401 49.1941L181.105 52.4853V59.0678" stroke="white" stroke-width="1.91455" stroke-linecap="round" stroke-linejoin="round"/>
<path d="M175.461 23.009V29.5915L169.757 32.8827L164.053 29.5915V23.009" stroke="white" stroke-width="1.91455" stroke-linecap="round" stroke-linejoin="round"/>
<path d="M163.965 29.5554L169.669 32.8466V39.4291L163.965 42.7203L158.262 39.4291V32.8466L163.965 29.5554Z" fill="white" stroke="white" stroke-width="1.91455" stroke-linecap="round" stroke-linejoin="round"/>
<path d="M192.539 32.8466L186.836 29.5554L181.132 32.8466V39.4291L186.836 42.7203L192.539 39.4291" stroke="white" stroke-width="1.91455" stroke-linecap="round" stroke-linejoin="round"/>
<path d="M198.185 42.6843L192.481 39.3931L186.778 42.6843V49.2667L192.481 52.558L198.185 49.2667" stroke="white" stroke-width="1.91455" stroke-linecap="round" stroke-linejoin="round"/>
<path d="M152.471 42.6843L158.175 39.3931L163.879 42.6843V49.2667L158.175 52.558L152.471 49.2667" stroke="white" stroke-width="1.91455" stroke-linecap="round" stroke-linejoin="round"/>
<path d="M181.045 39.3931L186.749 42.6843V49.2668L181.045 52.558L175.341 49.2668V42.6843L181.045 39.3931Z" stroke="white" stroke-width="1.91455" stroke-linecap="round" stroke-linejoin="round"/>
</g>
<path d="M163.981 30.6766C164.5 30.6766 164.922 30.2556 164.922 29.7363C164.922 29.2169 164.5 28.7959 163.981 28.7959C163.461 28.7959 163.04 29.2169 163.04 29.7363C163.04 30.2556 163.461 30.6766 163.981 30.6766Z" fill="white"/>
<path d="M158.045 40.2249C158.565 40.2249 158.986 39.8039 158.986 39.2846C158.986 38.7652 158.565 38.3442 158.045 38.3442C157.525 38.3442 157.104 38.7652 157.104 39.2846C157.104 39.8039 157.525 40.2249 158.045 40.2249Z" fill="white"/>
<path d="M163.691 50.2071C164.211 50.2071 164.632 49.7861 164.632 49.2668C164.632 48.7474 164.211 48.3264 163.691 48.3264C163.171 48.3264 162.75 48.7474 162.75 49.2668C162.75 49.7861 163.171 50.2071 163.691 50.2071Z" fill="white"/>
<path d="M175.56 30.6766C176.08 30.6766 176.501 30.2556 176.501 29.7363C176.501 29.2169 176.08 28.7959 175.56 28.7959C175.04 28.7959 174.619 29.2169 174.619 29.7363C174.619 30.2556 175.04 30.6766 175.56 30.6766Z" fill="white"/>
<path d="M169.625 40.2249C170.145 40.2249 170.566 39.8039 170.566 39.2846C170.566 38.7652 170.145 38.3442 169.625 38.3442C169.106 38.3442 168.685 38.7652 168.685 39.2846C168.685 39.8039 169.106 40.2249 169.625 40.2249Z" fill="white"/>
<path d="M175.27 50.2071C175.79 50.2071 176.211 49.7861 176.211 49.2668C176.211 48.7474 175.79 48.3264 175.27 48.3264C174.751 48.3264 174.329 48.7474 174.329 49.2668C174.329 49.7861 174.751 50.2071 175.27 50.2071Z" fill="white"/>
<path d="M187.14 30.6766C187.66 30.6766 188.081 30.2556 188.081 29.7363C188.081 29.2169 187.66 28.7959 187.14 28.7959C186.621 28.7959 186.199 29.2169 186.199 29.7363C186.199 30.2556 186.621 30.6766 187.14 30.6766Z" fill="white"/>
<path d="M181.205 40.2249C181.725 40.2249 182.146 39.8039 182.146 39.2846C182.146 38.7652 181.725 38.3442 181.205 38.3442C180.686 38.3442 180.264 38.7652 180.264 39.2846C180.264 39.8039 180.686 40.2249 181.205 40.2249Z" fill="white"/>
<path d="M186.849 50.2071C187.369 50.2071 187.79 49.7861 187.79 49.2668C187.79 48.7474 187.369 48.3264 186.849 48.3264C186.33 48.3264 185.908 48.7474 185.908 49.2668C185.908 49.7861 186.33 50.2071 186.849 50.2071Z" fill="white"/>
<path d="M192.641 40.37C193.16 40.37 193.581 39.949 193.581 39.4296C193.581 38.9103 193.16 38.4893 192.641 38.4893C192.121 38.4893 191.7 38.9103 191.7 39.4296C191.7 39.949 192.121 40.37 192.641 40.37Z" fill="white"/>
</g>
<path d="M194.172 8.97534C177.373 13.9312 176.932 28.3134 188.479 28.6212L194.172 8.97534Z" fill="#442525"/>
<path d="M69.6381 139.199C108.098 139.199 139.276 108.038 139.276 69.5997C139.276 31.1608 108.098 0 69.6381 0C31.178 0 0 31.1608 0 69.5997C0 108.038 31.178 139.199 69.6381 139.199Z" fill="#A4CAFF"/>
<path d="M116.305 26.7664H21.8328C21.2506 26.7664 20.7786 27.2366 20.7786 27.8168V79.6647C20.7786 80.2448 21.2506 80.7151 21.8328 80.7151H116.305C116.887 80.7151 117.359 80.2448 117.359 79.6647V27.8168C117.359 27.2366 116.887 26.7664 116.305 26.7664Z" fill="#D8E8FF"/>
<g opacity="0.2">
<path opacity="0.8" d="M29.8853 40.7012H62.8034" stroke="#156EF0" stroke-width="4.17857" stroke-linecap="round" stroke-linejoin="round"/>
<path opacity="0.8" d="M29.8853 47.3379H45.1688" stroke="#156EF0" stroke-width="4.17857" stroke-linecap="round" stroke-linejoin="round"/>
<path opacity="0.8" d="M29.8853 55.3696H31.0609" stroke="#156EF0" stroke-width="4.17857" stroke-linecap="round" stroke-linejoin="round"/>
<path opacity="0.8" d="M49.8716 55.3696H51.0472" stroke="#156EF0" stroke-width="4.17857" stroke-linecap="round" stroke-linejoin="round"/>
<path opacity="0.4" d="M36.9392 55.3696H42.8175" stroke="#156EF0" stroke-width="4.17857" stroke-linecap="round" stroke-linejoin="round"/>
<path opacity="0.4" d="M56.9255 55.3696H62.804" stroke="#156EF0" stroke-width="4.17857" stroke-linecap="round" stroke-linejoin="round"/>
<path opacity="0.8" d="M29.8853 63.5942H31.0609" stroke="#156EF0" stroke-width="4.17857" stroke-linecap="round" stroke-linejoin="round"/>
<path opacity="0.8" d="M49.8716 63.5942H51.0472" stroke="#156EF0" stroke-width="4.17857" stroke-linecap="round" stroke-linejoin="round"/>
<path opacity="0.4" d="M36.9392 63.5942H42.8175" stroke="#156EF0" stroke-width="4.17857" stroke-linecap="round" stroke-linejoin="round"/>
<path opacity="0.4" d="M56.9255 63.5942H62.804" stroke="#156EF0" stroke-width="4.17857" stroke-linecap="round" stroke-linejoin="round"/>
</g>
<g opacity="0.15">
<path d="M103.012 67.7443V39.728L75.9463 67.7443H103.012Z" stroke="#156EF0" stroke-width="2.34669" stroke-linecap="round" stroke-linejoin="round"/>
<path d="M104.945 47.6922C102.988 49.16 98.1211 50.4914 94.312 44.0752" stroke="#156EF0" stroke-width="2.34669" stroke-linecap="round" stroke-linejoin="round"/>
<path d="M77.5386 62.4364C79.8518 61.6423 84.8781 61.8818 86.4734 69.1928" stroke="#156EF0" stroke-width="2.34669" stroke-linecap="round" stroke-linejoin="round"/>
</g>
<g opacity="0.15">
<path d="M103.494 72.5742H75.7043" stroke="#156EF0" stroke-width="2.34669" stroke-linecap="round" stroke-linejoin="round"/>
<path d="M103.977 71.125V73.7814" stroke="#156EF0" stroke-width="2.34669" stroke-linecap="round" stroke-linejoin="round"/>
<path d="M74.9795 71.125V73.7814" stroke="#156EF0" stroke-width="2.34669" stroke-linecap="round" stroke-linejoin="round"/>
</g>
<g opacity="0.15">
<path d="M108.69 67.1403V39.3655" stroke="#156EF0" stroke-width="2.34669" stroke-linecap="round" stroke-linejoin="round"/>
<path d="M110.141 67.6235H107.482" stroke="#156EF0" stroke-width="2.34669" stroke-linecap="round" stroke-linejoin="round"/>
<path d="M110.141 38.6414H107.482" stroke="#156EF0" stroke-width="2.34669" stroke-linecap="round" stroke-linejoin="round"/>
</g>
<path fill-rule="evenodd" clip-rule="evenodd" d="M7.76172 101.563C9.87102 97.2446 13.0135 92.9045 17.6503 90.3337C23.2723 86.9447 29.8004 84.3351 33.3256 82.9253C33.8696 82.708 34.3422 82.519 34.7288 82.3602L73.1171 76.4238C76.3182 77.3473 80.3429 80.8027 77.4798 87.1466C78.0828 87.444 78.7161 87.7308 79.3778 88.03C84.9861 90.5694 92.5981 94.015 100.265 112.386L95.4798 134.251C87.4897 137.444 78.7699 139.201 69.6392 139.201C42.7077 139.201 19.347 123.922 7.76172 101.563Z" fill="#0C9567"/>
<path d="M71.1716 87.7569C72.0732 87.7569 72.8042 87.0264 72.8042 86.1253C72.8042 85.2242 72.0732 84.4937 71.1716 84.4937C70.27 84.4937 69.5391 85.2242 69.5391 86.1253C69.5391 87.0264 70.27 87.7569 71.1716 87.7569Z" fill="#077651"/>
<path d="M71.6863 86.7558C71.6863 86.4724 71.4557 86.2427 71.1713 86.2427C70.8868 86.2427 70.6562 86.4724 70.6562 86.7558V97.2387C70.6562 97.5221 70.8868 97.7519 71.1713 97.7519C71.4557 97.7519 71.6863 97.5221 71.6863 97.2387V86.7558Z" fill="#077651"/>
<path fill-rule="evenodd" clip-rule="evenodd" d="M137.291 86.165C131.275 110.792 112.148 130.281 87.7227 136.828L105.875 90.8763C106.632 88.9605 108.442 87.6622 110.506 87.5551L137.291 86.165Z" fill="#1A42A2"/>
<path fill-rule="evenodd" clip-rule="evenodd" d="M136.476 89.1982C130.06 111.091 113.167 128.511 91.5906 135.669L108.15 93.7489C108.907 91.8331 110.717 90.5347 112.781 90.4276L136.476 89.1982Z" fill="#002A60"/>
<path opacity="0.5" d="M26.8103 24.1244L17.3423 33.7493L19.3876 35.759L28.8556 26.1341L26.8103 24.1244Z" fill="white"/>
<path opacity="0.5" d="M120.953 33.8559L110.319 23.2283L108.291 25.2553L118.924 35.8829L120.953 33.8559Z" fill="white"/>
<path opacity="0.5" d="M118.58 72.5185L108.957 82.1367L110.985 84.1637L120.608 74.5455L118.58 72.5185Z" fill="white"/>
<path opacity="0.5" d="M24.6211 73.5562H15.645V76.4228H24.6211V73.5562Z" fill="white"/>
<path d="M85.7424 59.6886C85.6071 50.4453 85.1376 44.475 85.1376 44.475L62.5252 32.0764L53.8475 44.3192C52.094 46.4089 49.538 53.0784 53.3425 63.0391C57.147 72.9991 64.3745 76.6232 70.0692 77.3743C85.3668 79.0734 85.8889 69.6581 85.7424 59.6886Z" fill="#F9B8A4"/>
<path d="M44.5471 78.3544L53.1097 60.4293C65.5968 49.0098 72.2276 61.2408 74.2832 69.1227L61.1182 95.3085L44.5471 78.3544Z" fill="#F9B8A4"/>
<path d="M90.0496 45.49C97.1584 43.4429 101.346 36.3181 99.4021 29.5765C97.4585 22.8348 90.1201 19.0292 83.0113 21.0763C75.9025 23.1234 71.7152 30.2481 73.6588 36.9898C75.6023 43.7315 82.9407 47.5371 90.0496 45.49Z" fill="#522C2C"/>
<path d="M69.9082 56.3599C70.5988 56.4054 71.208 55.6941 71.2689 54.7713C71.3298 53.8484 70.8192 53.0634 70.1286 53.0179C69.438 52.9724 68.8288 53.6837 68.768 54.6065C68.7071 55.5294 69.2176 56.3144 69.9082 56.3599Z" fill="#522C2C"/>
<path d="M82.2097 56.834C82.9003 56.8795 83.5095 56.1683 83.5704 55.2454C83.6313 54.3226 83.1208 53.5376 82.4302 53.4921C81.7395 53.4466 81.1303 54.1578 81.0695 55.0806C81.0086 56.0035 81.5191 56.7885 82.2097 56.834Z" fill="#522C2C"/>
<path d="M59.6094 68.1929C62.9027 68.2741 65.6378 65.6907 65.7185 62.4228C65.7992 59.1548 63.1949 56.4397 59.9016 56.3585C56.6084 56.2773 53.8733 58.8606 53.7926 62.1286C53.7119 65.3966 56.3162 68.1116 59.6094 68.1929Z" fill="#F49D82"/>
<path fill-rule="evenodd" clip-rule="evenodd" d="M85.7171 64.0614C84.7922 63.4242 83.6757 63.0389 82.4653 63.0087C79.1721 62.9274 76.4375 65.5112 76.3566 68.7789C76.2762 72.0361 78.8626 74.7436 82.1403 74.8421C84.807 72.3636 85.5509 68.4341 85.7171 64.0614Z" fill="#F49D82"/>
<path d="M64.8139 62.7934L72.7984 66.0882C73.1117 66.2175 73.2217 66.6059 72.9974 66.8596C69.5844 70.7108 63.15 68.2952 64.1305 63.1418C64.1892 62.8334 64.5229 62.6734 64.8139 62.7934Z" fill="white"/>
<path d="M62.2368 49.415L51.7781 49.4438" stroke="white" stroke-width="1.70625"/>
<path d="M70.9313 43.3174C68.6977 43.3698 66.5198 43.8418 65.559 44.1828C64.1515 44.6175 64.4308 45.9185 65.5287 45.9369L72.9585 45.7006C74.0644 45.5403 74.272 44.8094 74.2177 44.4816C74.091 43.4474 72.6712 43.2767 70.9313 43.3174Z" fill="#522C2C"/>
<path d="M81.4151 44.3136C83.066 44.5098 84.6434 45.1086 85.3286 45.5014C86.3382 46.014 86.0317 47.2557 85.2174 47.202L79.732 46.4895C78.9251 46.2622 78.8269 45.5409 78.8924 45.227C79.0647 44.2338 80.1299 44.1608 81.4151 44.3136Z" fill="#522C2C"/>
<path d="M64.6908 97.2185L47.464 72.2128C39.4705 69.5225 34.3534 76.7745 34.1558 82.6013C40.6566 84.7381 50.51 89.6088 57.8694 93.502C60.5784 94.9345 62.9496 96.2353 64.6908 97.2185Z" fill="#0C9567"/>
<path d="M34.1558 82.6025C37.5097 83.7051 41.7561 85.5353 46.0919 87.5835" stroke="#077651" stroke-width="1.27969"/>
<path d="M50.5791 86.8082C51.4807 86.8082 52.2116 86.0777 52.2116 85.1766C52.2116 84.2754 51.4807 83.5449 50.5791 83.5449C49.6775 83.5449 48.9465 84.2754 48.9465 85.1766C48.9465 86.0777 49.6775 86.8082 50.5791 86.8082Z" fill="#077651"/>
<path d="M50.579 85.2949H50.579C50.2945 85.2949 50.064 85.5247 50.064 85.8081V110.415C50.064 110.699 50.2945 110.928 50.579 110.928C50.8634 110.928 51.094 110.699 51.094 110.415V85.8081C51.094 85.5247 50.8634 85.2949 50.579 85.2949Z" fill="#077651"/>
<path d="M57.1025 69.6143C61.0706 74.5029 66.1446 76.5419 70.1273 77.3871L68.456 80.6788C61.1906 78.3585 57.6779 73.4533 56.3308 69.9751C56.1275 69.4506 56.7474 69.1766 57.1025 69.6143Z" fill="#DB8C74"/>
<path d="M76.8652 53.8945C76.8652 53.8945 77.184 58.313 77.3818 60.9499C77.5789 63.5865 73.9143 63.4603 71.459 60.9052" stroke="#DB8C74" stroke-width="1.27969" stroke-linecap="round"/>
<path d="M75.0691 52.0012C75.3051 49.7068 74.1435 49.083 72.9227 48.6635C71.8729 48.3029 68.762 47.708 64.9993 48.0336C63.4997 48.2207 62.0527 48.6214 61.91 50.8295C61.8074 52.4324 61.9415 54.5453 63.2674 55.9412C64.6539 57.4007 68.2016 58.0708 70.8473 57.5197C72.8294 57.0501 73.8173 55.9262 74.4074 54.6001C74.7639 53.7384 74.9894 52.7768 75.0691 52.0012Z" stroke="white" stroke-width="1.70625"/>
<path d="M89.9519 52.8512C90.17 50.657 89.0998 50.061 87.9747 49.6604C87.0072 49.316 84.1391 48.7965 80.9744 49.0816C79.5923 49.2612 78.2577 49.645 78.1255 51.7566C78.0303 53.2895 78.1527 55.31 79.3742 56.6442C80.6519 58.0393 83.8091 58.6842 86.3603 58.0976C87.9216 57.6825 88.7983 56.5011 89.3408 55.3368C89.6695 54.5127 89.8777 53.5929 89.9519 52.8512Z" stroke="white" stroke-width="1.70625"/>
<path d="M74.7349 49.9661L78.4482 50.2107" stroke="white" stroke-width="1.70625"/>
<path d="M73.5466 92.0229C75.504 90.4764 76.7515 88.5588 77.4966 87.1509L80.0094 88.315C79.3465 89.3141 77.0338 91.4627 73.5466 92.0229Z" fill="#077651"/>
<path d="M29.2034 104.407L34.1794 129.186" stroke="#077651" stroke-width="1.27969"/>
<path d="M30.7837 111.963L32.617 109.027L34.4503 106.09" stroke="#077651" stroke-width="1.27969"/>
<path d="M86.2664 106.864L85.5515 137.101" stroke="#077651" stroke-width="1.27969"/>
<path d="M55.0838 31.8798C59.5888 19.7104 73.6851 22.6283 77.9156 26.8814L75.5405 37.7421C71.4058 42.7827 64.0694 40.3289 61.2455 38.841C61.5087 47.1268 56.3029 50.7949 54.0488 51.8779L46.4307 44.9237C47.0379 34.6109 53.0676 32.192 55.0838 31.8798Z" fill="#522C2C"/>
<path d="M55.0665 31.86C50.7091 33.8091 49.5392 41.7209 49.499 45.4331C46.6711 48.1111 45.0995 45.8836 44.6672 44.4352C44.7961 32.6632 52.4588 28.4231 57.2652 27.8557C55.8589 29.8068 55.539 30.7652 55.0665 31.86Z" fill="#156EF0"/>
<path d="M49.0636 67.656C53.6457 67.0243 56.6285 61.2102 55.726 54.6697C54.8234 48.1291 50.3772 43.339 45.7951 43.9706C41.213 44.6022 38.2302 50.4164 39.1328 56.9569C40.0353 63.4974 44.4815 68.2876 49.0636 67.656Z" fill="#156EF0"/>
<path fill-rule="evenodd" clip-rule="evenodd" d="M39.6976 49.949C40.6521 48.235 42.0951 47.0664 43.8268 46.8277C47.4335 46.3305 50.9269 50.0549 51.6295 55.1463C52.332 60.2377 49.9778 64.7684 46.3711 65.2652C44.5233 65.52 42.7052 64.6668 41.2769 63.089C40.218 61.3739 39.4527 59.2752 39.1327 56.9564C38.7835 54.4258 39.0159 52.0039 39.6976 49.949Z" fill="#6BA7FF"/>
<path d="M179.94 87.8906L183.108 84.2905L226.862 100.979C224.944 104.343 218.723 110.112 209.496 107.824C199.712 105.398 186.452 94.2524 179.94 87.8906Z" fill="#679352"/>
<path d="M184.591 59.3257C182.56 56.0122 180.64 57.2236 180.137 57.7918L175.919 71.7931C180.411 74.7979 189.396 79.3972 189.396 73.76C189.396 68.1228 188.614 66.1338 187.756 64.583C187.231 63.6331 186.383 62.2498 184.617 59.368L184.591 59.3257Z" fill="#F9B8A4"/>
<path d="M163.819 77.663L176.7 79.2883L180.137 64.8946L155.445 62.6636C154.067 62.6851 153.563 63.7181 153.817 65.0559C154.483 67.9314 155.862 71.0366 157.085 73.3858C158.721 76.5291 161.565 77.3497 163.819 77.663Z" fill="#F9B8A4"/>
<path d="M153.529 57.8335C152.999 56.6289 153.769 55.2516 155.076 55.0664L177.456 51.8968C178.33 51.7731 179.18 52.2362 179.547 53.0353L185.329 65.6276C185.859 66.7813 185.183 68.1283 183.939 68.3979L162.013 73.148C161.087 73.3487 160.147 72.8716 159.766 72.0067L153.529 57.8335Z" fill="#002A60"/>
<path d="M155.898 58.4245C155.361 57.2246 156.121 55.8439 157.424 55.6487L176.955 52.7248C177.832 52.5934 178.691 53.0562 179.061 53.86L183.843 64.2572C184.373 65.4115 183.696 66.7603 182.45 67.0287L163.327 71.1534C162.406 71.3522 161.471 70.88 161.087 70.0225L155.898 58.4245Z" fill="white"/>
<path d="M209.249 83.2338L218.233 56.1545C223.604 53.3945 232.576 57.903 236.391 60.5022L223.056 87.6293L209.249 83.2338Z" fill="#679352"/>
<path d="M220.12 59.079L209.2 48.9737L220.36 36.825L234.924 44.3385C235.208 49.9626 233.94 63.9896 226.601 75.1052C215.896 74.0839 217.82 63.9958 220.12 59.079Z" fill="#F9B8A4"/>
<path d="M188.166 29.5208C182.744 16.2333 191.583 10.5918 199.381 4.72754L219.92 8.07144L230.046 31.491L217.759 42.7495C210.034 55.6782 196.778 62.0283 192.997 44.891C190.515 44.891 187.655 45.0541 188.717 41.5245C190.334 36.1509 190.645 35.3465 189.727 33.0464L188.166 29.5208Z" fill="#F9B8A4"/>
<path d="M188.545 14.7731C190.196 21.2736 197.443 21.8161 203.793 23.4803C208.612 24.5922 211.309 27.1424 213.79 30.2525C215.575 31.5715 216.739 30.7354 217.312 31.6791C218.597 37.3195 220.375 42.5825 225.819 41.7179C222.41 48.9025 226.259 54.3763 229.863 55.577L244.384 56.5735C254.48 57.9089 256.113 43.8128 246.613 41.2423C254.811 31.6791 243.755 19.399 233.564 18.5265C223.532 -8.48472 205.287 0.95881 199.351 4.56874C194.114 8.3959 190.581 11.4572 188.545 14.7731Z" fill="#442525"/>
<path d="M205.334 43.9323C208.508 43.9323 211.081 41.3608 211.081 38.1887C211.081 35.0166 208.508 32.4451 205.334 32.4451C202.16 32.4451 199.587 35.0166 199.587 38.1887C199.587 41.3608 202.16 43.9323 205.334 43.9323Z" fill="#F49D82"/>
<path d="M195.771 36.0759C196.342 35.776 196.443 34.8418 195.995 33.9894C195.548 33.1369 194.721 32.689 194.149 32.9889C193.578 33.2888 193.477 34.223 193.925 35.0755C194.373 35.9279 195.199 36.3758 195.771 36.0759Z" fill="#442525"/>
<path d="M190.353 28.9566C191.02 26.6704 197.144 26.802 199.164 27.2224C200.589 27.4485 200.758 28.8228 198.892 29.0554C198.892 29.0554 193.86 29.8624 192.34 29.9992C191.055 30.1147 190.184 29.7716 190.353 28.9566Z" fill="#442525"/>
<path d="M219.706 36.1627C223.013 36.1627 225.694 32.798 225.694 28.6475C225.694 24.497 223.013 21.1323 219.706 21.1323C216.399 21.1323 213.718 24.497 213.718 28.6475C213.718 32.798 216.399 36.1627 219.706 36.1627Z" fill="#F9B8A4"/>
<path d="M218.248 31.4766C219.605 32.0185 221.215 31.1838 221.843 29.612C222.471 28.0403 221.881 26.3268 220.524 25.7848C219.167 25.2428 217.558 26.0776 216.929 27.6493C216.301 29.2211 216.891 30.9346 218.248 31.4766Z" fill="white"/>
<path d="M218.581 27.5122L220.497 28.3273L217.496 35.3769C217.271 35.9048 216.66 36.1502 216.131 35.9251C215.601 35.7 215.355 35.0896 215.579 34.5617L218.581 27.5122Z" fill="white"/>
<path d="M285.847 202.843C319.069 202.843 346 175.926 346 142.723C346 109.52 319.069 82.603 285.847 82.603C252.625 82.603 225.693 109.52 225.693 142.723C225.693 175.926 252.625 202.843 285.847 202.843Z" fill="#D9D4F8"/>
<path fill-rule="evenodd" clip-rule="evenodd" d="M318.435 193.262L293.324 179.545L277.975 159.666L274.943 133.755L306.975 126.073C311.066 126.734 321.408 129.83 330.051 136.935C334.742 140.791 339.655 149.049 344.071 157.88C340.234 172.643 330.924 185.201 318.435 193.262Z" fill="#B8390E"/>
<path d="M261.748 159.622C269.492 146.058 273.441 142.687 275.128 141.308L288.162 164.67L278.316 178.434L259.089 164.67L261.748 159.622Z" fill="#B8390E"/>
<path d="M271.635 135.992L270.09 119.287L292.155 97.3447L304.731 117.137C305.155 125.057 302.576 142.082 289.426 146.184C276.801 149.708 272.169 142.363 271.635 135.992Z" fill="#F9B8A4"/>
<path d="M272.844 94.8795C260.769 106.198 263.007 118.39 265.645 122.273C276.961 119.561 286.921 110.423 290.875 105.56C293.943 104.879 296.057 107.011 295.573 110.156C293.971 120.562 297.286 124.432 299.19 121.002C301.252 122.412 305.803 123.641 307.51 117.278C309.217 110.916 309.018 104.997 308.706 102.833C307.305 94.166 299.957 94.0891 297.096 95.1916C290.154 86.0614 278.799 89.2965 272.844 94.8795Z" fill="#341C1C"/>
<path d="M307.353 114.286C300.024 112.62 296.389 122.126 300.337 129.605L306.829 128.43C312.803 123.857 312.002 115.462 307.353 114.286Z" fill="#F9B8A4"/>
<path d="M291.429 133.93C294.448 133.93 296.896 131.483 296.896 128.466C296.896 125.448 294.448 123.001 291.429 123.001C288.409 123.001 285.962 125.448 285.962 128.466C285.962 131.483 288.409 133.93 291.429 133.93Z" fill="#F49D82"/>
<path fill-rule="evenodd" clip-rule="evenodd" d="M271.272 132.066L271.635 135.993C271.798 137.941 272.345 139.981 273.386 141.773C275.84 141.46 277.738 139.366 277.738 136.829C277.738 134.075 275.504 131.843 272.75 131.843C272.235 131.843 271.739 131.921 271.272 132.066Z" fill="#F49D82"/>
<path d="M311.033 131.089C310.787 132.42 309.801 136.791 308.518 141.741C308.378 142.285 308.153 142.806 307.839 143.272C305.251 147.111 301.779 150.581 298.947 153.041C297.428 154.36 296.094 155.388 295.178 156.027C293.143 145.467 302.661 134.789 307.675 130.77C308.453 127.423 311.549 128.297 311.033 131.089Z" fill="#F9B8A4"/>
<path d="M301.701 140.534L304.292 130.003C304.702 125.862 305.38 124.879 306.453 124.82C307.778 124.82 308.027 126.039 308.089 126.825C308.385 130.572 306.665 138.988 306.501 139.729L301.701 140.534Z" fill="#F9B8A4"/>
<path d="M305.375 126.958C304.909 131.826 303.557 137.789 303.138 139.582L297.265 140.444L302.033 127.329C303.074 123.88 305.622 124.368 305.375 126.958Z" fill="#F9B8A4"/>
<path d="M302.628 129.423C301.62 133.213 299.954 137.297 299.247 138.866L306.023 137.885L298.749 152.619L311.533 176.762L318.544 190.001L294.924 189.219L286.451 155.541C284.318 147.434 288.272 144.386 291.59 141.249C292.756 140.147 294.484 138.637 295.666 136.579C296.031 135.872 297.158 133.63 298.749 130.317C299.367 129.031 300.012 127.969 300.901 127.63C301.883 127.256 302.98 127.741 302.628 129.423Z" fill="#F9B8A4"/>
<path d="M310.067 154.339L302.909 171.357L315.766 193.794L328.693 169.343L310.067 154.339Z" fill="#F9B8A4"/>
<path d="M259.204 179.855L254.36 164.106C245.496 165.708 246.954 176.423 248.792 181.58L259.204 179.855Z" fill="#F9B8A4"/>
<path d="M250.934 129.877C256.164 129.877 260.404 125.639 260.404 120.412C260.404 115.185 256.164 110.947 250.934 110.947C245.704 110.947 241.464 115.185 241.464 120.412C241.464 125.639 245.704 129.877 250.934 129.877Z" fill="white"/>
<path d="M257.748 130.553C257.748 130.972 257.294 131.234 256.932 131.025L253.544 129.07L257.748 126.645V130.553Z" fill="white"/>
<path fill-rule="evenodd" clip-rule="evenodd" d="M319.576 192.51C309.956 199.033 298.346 202.844 285.845 202.844C273.344 202.844 261.734 199.033 252.114 192.51H319.576Z" fill="#AB8151"/>
<path fill-rule="evenodd" clip-rule="evenodd" d="M328.546 185.066C326.528 187.097 324.367 188.986 322.078 190.714H302.479V185.545L328.546 185.066Z" fill="white"/>
<path d="M275.945 186.679C286.647 182.945 299.396 184.248 302.71 185.791V191.222L276.333 191.791C276.288 191.52 276.078 190.243 275.593 187.275C275.551 187.018 275.698 186.765 275.945 186.679Z" fill="white"/>
<path d="M276.864 185.384L277.99 186.875C286.408 187.549 303.242 188.307 303.242 185.944C292.752 180.293 282.036 182.041 277.034 184.601C276.742 184.75 276.667 185.123 276.864 185.384Z" fill="white"/>
<path fill-rule="evenodd" clip-rule="evenodd" d="M322.866 190.109C321.745 190.985 320.593 191.823 319.41 192.619H273.545C272.85 192.619 272.286 192.057 272.286 191.364C272.286 190.671 272.85 190.109 273.545 190.109H322.866Z" fill="#1A42A2"/>
<path d="M250.498 115.134C250.711 114.838 251.153 114.838 251.367 115.134L253.304 117.824L256.492 118.8C256.848 118.909 256.986 119.335 256.762 119.631L254.77 122.258L254.811 125.543C254.815 125.91 254.455 126.172 254.106 126.055L250.932 124.999L247.758 126.055C247.409 126.172 247.05 125.91 247.054 125.543L247.095 122.258L245.102 119.631C244.878 119.335 245.017 118.909 245.372 118.8L248.561 117.824L250.498 115.134Z" fill="#FFC26A"/>
<path d="M243.907 140.249C243.391 138.685 244.38 137.025 246.006 136.727L259.478 134.263C260.821 134.018 262.138 134.801 262.557 136.095L271.329 163.135C271.846 164.726 270.81 166.401 269.151 166.657L255.7 168.729C254.385 168.932 253.116 168.157 252.7 166.898L243.907 140.249Z" fill="#1A42A2"/>
<path d="M243.904 140.239C243.389 138.678 244.372 137.021 245.994 136.719L257.412 134.589C258.757 134.339 260.079 135.122 260.5 136.42L269.27 163.452C269.786 165.043 268.75 166.718 267.092 166.973L255.7 168.729C254.385 168.932 253.116 168.157 252.7 166.897L243.904 140.239Z" fill="#002A60"/>
<path d="M255.641 142.739C254.246 143.869 249.69 147.548 248.178 149.247L252.45 154.577L259.114 143.869C261.647 141.279 258.839 140.149 255.641 142.739Z" fill="#F9B8A4"/>
<path d="M260.089 143.073C256.391 145.572 253.339 149.6 251.158 152.218C251.158 155.54 252.936 156.277 253.826 156.23C254.527 155.248 257.899 149.927 261.526 145.965C263.495 143.815 261.905 141.917 260.089 143.073Z" fill="#F9B8A4"/>
<path d="M259.358 150.097L254.66 154.877C246.43 155.786 248.466 173.888 253.921 168.847C258.285 164.815 258.098 159.511 257.459 157.363C260.511 153.507 264.193 150.427 262.366 148.988C261.457 148.393 260.448 148.988 259.358 150.097Z" fill="#F9B8A4"/>
<path d="M264.076 189.242L274.379 175.532L263.152 167.584L254.301 168.955L253.866 153.162L249.138 149.143C251.769 144.643 255.242 140.758 253.866 139.419C253.148 138.722 251.97 139.114 251.223 139.919C248.957 142.148 244.442 147.726 243.795 150.362C242.519 156.685 243.263 164.863 243.795 168.161L243.304 173.231C240.979 194.696 250.186 195.253 252.298 195.379C254.987 195.54 259.04 195.379 264.076 189.242Z" fill="#F9B8A4"/>
<path d="M338.869 156.527L314.725 143.227L306.405 163.042L330.463 175.94L338.869 156.527Z" fill="#B8390E"/>
<path d="M287.094 130.053L281.864 134.871C281.578 135.133 281.557 135.581 281.853 135.832C283.388 137.136 285.475 137.39 287.276 135.785C289.308 133.973 288.831 131.43 288 130.123C287.799 129.806 287.37 129.799 287.094 130.053Z" fill="white"/>
<path d="M250.933 151.803C253.113 149.185 257.294 145.075 260.089 143.073" stroke="#DB8C74" stroke-width="1.11429"/>
<path d="M277.151 159.001L285.113 168.926C284.746 169.434 283.81 170.717 282.934 171.856C279.458 169.435 277.612 162.247 277.151 159.001Z" fill="#8A2807"/>
<path d="M305.543 165.447L310.796 175.368" stroke="#DB8C74" stroke-width="1.11429"/>
<path d="M275.521 186.83C282.15 184.421 289.633 183.99 295.195 184.378" stroke="#D9D4F8" stroke-width="1.11429"/>
<path d="M338.869 156.527L330.463 175.94L326.418 173.922M306.405 163.042L313.177 146.914" stroke="#8A2807" stroke-width="1.39286"/>
<path d="M298.946 153.042C299.025 153.163 299.394 153.821 300.242 155.488C298.562 156.016 296.846 155.571 296.198 155.282C296.983 154.688 297.923 153.93 298.946 153.042Z" fill="#DB8C74"/>
<path d="M306.501 139.729C306.664 138.988 308.385 130.572 308.089 126.825C308.027 126.039 307.777 124.82 306.453 124.82C305.962 124.847 305.554 125.067 305.217 125.693" stroke="#DB8C74" stroke-width="1.11429"/>
<path d="M299.247 138.866C299.954 137.297 301.62 133.213 302.628 129.423" stroke="#DB8C74" stroke-width="1.11429"/>
<path d="M303.137 139.582C303.556 137.789 304.907 131.826 305.373 126.958C305.621 124.368 303.073 123.88 302.032 127.329" stroke="#DB8C74" stroke-width="1.11429"/>
<path d="M302.628 129.423C302.981 127.741 301.883 127.256 300.901 127.63C300.012 127.968 299.368 129.03 298.749 130.317C297.158 133.63 296.032 135.872 295.667 136.579C294.484 138.637 292.756 140.147 291.59 141.249C289.926 142.823 288.101 144.374 286.965 146.553" stroke="#DB8C74" stroke-width="1.11429"/>
<path d="M319.821 52.5854C319.821 44.2092 313.006 37.4189 304.599 37.4189C296.192 37.4189 289.377 44.2092 289.377 52.5854V52.6789C289.377 61.0551 296.192 67.8453 304.599 67.8453C313.006 67.8453 319.821 61.0551 319.821 52.6789V52.5854Z" fill="#B3D1FC"/>
<path d="M312.21 54.5563C312.21 58.7444 308.803 62.1397 304.599 62.1397C300.396 62.1397 296.989 58.7444 296.989 54.5563V53.9301C296.989 53.5779 297.275 53.2925 297.629 53.2925H311.571C311.924 53.2925 312.21 53.5779 312.21 53.9301V54.5563Z" fill="white"/>
<path d="M308.405 48.4896C308.405 50.5837 306.701 52.2812 304.599 52.2812C302.498 52.2812 300.794 50.5837 300.794 48.4896C300.794 46.3956 302.498 44.698 304.599 44.698C306.701 44.698 308.405 46.3956 308.405 48.4896Z" fill="white"/>
<g opacity="0.5">
<path d="M268.989 20.3018H268.88C262.667 20.3018 257.63 25.3203 257.63 31.5111C257.63 37.7018 262.667 42.7204 268.88 42.7204H268.989C275.202 42.7204 280.239 37.7018 280.239 31.5111C280.239 25.3203 275.202 20.3018 268.989 20.3018Z" fill="#7260E0"/>
</g>
<path d="M270.698 25.0838C270.698 24.9407 270.607 24.8114 270.466 24.7554C270.327 24.6993 270.164 24.7273 270.054 24.8265L268.702 26.0474C266.69 27.8651 264.99 29.9648 263.662 32.2716C263.63 32.3235 263.613 32.3835 263.613 32.4473C263.613 32.6445 263.783 32.8043 263.993 32.8043H267.27V37.9381C267.27 38.0795 267.358 38.2075 267.496 38.2647C267.634 38.3219 267.794 38.2973 267.905 38.2021L268.51 37.6846C270.627 35.8731 272.424 33.7566 273.833 31.4146L274.206 30.7927C274.273 30.6821 274.272 30.5468 274.204 30.4371C274.136 30.3274 274.011 30.2599 273.876 30.2599H270.698V25.0838Z" fill="white"/>
<g opacity="0.5">
<path d="M270.965 50.064H270.83C263.164 50.064 256.948 56.2567 256.948 63.8958C256.948 71.5349 263.164 77.7276 270.83 77.7276H270.965C278.632 77.7276 284.847 71.5349 284.847 63.8958C284.847 56.2567 278.632 50.064 270.965 50.064Z" fill="#FDB858"/>
<path d="M265.931 59.2847C265.931 58.4436 266.616 57.7617 267.46 57.7617H274.338C275.182 57.7617 275.867 58.4436 275.867 59.2847V68.4228C275.867 69.2637 275.182 69.9458 274.338 69.9458H265.931V59.2847Z" fill="white"/>
<path d="M273.957 61.9469C273.957 62.1993 273.751 62.4037 273.498 62.4037H268.301C268.048 62.4037 267.842 62.1993 267.842 61.9469C267.842 61.6945 268.048 61.4897 268.301 61.4897H273.498C273.751 61.4897 273.957 61.6945 273.957 61.9469Z" fill="#FFD08F"/>
<path d="M273.957 63.8503C273.957 64.1027 273.751 64.3071 273.498 64.3071H268.301C268.048 64.3071 267.842 64.1027 267.842 63.8503C267.842 63.5979 268.048 63.3936 268.301 63.3936H273.498C273.751 63.3936 273.957 63.5979 273.957 63.8503Z" fill="#FFD08F"/>
<path d="M269.753 65.7543C269.753 66.0061 269.548 66.2111 269.295 66.2111H268.377C268.124 66.2111 267.919 66.0061 267.919 65.7543C267.919 65.5019 268.124 65.2969 268.377 65.2969H269.295C269.548 65.2969 269.753 65.5019 269.753 65.7543Z" fill="#FFD08F"/>
</g>
<g opacity="0.5">
<path d="M94.3141 191.364C103.894 191.364 111.66 183.602 111.66 174.027C111.66 164.453 103.894 156.691 94.3141 156.691C84.7341 156.691 76.968 164.453 76.968 174.027C76.968 183.602 84.7341 191.364 94.3141 191.364Z" fill="#F67474"/>
<path d="M101.518 175.531C102.513 174.77 102.513 173.285 101.518 172.523C98.5093 170.223 95.15 168.41 91.5652 167.152L90.9103 166.922C89.6579 166.482 88.3344 167.32 88.1645 168.598C87.6906 172.169 87.6906 175.886 88.1645 179.457C88.3344 180.735 89.6579 181.572 90.9103 181.133L91.5652 180.903C95.15 179.645 98.5093 177.832 101.518 175.531Z" fill="white"/>
</g>
<path d="M58.3636 171.225C65.7225 171.225 71.6881 165.263 71.6881 157.908C71.6881 150.553 65.7225 144.591 58.3636 144.591C51.0047 144.591 45.0391 150.553 45.0391 157.908C45.0391 165.263 51.0047 171.225 58.3636 171.225Z" fill="#B3D1FC"/>
<path d="M66.1541 155.896C66.1541 155.376 65.7321 154.955 65.2118 154.955H61.4439C60.9237 154.955 60.502 155.376 60.502 155.896C60.502 156.416 60.9237 156.837 61.4439 156.837H65.2118C65.7321 156.837 66.1541 156.416 66.1541 155.896Z" fill="white"/>
<path d="M63.3278 158.721C63.8481 158.721 64.2701 158.3 64.2701 157.779V154.014C64.2701 153.493 63.8481 153.072 63.3278 153.072C62.8076 153.072 62.3862 153.493 62.3862 154.014V157.779C62.3862 158.3 62.8076 158.721 63.3278 158.721Z" fill="white"/>
<path d="M51.6453 162.646C51.4039 163.255 51.8524 163.915 52.5072 163.915H52.891C53.2814 163.915 53.63 163.671 53.7629 163.304L54.325 161.751H58.7651L59.3411 163.309C59.4756 163.673 59.8227 163.915 60.2108 163.915H60.5973C61.2526 163.915 61.7012 163.254 61.4588 162.645L57.8877 153.682C57.7472 153.33 57.4059 153.098 57.0263 153.098H56.0648C55.6846 153.098 55.343 153.33 55.2028 153.683L51.6453 162.646ZM54.9779 159.923L56.5231 155.703C56.5265 155.694 56.5352 155.688 56.5451 155.688C56.5548 155.688 56.5636 155.694 56.567 155.703L58.1121 159.923H54.9779Z" fill="white"/>
<path fill-rule="evenodd" clip-rule="evenodd" d="M48.0568 135.763C47.7228 133.795 50.3986 131.633 52.221 130.528L55.6161 129.239C55.5851 128.986 55.5477 128.688 55.506 128.355C55.2318 126.169 54.7709 122.492 54.7175 120.559C54.6405 117.775 54.5496 111.602 55.0968 105.271C55.3462 102.387 56.5506 101.769 57.4295 102.099C58.2991 102.424 58.3576 104.459 58.4101 106.287C58.4271 106.879 58.4434 107.449 58.4865 107.932C58.5343 108.469 58.562 109.006 58.5901 109.548C58.6792 111.272 58.7714 113.057 59.5176 115.078L61.979 113.903L71.7782 121.026C73.0844 117.089 75.9457 113.239 77.9728 114.618C79.0689 115.523 77.9265 118.471 76.6957 121.346C75.6441 123.803 74.815 126.169 74.1366 128.103C73.4674 130.011 72.946 131.5 72.5023 132.243C70.6896 135.789 68.2169 137.916 63.7374 138.955C58.3163 138.465 53.0674 137.379 48.0568 135.763Z" fill="#F9B8A4"/>
<path d="M60.2461 100.804C58.791 104.37 58.6711 112.167 58.793 115.62C59.4567 119.365 62.5363 119.274 63.9926 118.762L63.5459 114.297C62.3874 108.586 62.713 104.078 63.3649 100.953C63.9376 98.2062 61.4581 97.417 60.2461 100.804Z" fill="#F9B8A4"/>
<path d="M65.3317 99.2446C63.8081 103.108 63.0963 108.353 62.9307 110.492L62.856 117.043C64.9245 118.81 68.8473 121.017 67.9873 115.713C66.9128 109.083 67.611 105.58 68.2523 101.238C68.4729 100.119 68.6484 98.9872 68.3493 98.3464C67.771 97.1078 66.1071 97.2801 65.3317 99.2446Z" fill="#F9B8A4"/>
<path d="M70.9449 102.751C69.3564 105.087 68.1583 109.056 67.5905 111.06C61.8494 119.18 65.8414 125.085 68.555 127.022L71.9656 122.284C71.7524 120 71.2606 116.986 71.2606 114.745C71.2606 112.073 71.7042 109.273 73.066 105.19C74.2022 101.784 71.8167 101.371 70.9449 102.751Z" fill="#F9B8A4"/>
<path d="M68.7706 112.092C67.5453 112.06 64.6062 112.158 61.6826 112.744" stroke="#DB8C74" stroke-width="1.33239" stroke-linecap="round"/>
<path d="M71.3965 120.793C70.0434 121.29 66.5124 123.578 65.4836 127.59" stroke="#DB8C74" stroke-width="1.33239" stroke-linecap="round"/>
<path d="M59.6841 114.74C60.6304 116.526 61.6503 118.963 61.4959 122.024" stroke="#DB8C74" stroke-width="1.33239" stroke-linecap="round"/>
<path d="M56.4762 133.862C56.0122 131.381 55.6413 129.205 55.6413 129.205L53.8291 129.922C53.8291 129.922 54.4913 132.297 56.4762 133.862Z" fill="#DB8C74"/>
<path fill-rule="evenodd" clip-rule="evenodd" d="M54.7634 137.608C50.6659 136.717 46.703 135.466 42.9097 133.888L53.1507 130.179C52.9472 132.375 53.4177 134.935 54.7634 137.608Z" fill="#077651"/>
<path d="M202.495 40.1809L197.857 44.4523C197.604 44.6852 197.585 45.0827 197.847 45.3054C199.209 46.4613 201.059 46.6862 202.656 45.2631C204.458 43.6564 204.036 41.4017 203.298 40.2423C203.119 39.9619 202.739 39.956 202.495 40.1809Z" fill="white"/>
<path d="M214.802 43.755C214.135 46.8047 212.648 49.2485 211.316 50.8411L214.314 53.6963C216.235 51.0034 216.225 46.7021 215.124 43.7246C215.065 43.5655 214.838 43.5894 214.802 43.755Z" fill="#DB8C74"/>
<path d="M220.032 59.2871L222.062 61.0438" stroke="#DB8C74" stroke-width="0.835714"/>
<path d="M181.329 65.2449C181.827 65.1273 182.094 64.5936 181.888 64.1275L177.734 54.7142C177.581 54.3689 177.211 54.1692 176.837 54.2301L158.811 57.1604C158.283 57.2462 157.979 57.7996 158.192 58.2873L162.808 68.8222C162.994 69.2458 163.461 69.4772 163.914 69.3701L181.329 65.2449Z" fill="#E6F1FF"/>
<path opacity="0.7" d="M170.212 61.2776C168.995 61.5769 167.765 60.8302 167.464 59.6099C167.164 58.3897 167.907 57.1579 169.125 56.8587C170.342 56.5595 171.572 57.3061 171.872 58.5264C172.173 59.7466 171.429 60.9784 170.212 61.2776Z" fill="#A4CAFF"/>
<path opacity="0.7" d="M166.819 62.7784C166.606 62.8307 166.474 63.0462 166.551 63.2506C166.933 64.2608 167.799 65.1233 168.718 65.6804C169.748 66.3059 170.984 66.4955 172.153 66.2086C173.322 65.9211 174.328 65.1799 174.951 64.1482C175.506 63.229 175.538 62.1462 175.334 61.0926C175.293 60.8778 175.077 60.7483 174.863 60.8007L166.819 62.7784Z" fill="#A4CAFF"/>
<path d="M179.776 70.1504C182.823 70.417 186.588 71.9887 188.09 72.741C191.629 75.6953 185.342 80.2829 181.756 82.2073L175.563 79.0843L172.063 74.9572C164.572 72.9798 161.832 71.3232 161.302 69.9165C161.04 68.9641 161.495 67.1943 166.119 68.2051C169.205 68.7905 173.857 69.501 177.531 69.9208C178.335 70.0125 179.093 70.0907 179.776 70.1504Z" fill="#F9B8A4"/>
<path d="M188.09 72.741C186.589 71.9888 182.824 70.4171 179.777 70.1505C179.093 70.0908 178.336 70.0126 177.532 69.9209" stroke="#DB8C74" stroke-width="0.835714" stroke-linecap="round"/>
<path d="M228.389 57.2193L216.977 82.8279L188.124 72.7331L179.695 82.5066C185.836 88.8634 195.754 96.3857 201.783 99.8503C223.462 112.309 233.2 104.634 239.585 94.7352C246.331 84.2783 249.821 59.5318 242.528 52.3417C237.492 47.6017 231.208 50.7184 228.389 57.2193Z" fill="#7AA963"/>
<path d="M170.854 74.795L164.746 72.5L162.059 73.1347C163.942 74.2434 168.293 74.795 170.854 74.795Z" fill="#DB8C74"/>
<path d="M165.467 205C193.26 205 215.792 182.482 215.792 154.704C215.792 126.926 193.26 104.407 165.467 104.407C137.674 104.407 115.143 126.926 115.143 154.704C115.143 182.482 137.674 205 165.467 205Z" fill="#B5E8D9"/>
<path d="M206.152 125.096C197.001 112.556 182.186 104.407 165.466 104.407C159.454 104.407 153.688 105.461 148.343 107.394L146.322 117.442V169.691H206.152V125.096Z" fill="#E2E9F3"/>
<path d="M150.958 124.934H146.497C144.982 124.934 143.754 126.164 143.754 127.681V132.243C143.754 133.751 144.969 134.978 146.475 134.99L167.432 135.169C180.299 134.788 167.966 133.9 165.859 133.262C165.686 133.209 165.551 133.098 165.423 132.97L162.178 129.745C161.664 129.234 160.97 128.948 160.246 128.948H157.256C156.533 128.948 155.838 128.661 155.324 128.15L152.891 125.731C152.376 125.221 151.682 124.934 150.958 124.934Z" fill="white" fill-opacity="0.5"/>
<path d="M193.635 154.148C193.635 166.157 189.307 170.85 183.966 170.85C178.626 170.85 174.296 166.157 174.296 154.148C174.296 142.138 180.742 127.36 183.966 127.36C186.974 127.36 193.635 142.138 193.635 154.148Z" fill="#799ECC"/>
<path fill-rule="evenodd" clip-rule="evenodd" d="M146.433 108.129C144.205 112.539 142.951 117.524 142.951 122.801V169.816C142.951 170.925 143.851 171.825 144.962 171.825H206.191C207.301 171.825 208.201 170.925 208.201 169.816V128.127C206.986 126.18 205.641 124.321 204.179 122.564C204.18 122.642 204.18 122.722 204.18 122.801V167.806H146.972V122.801C146.972 116.583 148.959 110.829 152.331 106.138C150.312 106.682 148.343 107.349 146.433 108.129Z" fill="white"/>
<path fill-rule="evenodd" clip-rule="evenodd" d="M177.513 105.857V169.816H173.638V105.067C174.947 105.281 176.24 105.545 177.513 105.857Z" fill="white"/>
<path d="M208.257 142.651V146.532H145.736V142.651H208.257Z" fill="white"/>
<path d="M140.707 165.567C153.313 167.33 149.718 153.828 148.324 144.178L152.154 143.227L153.887 157.76V187.504L177.43 180.259C177.596 169.941 174.007 167.146 171.272 165.184C168.032 162.861 168.138 160.716 171.272 158.988C185.572 151.102 181.97 142.843 179.483 139.029C176.996 135.216 175.842 132.368 175.187 129.405C173.623 122.327 170.932 120.35 168.65 118.948C160.326 114.559 153.577 114.47 149.733 115.26C138.5 118.123 135.5 126.768 136.125 136.735C136.453 145.066 136.653 145.306 136.781 149.749C136.893 153.681 135.928 157.269 132.734 159.597C126.474 163.665 125.336 167.263 126.889 172.067C129.987 165.436 136.179 164.779 140.707 165.567Z" fill="#3F2121"/>
<path d="M173.203 133.592C173.13 123.777 168.666 120.642 166.873 120.432L152.027 125.483C150.084 130.157 147.209 141.295 151.247 148.462C155.285 155.629 162.251 155.889 165.896 154.812C171.009 153.109 172.333 148.927 172.762 145.212C173.208 141.341 173.225 136.547 173.203 133.592Z" fill="#F9B8A4"/>
<path d="M156.585 166.091L161.538 153.812L155.604 142.512L146.821 141.858L145.233 156.847L156.585 166.091Z" fill="#F9B8A4"/>
<path fill-rule="evenodd" clip-rule="evenodd" d="M152.103 203.207C142.912 200.683 134.774 195.62 128.49 188.82L127.083 180.928C126.152 175.894 125.77 169.478 130.632 166.519L148.503 154.47L158.885 160.375L157.505 164.019L163.303 167.154C169.73 170.805 171.998 172.533 174.15 177.826L162.668 197.814L152.103 203.207Z" fill="#156EF0"/>
<path d="M177.095 199.97C178.518 198.256 177.15 186.069 175.649 183.612C165.442 173.552 168.94 196.332 170.304 198.256L177.095 199.97Z" fill="#0453C7"/>
<path d="M188.529 152.92C188.788 152.349 189.318 151.946 189.94 151.846L200.231 150.206C201.345 150.029 202.204 151.166 201.724 152.183L192.091 172.639H179.579L188.529 152.92Z" fill="#1A42A2"/>
<path d="M189.783 154.625C190.017 154.111 190.49 153.745 191.048 153.649L201.819 151.781L191.997 172.638H181.608L189.783 154.625Z" fill="#002A60"/>
<path d="M158.472 147.63C160.571 147.63 162.272 145.93 162.272 143.833C162.272 141.736 160.571 140.036 158.472 140.036C156.374 140.036 154.673 141.736 154.673 143.833C154.673 145.93 156.374 147.63 158.472 147.63Z" fill="#F49D82"/>
<path fill-rule="evenodd" clip-rule="evenodd" d="M172.677 145.87C172.422 145.816 172.157 145.788 171.885 145.788C169.787 145.788 168.086 147.488 168.086 149.585C168.086 150.832 168.687 151.938 169.616 152.63C171.559 150.761 172.333 148.256 172.677 145.87Z" fill="#F49D82"/>
<path d="M163.881 139.983C164.476 140.012 164.988 139.436 165.023 138.696C165.059 137.957 164.605 137.335 164.01 137.306C163.415 137.278 162.903 137.854 162.868 138.593C162.832 139.332 163.286 139.955 163.881 139.983Z" fill="#3F2121"/>
<path d="M171.637 140.451C172.164 140.451 172.59 139.921 172.59 139.267C172.59 138.613 172.164 138.083 171.637 138.083C171.11 138.083 170.684 138.613 170.684 139.267C170.684 139.921 171.11 140.451 171.637 140.451Z" fill="#3F2121"/>
<path d="M166.529 132.382C166.336 131.53 163.472 131.816 162.288 132.017L161.516 133.49C163.416 133.444 166.757 133.395 166.529 132.382Z" fill="#3F2121"/>
<path d="M170.326 132.797C170.826 132.08 173.371 133.424 174.391 134.056L174.551 135.712C172.809 134.953 169.733 133.649 170.326 132.797Z" fill="#3F2121"/>
<path d="M178.716 174.044L170.6 179.627C169.369 182.086 169.177 190.353 170.6 193.005C175.276 188.955 183.931 181.062 189.009 177.18C190.49 176.049 191.238 175.421 192.343 174.192C194.016 172.332 196.566 169.062 197.025 167.621C197.353 166.598 196.493 166.33 195.914 166.814L188.246 169.211L192.413 162.184C193.004 161.161 194.196 159.401 193.324 158.833C192.7 158.425 192.043 159.084 191.562 159.599C190.031 161.356 186.774 165.036 185.378 166.539C184.171 167.719 183.12 166.732 183.808 164.776C184.328 163.296 185.388 160.641 184.613 159.867C184.048 159.302 183.407 159.74 183.077 160.362L181.972 162.405C180.29 165.328 179.976 166.831 179.72 168.402L178.716 174.044Z" fill="#F9B8A4"/>
<path d="M197.003 160.805L189.332 166.82C186.36 169.293 188.468 170.537 189.893 170.851C190.505 170.26 191.463 169.337 192.543 168.292C193.922 166.959 195.5 165.428 196.812 164.143C197.266 163.74 197.629 163.375 197.918 163.046C199.334 161.437 198.98 160.678 198.667 160.465C198.092 160.073 197.407 160.48 197.003 160.805Z" fill="#F9B8A4"/>
<path d="M198.144 164.748C198.922 163.561 198.162 162.794 197.735 162.849C195.4 164.299 190.524 167.742 189.7 169.919C188.876 172.096 190.507 172.64 191.426 172.64C191.771 172.238 192.157 171.796 192.566 171.331C193.908 169.807 195.499 168.036 196.682 166.626C197.324 165.862 197.846 165.204 198.144 164.748Z" fill="#F9B8A4"/>
<path d="M196.681 166.626C195.497 168.035 193.907 169.806 192.565 171.331" stroke="#DB8C74" stroke-width="0.835714"/>
<path fill-rule="evenodd" clip-rule="evenodd" d="M134.048 193.992C131.682 189.794 130.11 186.874 129.461 185.621L142.427 175.053L152.524 190.879L170.59 179.62C170.238 182.2 172.475 197.172 177.073 199.961L163.313 204.953C152.263 204.487 142.135 200.461 134.048 193.992Z" fill="#156EF0"/>
<path d="M142.427 175.053L152.524 190.879L170.59 179.62" stroke="#0453C7" stroke-width="1.11429"/>
<path d="M140.707 165.569C153.313 167.332 149.718 153.829 148.324 144.18L136.125 136.737C136.453 145.068 136.653 145.308 136.781 149.751C136.893 153.683 135.928 157.271 132.734 159.599C126.474 163.667 125.336 167.265 126.889 172.069C129.987 165.437 136.179 164.781 140.707 165.569Z" fill="#3F2121"/>
<path d="M149.567 138.067C160.49 141.464 164.7 129.194 167.517 119.938L156.537 117.218L141.595 130.816L149.567 138.067Z" fill="#3F2121"/>
<path d="M160.037 157.567C155.066 156.263 153.109 152.575 152.269 150.528C152.197 150.35 152.438 150.206 152.569 150.347C154.928 152.858 157.903 154.84 160.962 155.195L160.037 157.567Z" fill="#DB8C74"/>
<path d="M166.715 138.422C166.46 140.908 164.289 142.706 161.885 142.461C159.481 142.214 157.719 140.014 157.974 137.528C158.228 135.041 160.399 133.243 162.803 133.489C165.208 133.734 166.969 135.935 166.715 138.422Z" stroke="white" stroke-width="1.16976"/>
<path d="M176.269 139.398C176.038 141.646 174.285 143.227 172.435 143.038C170.585 142.849 169.189 140.946 169.418 138.697C169.649 136.449 171.402 134.868 173.252 135.057C175.102 135.246 176.498 137.149 176.269 139.398Z" stroke="white" stroke-width="1.04058"/>
<path d="M166.854 137.283C167.198 137.174 168.227 137.066 169.594 137.508" stroke="white" stroke-width="1.16976" stroke-linecap="round"/>
<path d="M158.255 135.918L147.888 136.385" stroke="white" stroke-width="1.11429"/>
<path d="M146.75 145.918C149.09 145.509 150.549 142.668 150.007 139.573C149.466 136.477 147.129 134.3 144.788 134.709C142.448 135.118 140.989 137.959 141.531 141.054C142.072 144.15 144.409 146.328 146.75 145.918Z" fill="#F9B8A4"/>
<path d="M144.326 137.693L147.479 139.377" stroke="#DB8C74" stroke-width="1.17625" stroke-linecap="round"/>
<path d="M146.397 138.877C144.758 139.103 144.556 141.846 146.998 142.039" stroke="#DB8C74" stroke-width="1.17625" stroke-linecap="round"/>
<path d="M168.941 137.924C168.941 137.924 169.187 141.324 169.339 143.354C169.491 145.383 166.671 145.286 164.78 143.32" stroke="#DB8C74" stroke-width="0.984939" stroke-linecap="round"/>
<path d="M166.393 146.578L161.134 144.213C160.846 144.084 160.503 144.21 160.41 144.51C159.926 146.07 160.401 147.707 162.173 148.538C164.174 149.478 165.921 148.311 166.631 147.274C166.803 147.023 166.671 146.703 166.393 146.578Z" fill="white"/>
<path d="M191.688 169.048C193.067 167.714 195.5 165.428 196.812 164.142C197.266 163.74 197.629 163.375 197.919 163.046" stroke="#DB8C74" stroke-width="0.835714"/>
<path d="M145.483 195.507L152.432 191.312L151.262 189.25C146.804 191.835 145.552 194.498 145.483 195.507Z" fill="#0453C7"/>
<path d="M156.568 166.894L157.611 164.099C157.895 164.228 158.74 164.646 159.853 165.289C158.815 166.451 157.23 166.843 156.568 166.894Z" fill="#0453C7"/>
<g opacity="0.2">
<path d="M62.841 180.157H62.7633C58.3452 180.157 54.7637 183.725 54.7637 188.127C54.7637 192.529 58.3452 196.098 62.7633 196.098H62.841C67.2591 196.098 70.8406 192.529 70.8406 188.127C70.8406 183.725 67.2591 180.157 62.841 180.157Z" fill="#0C9567"/>
</g>
<path d="M282.796 116.153C285.401 116.096 287.481 116.778 288.143 116.977C289.461 117.373 289.441 118.363 289.341 118.512C289.186 118.818 288.647 118.97 288.108 118.989C287.388 119.017 285.705 119.046 283.19 119.078C280.676 119.11 280.162 118.877 280.055 118.278C279.984 117.879 280.191 116.21 282.796 116.153Z" fill="#3F2121"/>
<path d="M283.314 123.839C282.609 123.78 282.095 123.047 282.166 122.203C282.237 121.359 282.866 120.723 283.571 120.782C284.275 120.841 284.789 121.573 284.719 122.417C284.648 123.261 284.019 123.898 283.314 123.839Z" fill="#3F2121"/>
<path d="M273.662 125.265C272.955 125.279 272.368 124.603 272.352 123.756C272.335 122.909 272.895 122.211 273.603 122.198C274.31 122.184 274.897 122.859 274.913 123.706C274.929 124.553 274.369 125.251 273.662 125.265Z" fill="#3F2121"/>
<path d="M277.164 123.23C277.164 123.23 276.845 127.649 276.647 130.286C276.45 132.923 280.115 132.796 282.571 130.241" stroke="#DB8C74" stroke-width="1.27969" stroke-linecap="round"/>
<path d="M306.291 117.413L302.768 120.121" stroke="#DB8C74" stroke-width="1.46228" stroke-linecap="round"/>
<path d="M303.994 119.288C306.049 119.231 306.857 122.554 303.902 123.287" stroke="#DB8C74" stroke-width="1.46228" stroke-linecap="round"/>
<path d="M248.233 149.492L250.219 147.131" stroke="#DB8C74" stroke-width="1.11429"/>
<path d="M254.585 168.805L258.511 179.647" stroke="#DB8C74" stroke-width="1.11429"/>
<path d="M252.641 169.976L254.327 168.474L254.79 168.738L255.285 171.43L252.641 169.976Z" fill="#DB8C74"/>
</g>
<defs>
<clipPath id="clip0_191_2858">
<rect width="346" height="205" fill="white"/>
</clipPath>
</defs>
</svg>
