<svg width="479" height="48" viewBox="0 0 479 48" fill="none" xmlns="http://www.w3.org/2000/svg">
<path d="M230.549 44.0195C230.549 45.3659 229.554 46.4781 228.35 46.4781H167.101C165.897 46.4781 164.902 45.3659 164.902 44.0195V3.04392C164.902 1.69758 165.897 0.585388 167.101 0.585388H228.403C229.607 0.585388 230.601 1.69758 230.601 3.04392V44.0195H230.549Z" fill="#13457C"/>
<path d="M201.283 26.5756C202.801 19.4927 198.875 12.4098 192.54 10.7122C186.206 9.07318 179.872 13.4634 178.354 20.5463C176.835 27.6293 180.762 34.7122 187.096 36.4098C193.43 38.0488 199.765 33.6585 201.283 26.5756Z" fill="#007CC3"/>
<path d="M205.628 10.361C202.592 10.361 199.817 11.6488 197.723 13.7561C197.304 14.1658 196.885 14.6341 196.519 15.161H198.875C199.189 15.6293 199.503 16.039 199.765 16.5658H195.577C195.315 17.0341 195.106 17.5024 194.896 17.9707H200.445C200.655 18.439 200.812 18.9073 200.969 19.3756H194.425C194.268 19.8439 194.163 20.3122 194.059 20.7805H201.283C201.44 21.6585 201.545 22.5951 201.545 23.5902C201.545 25.0536 201.335 26.4585 200.916 27.7463H194.373C194.53 28.2146 194.687 28.6829 194.896 29.1512H200.445C200.236 29.6195 200.026 30.0878 199.765 30.5561H195.577C195.838 31.0244 196.153 31.4927 196.467 31.961H198.822C198.456 32.4293 198.037 32.8975 197.618 33.3658C199.712 35.4732 202.487 36.761 205.523 36.761C212.015 36.761 217.302 30.8488 217.302 23.5902C217.407 16.2732 212.119 10.361 205.628 10.361Z" fill="#009DDD"/>
<path d="M215.84 30.8488C215.84 30.6146 215.997 30.439 216.206 30.439C216.416 30.439 216.573 30.6146 216.573 30.8488C216.573 31.0829 216.416 31.2585 216.206 31.2585C215.997 31.2585 215.84 31.0829 215.84 30.8488ZM216.206 31.2C216.363 31.2 216.52 31.0829 216.52 30.8488C216.52 30.6732 216.416 30.4976 216.206 30.4976C215.997 30.4976 215.892 30.6146 215.892 30.8488C215.892 31.0244 216.049 31.2 216.206 31.2ZM216.154 31.0244H216.102V30.6732H216.259C216.311 30.6732 216.311 30.6732 216.363 30.6732C216.416 30.6732 216.416 30.7317 216.416 30.7902C216.416 30.8488 216.416 30.8488 216.363 30.9073V31.0244H216.259L216.206 30.8488H216.154V31.0244ZM216.154 30.8488C216.206 30.8488 216.206 30.8488 216.259 30.8488C216.259 30.8488 216.259 30.8488 216.259 30.7902V30.7317H216.206H216.154V30.8488Z" fill="#009DDD"/>
<path d="M211.859 26.4585C211.859 26.2244 212.016 26.0488 212.226 26.0488C212.435 26.0488 212.592 26.2244 212.592 26.4585C212.592 26.6927 212.435 26.8683 212.226 26.8683C212.069 26.8683 211.859 26.6927 211.859 26.4585ZM212.278 26.8097C212.435 26.8097 212.592 26.6927 212.592 26.4585C212.592 26.2829 212.488 26.1073 212.278 26.1073C212.121 26.1073 211.964 26.2244 211.964 26.4585C211.964 26.6341 212.121 26.8097 212.278 26.8097ZM212.226 26.6341H212.173V26.2829H212.331C212.383 26.2829 212.383 26.2829 212.435 26.2829C212.488 26.2829 212.488 26.3414 212.488 26.4C212.488 26.4585 212.488 26.4585 212.435 26.5171L212.488 26.6927H212.383L212.331 26.5171H212.278L212.226 26.6341ZM212.226 26.4585C212.278 26.4585 212.278 26.4585 212.331 26.4585C212.331 26.4585 212.331 26.4585 212.331 26.4V26.3415H212.278H212.226V26.4585Z" fill="white"/>
<path d="M189.505 20.1366C189.4 20.6634 189.348 20.9561 189.191 21.6C188.301 21.1903 187.097 20.9561 186.207 21.6C185.369 22.1854 185.055 23.1805 185.108 24.2342C185.16 24.761 185.526 25.2293 185.998 25.4634C186.835 25.8146 187.62 25.6976 188.51 25.1707C188.406 25.8146 188.301 26.2829 188.196 26.7512C187.149 27.1024 186.102 27.2195 185.055 26.8098C184.113 26.4585 183.328 25.4634 183.275 24.4683C183.066 22.8293 183.747 21.1317 185.212 20.3707C186.573 19.6098 188.092 19.7268 189.505 20.1366Z" fill="white"/>
<path d="M204.529 25.9902C204.268 26.2829 203.796 26.9854 202.488 26.9854C201.336 26.9854 200.551 25.9902 200.97 23.8244L201.441 21.2488H203.221L202.749 23.8244C202.592 24.7024 202.645 25.3463 203.43 25.3463C204.372 25.3463 204.634 24.7024 204.843 23.8244L205.315 21.2488H207.095L206.309 25.3463C206.205 25.8146 206.152 26.3415 206.1 26.8683H204.425C204.372 26.8683 204.477 26.2244 204.529 25.9902Z" fill="white"/>
<path d="M207.67 23.0634C207.67 23.7659 208.089 24.2342 209.031 24.6439C209.764 24.9366 209.869 24.9951 209.869 25.2878C209.869 25.639 209.555 25.8147 208.822 25.8147C208.299 25.8147 207.775 25.7561 207.199 25.5805C207.199 25.5805 206.99 26.7512 206.938 26.8683C207.461 26.9854 208.299 27.0439 208.822 27.0439C210.707 27.0439 211.597 26.4586 211.597 25.1708C211.597 24.4098 211.23 23.9415 210.34 23.5903C209.555 23.2976 209.503 23.239 209.503 23.0049C209.503 22.7122 209.817 22.5366 210.393 22.5366C210.759 22.5366 211.23 22.5951 211.701 22.5951L211.963 21.3073C211.492 21.2488 210.811 21.1903 210.393 21.1903C208.403 21.1317 207.67 22.0098 207.67 23.0634Z" fill="white"/>
<path d="M190.293 21.2488H192.073L191.026 26.8683H189.246L190.293 21.2488Z" fill="white"/>
<path d="M200.917 21.2488C199.608 21.0732 199.189 21.7756 198.875 22.1268C198.928 21.8342 198.98 21.5415 198.98 21.2488H197.357C197.095 23.0049 196.677 24.761 196.363 26.5171L196.258 26.8683H198.142C198.352 25.6976 198.614 24 198.928 23.4732C199.242 22.9464 199.713 22.5366 200.393 22.7707L200.917 21.2488Z" fill="white"/>
<path d="M196.835 21.2488C195.526 21.0732 195.16 21.7756 194.793 22.1268C194.846 21.8342 194.898 21.5415 194.898 21.2488H193.275C193.013 23.0049 192.595 24.761 192.28 26.5171L192.176 26.8683H194.06C194.27 25.6976 194.532 24 194.846 23.4732C195.16 22.9464 195.631 22.5366 196.311 22.7707L196.835 21.2488Z" fill="white"/>
<path d="M65.6466 44.0195C65.6466 45.3659 64.6519 46.4781 63.4479 46.4781H2.19869C0.99465 46.4781 0 45.3659 0 44.0195V3.04392C0 1.69758 0.99465 0.585388 2.19869 0.585388H63.5002C64.7043 0.585388 65.6989 1.69758 65.6989 3.04392L65.6466 44.0195Z" fill="#3957A7"/>
<path d="M30.2051 30.439H27.0117L29.001 16.6244H32.2467L30.2051 30.439Z" fill="white"/>
<path d="M24.2911 16.6244L21.2548 26.1073L20.8884 24.0585L19.789 17.8537C19.789 17.8537 19.6843 16.6244 18.2709 16.6244H13.193L13.1406 16.8585C13.1406 16.8585 14.7111 17.2098 16.491 18.439L19.3179 30.439H22.6683L27.7462 16.6244H24.2911Z" fill="white"/>
<path d="M49.5221 30.439H52.4536L49.8885 16.6829H47.3234C46.1193 16.6829 45.8576 17.7366 45.8576 17.7366L41.0938 30.439H44.4441L45.1247 28.3902H49.208L49.5221 30.439ZM46.0146 25.5219L47.6898 20.3707L48.6321 25.5219H46.0146Z" fill="white"/>
<path d="M41.3042 19.961L41.7753 16.9756C41.7753 16.9756 40.3619 16.3903 38.8961 16.3903C37.3256 16.3903 33.5041 17.1512 33.5041 20.9561C33.5041 24.5268 37.9538 24.5854 37.9538 26.4C37.9538 28.2732 33.9752 27.922 32.6665 26.7512L32.1953 29.8537C32.1953 29.8537 33.6088 30.6146 35.8074 30.6146C38.0061 30.6146 41.3042 29.3268 41.3042 25.8732C41.3042 22.3025 36.8021 21.9512 36.8021 20.4293C36.8544 18.9073 39.9431 19.1415 41.3042 19.961Z" fill="white"/>
<path d="M20.8884 24.0585L19.789 17.8537C19.789 17.8537 19.6843 16.6244 18.2709 16.6244H13.193L13.1406 16.8585C13.1406 16.8585 15.5487 17.4439 17.9045 19.5512C20.1555 21.5415 20.8884 24.0585 20.8884 24.0585Z" fill="#F9A533"/>
<path d="M313.05 44.0195C313.05 45.3659 312.056 46.4781 310.852 46.4781H249.55C248.346 46.4781 247.352 45.3659 247.352 44.0195V3.04392C247.352 1.69758 248.346 0.585388 249.55 0.585388H310.852C312.056 0.585388 313.05 1.69758 313.05 3.04392V44.0195Z" fill="#13457C"/>
<path d="M288.029 36.7024H288.605L289.233 36.6439L289.809 36.5268L290.384 36.4097L290.96 36.2927L291.536 36.1171L292.06 35.8829L292.635 35.6488L293.159 35.4146L293.63 35.1219L294.154 34.7707L294.625 34.478L295.096 34.0683L295.515 33.7171L295.986 33.3073L296.352 32.839L296.771 32.3707L297.138 31.9024L297.504 31.3756L297.818 30.9073L298.132 30.3219L298.394 29.7951L298.656 29.2097L298.917 28.6244L299.127 28.039L299.284 27.4536L299.441 26.8097L299.598 26.1658L299.703 25.5219L299.755 24.878L299.807 24.1756V23.5317V22.8293L299.755 22.1854L299.703 21.4829L299.598 20.839L299.441 20.2536L299.284 19.6097L299.127 18.9658L298.917 18.3805L298.656 17.7951L298.394 17.2683L298.132 16.6829L297.818 16.1561L297.504 15.6293L297.138 15.161L296.771 14.6927L296.352 14.2244L295.986 13.7561L295.515 13.3463L295.096 12.9951L294.625 12.5854L294.154 12.2341L293.63 11.9414L293.159 11.6488L292.635 11.4146L292.06 11.1805L291.536 10.9463L290.96 10.7707L290.384 10.5951L289.809 10.478L289.233 10.4195L288.605 10.361H288.029H287.4L286.825 10.4195L286.249 10.478L285.621 10.5951L285.045 10.7707L284.521 10.9463L283.945 11.1805L283.422 11.4146L282.898 11.6488L282.375 11.9414L281.904 12.2341L281.433 12.5854L280.961 12.9951L280.543 13.3463L280.072 13.7561L279.705 14.2244L279.286 14.6927L278.92 15.161L278.553 15.6293L278.239 16.1561L277.925 16.6829L277.663 17.2683L277.402 17.7951L277.14 18.3805L276.931 18.9658L276.773 19.6097L276.616 20.2536L276.459 20.839L276.355 21.4829L276.302 22.1854L276.25 22.8293V23.5317V24.1756L276.302 24.878L276.355 25.5219L276.459 26.1658L276.616 26.8097L276.773 27.4536L276.931 28.039L277.14 28.6244L277.402 29.2097L277.663 29.7951L277.925 30.3219L278.239 30.9073L278.553 31.3756L278.92 31.9024L279.286 32.3707L279.705 32.839L280.072 33.3073L280.543 33.7171L280.961 34.0683L281.433 34.478L281.904 34.7707L282.375 35.1219L282.898 35.4146L283.422 35.6488L283.945 35.8829L284.521 36.1171L285.045 36.2927L285.621 36.4097L286.249 36.5268L286.825 36.6439L287.4 36.7024H288.029Z" fill="#EC1C2E"/>
<path d="M272.376 36.7024H273.005L273.58 36.6439L274.209 36.5268L274.784 36.4097L275.36 36.2927L275.884 36.1171L276.46 35.8829L276.983 35.6488L277.507 35.4146L278.03 35.1219L278.501 34.7707L278.972 34.478L279.444 34.0683L279.915 33.7171L280.334 33.3073L280.752 32.839L281.119 32.3707L281.485 31.9024L281.852 31.3756L282.166 30.9073L282.48 30.3219L282.742 29.7951L283.003 29.2097L283.265 28.6244L283.474 28.039L283.632 27.4536L283.789 26.8097L283.946 26.1658L284.05 25.5219L284.103 24.878L284.155 24.1756V23.5317V22.8293L284.103 22.1854L284.05 21.4829L283.946 20.839L283.789 20.2536L283.632 19.6097L283.474 18.9658L283.265 18.3805L283.003 17.7951L282.742 17.2683L282.48 16.6829L282.166 16.1561L281.852 15.6293L281.485 15.161L281.119 14.6927L280.752 14.2244L280.334 13.7561L279.915 13.3463L279.444 12.9951L278.972 12.5854L278.501 12.2341L278.03 11.9414L277.507 11.6488L276.983 11.4146L276.46 11.1805L275.884 10.9463L275.36 10.7707L274.784 10.5951L274.209 10.478L273.58 10.4195L273.005 10.361H272.376H271.801L271.172 10.4195L270.596 10.478L270.021 10.5951L269.445 10.7707L268.869 10.9463L268.345 11.1805L267.77 11.4146L267.246 11.6488L266.775 11.9414L266.251 12.2341L265.78 12.5854L265.309 12.9951L264.89 13.3463L264.472 13.7561L264.053 14.2244L263.634 14.6927L263.267 15.161L262.953 15.6293L262.587 16.1561L262.273 16.6829L262.011 17.2683L261.749 17.7951L261.488 18.3805L261.278 18.9658L261.121 19.6097L260.964 20.2536L260.807 20.839L260.702 21.4829L260.65 22.1854L260.598 22.8293V23.5317V24.1756L260.65 24.878L260.702 25.5219L260.807 26.1658L260.964 26.8097L261.121 27.4536L261.278 28.039L261.488 28.6244L261.749 29.2097L262.011 29.7951L262.273 30.3219L262.587 30.9073L262.953 31.3756L263.267 31.9024L263.634 32.3707L264.053 32.839L264.472 33.3073L264.89 33.7171L265.309 34.0683L265.78 34.478L266.251 34.7707L266.775 35.1219L267.246 35.4146L267.77 35.6488L268.345 35.8829L268.869 36.1171L269.445 36.2927L270.021 36.4097L270.596 36.5268L271.172 36.6439L271.801 36.7024H272.376Z" fill="#0084C4"/>
<path d="M278.762 15.3951H284.73V14.6342H279.338L278.762 15.3951Z" fill="#EC1C2E"/>
<path d="M277.82 16.9171H284.73V16.2147H278.239L277.82 16.9171Z" fill="#EC1C2E"/>
<path d="M277.141 18.4975H284.731V17.7951H277.455L277.141 18.4975Z" fill="#EC1C2E"/>
<path d="M276.668 20.0781H284.73V19.3171H276.877L276.668 20.0781Z" fill="#EC1C2E"/>
<path d="M276.355 21.6586H284.731V20.8976H276.46L276.355 21.6586Z" fill="#EC1C2E"/>
<path d="M276.302 24.6439H284.731V23.9415H276.25L276.302 24.6439Z" fill="#EC1C2E"/>
<path d="M276.513 26.3415H284.731V25.5805H276.355L276.513 26.3415Z" fill="#EC1C2E"/>
<path d="M276.876 27.6293H284.728V26.9268H276.719L276.876 27.6293Z" fill="#EC1C2E"/>
<path d="M277.505 29.2683H284.73V28.5659H277.191L277.505 29.2683Z" fill="#EC1C2E"/>
<path d="M278.342 30.9073H284.729V30.2049H277.871L278.342 30.9073Z" fill="#EC1C2E"/>
<path d="M279.392 32.4878H284.68V31.7853H278.816L279.392 32.4878Z" fill="#EC1C2E"/>
<path d="M297.871 31.6098L297.923 31.4927L297.976 31.3756L298.028 31.2586L298.133 31.2L298.238 31.1415L298.342 31.0829H298.447H298.552L298.656 31.1415L298.761 31.2L298.866 31.2586L298.918 31.3756L298.97 31.4927L299.023 31.6098H298.918L298.866 31.4927L298.813 31.4342L298.761 31.3756L298.709 31.2586H298.656L298.552 31.2H298.447H298.342L298.29 31.2586H298.185L298.133 31.3756L298.081 31.4342L298.028 31.4927L297.976 31.6098H297.871Z" fill="#EC1C2E"/>
<path d="M298.238 31.6098V31.4341H298.448H298.5H298.552L298.605 31.4927H298.657V31.5512H298.709V31.6098H298.605V31.5512H298.552V31.4927H298.5H298.448H298.343V31.6098H298.238Z" fill="#EC1C2E"/>
<path d="M297.871 31.7268V31.6097H297.976V31.7268H297.871Z" fill="#EC1C2E"/>
<path d="M298.238 31.7268V31.6097H298.343V31.6683H298.448H298.5H298.552H298.605V31.6097H298.709L298.657 31.6683V31.7268H298.238Z" fill="#EC1C2E"/>
<path d="M298.918 31.7268V31.6097H299.023V31.7268H298.918Z" fill="#EC1C2E"/>
<path d="M297.871 31.7268V31.8439L297.923 31.961L297.976 32.078L298.028 32.1951L298.133 32.2536L298.238 32.3122L298.342 32.3707H298.447H298.552L298.656 32.3122L298.761 32.2536L298.866 32.1951L298.918 32.078L298.97 31.961L299.023 31.8439V31.7268H298.918V31.8439L298.866 31.961L298.813 32.0195L298.761 32.1366L298.709 32.1951L298.656 32.2536H298.552H298.447H298.342H298.29L298.185 32.1951L298.133 32.1366L298.081 32.0195L298.028 31.961L297.976 31.8439V31.7268H297.871Z" fill="#EC1C2E"/>
<path d="M298.238 31.7268V31.961H298.343V31.7853H298.448L298.552 31.961H298.657L298.552 31.7853V31.7268H298.605H298.657H298.238Z" fill="#EC1C2E"/>
<path d="M285.464 22.4195L285.307 22.361H285.254H285.15H285.097H285.045L284.94 22.3025H284.888H284.783H284.731H284.626H284.522H284.417H284.26H284.103H283.998H283.841L283.736 22.361H283.684L283.579 22.4195L283.475 22.4781L283.422 22.5366L283.37 22.5951L283.317 22.6537L283.265 22.7122V22.7708V22.8293V22.9464V23.0049L283.317 23.122V23.1805L283.37 23.2391L283.527 23.3561L283.632 23.4732L283.789 23.5317L283.946 23.5903L284.155 23.6488L284.312 23.7659L284.522 23.8244L284.679 23.883L284.836 24L284.993 24.1171L285.15 24.2927L285.254 24.4683L285.359 24.7025L285.411 24.9951V25.3464V25.6976L285.359 25.9903L285.307 26.283L285.202 26.5171L285.097 26.6927L284.94 26.8683L284.836 27.0439L284.679 27.161L284.469 27.2781L284.312 27.3951L284.103 27.4537L283.946 27.5122L283.736 27.5708L283.579 27.6293H283.37H283.213H283.003H282.794H282.585H282.375H282.166H282.009H281.852H281.747L281.59 27.5708H281.485H281.381L281.276 27.5122H281.171L281.066 27.4537H281.014L280.909 27.3951L280.805 27.3366L281.066 25.9903H281.119L281.171 26.0488H281.223L281.328 26.1073H281.433L281.538 26.1659H281.695H281.799L281.956 26.2244H282.113H282.27L282.428 26.283H282.585H282.742H282.899H283.056L283.213 26.2244L283.317 26.1659L283.422 26.1073L283.527 26.0488L283.579 25.9317L283.632 25.8732V25.7561L283.684 25.6976V25.5805V25.4634V25.4049L283.632 25.3464L283.579 25.2878L283.527 25.2293L283.475 25.1708L283.37 25.1122L283.317 25.0537L283.213 24.9951L283.108 24.9366H283.003L282.951 24.8781L282.794 24.8195L282.689 24.761L282.585 24.7025L282.48 24.6439L282.375 24.5854L282.27 24.5269L282.166 24.4683L282.061 24.4098L281.956 24.2927L281.904 24.2342L281.799 24.1171L281.747 24L281.642 23.883L281.59 23.7659L281.538 23.5903V23.4732L281.485 23.2976V23.0634L281.538 22.8878V22.7708V22.6537V22.5366L281.59 22.4195V22.3025L281.642 22.1854L281.695 22.0683V22.0098L281.747 21.8927L281.799 21.8342L281.852 21.7171L281.904 21.6586L281.956 21.5415L282.009 21.483L282.061 21.4244L282.166 21.3659L282.218 21.3073L282.323 21.2488L282.428 21.1903L282.48 21.1317L282.585 21.0732H282.689L282.794 21.0147L282.899 20.9561H283.056H283.16L283.317 20.8976H283.422H283.579L283.736 20.8391H283.893H284.05H284.26H284.469H284.626L284.783 20.8976H284.94H285.045H285.15H285.254L285.359 20.9561H285.411H285.516H285.569H285.621H285.673L285.726 21.0147L285.464 22.4195Z" fill="white"/>
<path d="M285.464 22.4195L285.307 22.361H285.254H285.15H285.097H285.045L284.94 22.3025H284.888H284.783H284.731H284.626H284.522H284.417H284.26H284.103H283.998H283.841L283.736 22.361H283.684L283.579 22.4195L283.475 22.4781L283.422 22.5366L283.37 22.5951L283.317 22.6537L283.265 22.7122V22.7708V22.8293V22.9464V23.0049L283.317 23.122V23.1805L283.37 23.2391L283.527 23.3561L283.632 23.4732L283.789 23.5317L283.946 23.5903L284.155 23.6488L284.312 23.7659L284.522 23.8244L284.679 23.883L284.836 24L284.993 24.1171L285.15 24.2927L285.254 24.4683L285.359 24.7025L285.411 24.9951V25.3464V25.6976L285.359 25.9903L285.307 26.283L285.202 26.5171L285.097 26.6927L284.94 26.8683L284.836 27.0439L284.679 27.161L284.469 27.2781L284.312 27.3951L284.103 27.4537L283.946 27.5122L283.736 27.5708L283.579 27.6293H283.37H283.213H283.003H282.794H282.585H282.375H282.166H282.009H281.852H281.747L281.59 27.5708H281.485H281.381L281.276 27.5122H281.171L281.066 27.4537H281.014L280.909 27.3951L280.805 27.3366L281.066 25.9903H281.119L281.171 26.0488H281.223L281.328 26.1073H281.433L281.538 26.1659H281.695H281.799L281.956 26.2244H282.113H282.27L282.428 26.283H282.585H282.742H282.899H283.056L283.213 26.2244L283.317 26.1659L283.422 26.1073L283.527 26.0488L283.579 25.9317L283.632 25.8732V25.7561L283.684 25.6976V25.5805V25.4634V25.4049L283.632 25.3464L283.579 25.2878L283.527 25.2293L283.475 25.1708L283.37 25.1122L283.317 25.0537L283.213 24.9951L283.108 24.9366H283.003L282.951 24.8781L282.794 24.8195L282.689 24.761L282.585 24.7025L282.48 24.6439L282.375 24.5854L282.27 24.5269L282.166 24.4683L282.061 24.4098L281.956 24.2927L281.904 24.2342L281.799 24.1171L281.747 24L281.642 23.883L281.59 23.7659L281.538 23.5903V23.4732L281.485 23.2976V23.0634L281.538 22.8878V22.7708V22.6537V22.5366L281.59 22.4195V22.3025L281.642 22.1854L281.695 22.0683V22.0098L281.747 21.8927L281.799 21.8342L281.852 21.7171L281.904 21.6586L281.956 21.5415L282.009 21.483L282.061 21.4244L282.166 21.3659L282.218 21.3073L282.323 21.2488L282.428 21.1903L282.48 21.1317L282.585 21.0732H282.689L282.794 21.0147L282.899 20.9561H283.056H283.16L283.317 20.8976H283.422H283.579L283.736 20.8391H283.893H284.05H284.26H284.469H284.626L284.783 20.8976H284.94H285.045H285.15H285.254L285.359 20.9561H285.411H285.516H285.568H285.621H285.673L285.726 21.0147L285.464 22.4195Z" stroke="white" stroke-width="0.215"/>
<path d="M286.719 19.4927H288.289L288.08 21.0146H289.022L288.813 22.4195L287.818 22.361L287.295 25.8146V25.8732V25.9902V26.0488L287.347 26.1073V26.1658H287.399L287.452 26.2244H287.504L287.556 26.2829H287.609H287.661H287.713H287.766L287.818 26.3415H287.923H288.028L288.132 26.2829H288.237H288.342L288.394 26.2244H288.446H288.499L288.342 27.3951H288.289L288.237 27.4537H288.185H288.132V27.5122H288.08H288.028L287.975 27.5707H287.923H287.871H287.766L287.713 27.6293H287.661H287.556H287.452H287.399H286.981H286.719H286.562L286.352 27.5707L286.195 27.5122L286.091 27.4537L285.986 27.3951L285.881 27.3366L285.829 27.278L285.777 27.161L285.724 27.0439L285.672 26.9268V26.8097V26.6927V26.5756V26.4L285.724 26.2829L286.719 19.4927Z" fill="white"/>
<path d="M286.719 19.4927H288.289L288.08 21.0146H289.022L288.813 22.4195L287.818 22.361L287.295 25.8146V25.8732V25.9902V26.0488L287.347 26.1073V26.1658H287.399L287.452 26.2244H287.504L287.556 26.2829H287.609H287.661H287.713H287.766L287.818 26.3415H287.923H288.028L288.132 26.2829H288.237H288.342L288.394 26.2244H288.446H288.499L288.342 27.3951H288.289L288.237 27.4537H288.185H288.132V27.5122H288.08H288.028L287.975 27.5707H287.923H287.871H287.766L287.713 27.6293H287.661H287.556H287.452H287.399H286.981H286.719H286.562L286.352 27.5707L286.195 27.5122L286.091 27.4537L285.986 27.3951L285.881 27.3366L285.829 27.278L285.777 27.161L285.724 27.0439L285.672 26.9268V26.8097V26.6927V26.5756V26.4L285.724 26.2829L286.719 19.4927Z" stroke="white" stroke-width="0.215"/>
<path d="M277.296 24.761L277.244 24.8781V24.9951V25.1122L277.296 25.2293V25.3464L277.349 25.4634L277.401 25.522L277.506 25.639L277.558 25.7561L277.663 25.8732L277.715 25.9317L277.82 26.0488L277.924 26.1073L278.029 26.1659L278.134 26.2244H278.291H278.396L278.553 26.2829H278.71H278.814H278.971H279.129H279.286H279.443H279.6L279.757 26.2244L279.861 26.1659L280.018 26.1073L280.176 26.0488L280.385 25.9903L280.542 25.8732L280.699 25.7561L280.437 27.3366L280.333 27.3951H280.28L280.176 27.4537L280.071 27.5122H280.018L279.914 27.5708H279.861H279.757L279.652 27.6293H279.547H279.39H279.286H279.129H278.971H278.814H278.657H278.5H278.343H278.239H278.082L277.924 27.5708H277.82L277.663 27.5122H277.506L277.401 27.4537L277.244 27.3951L277.139 27.3366L276.982 27.2781L276.878 27.2195L276.72 27.161L276.616 27.0439L276.511 26.9269L276.406 26.8683L276.302 26.7512L276.197 26.6342L276.092 26.4586L276.04 26.3415L275.935 26.1659L275.883 26.0488L275.831 25.8732L275.726 25.6976V25.4634L275.673 25.2878V25.0537L275.621 24.8781V24.6439V24.3512L275.673 24.1171V24V23.8829L275.726 23.8244V23.7073V23.5903L275.778 23.4732V23.3561L275.831 23.1805L275.883 23.0634L275.935 22.9464V22.8293L276.04 22.6537L276.092 22.5366L276.145 22.4195L276.197 22.2439L276.302 22.1269L276.406 22.0098L276.459 21.8927L276.563 21.7756L276.668 21.6586L276.825 21.5415L276.93 21.4244L277.087 21.3659L277.192 21.2488L277.349 21.1903L277.558 21.0732L277.715 21.0147L277.872 20.9561H278.082L278.291 20.8976H278.5H278.762H278.867H278.971H279.076H279.181L279.286 20.9561H279.443H279.547L279.652 21.0147L279.757 21.0732L279.861 21.1317H279.966L280.071 21.1903L280.176 21.3073L280.28 21.3659L280.385 21.4244L280.49 21.5415L280.542 21.6586L280.647 21.7171L280.699 21.8927L280.804 22.0098L280.856 22.1269L280.908 22.3025L280.961 22.4195V22.5951L281.013 22.7708V23.0049V23.1805V23.4147V23.6488V23.8829L280.961 24.1171L280.908 24.4098L280.856 24.761H276.825L277.087 23.5903H279.495V23.4147V23.239V23.122L279.443 23.0049V22.8878L279.39 22.7708L279.338 22.6537L279.286 22.5951L279.233 22.4781L279.129 22.4195L279.076 22.361H278.971L278.919 22.3025H278.814L278.71 22.2439H278.605H278.5L278.396 22.3025H278.291L278.186 22.361H278.134L278.029 22.4195L277.977 22.4781L277.872 22.5951L277.82 22.6537L277.767 22.7708L277.715 22.8293L277.663 22.9464L277.61 23.0634L277.558 23.1805L277.506 23.2976V23.4732L277.296 24.761Z" fill="white"/>
<path d="M277.296 24.761L277.244 24.8781V24.9951V25.1122L277.296 25.2293V25.3464L277.349 25.4634L277.401 25.522L277.506 25.639L277.558 25.7561L277.663 25.8732L277.715 25.9317L277.82 26.0488L277.924 26.1073L278.029 26.1659L278.134 26.2244H278.291H278.396L278.553 26.2829H278.71H278.814H278.971H279.129H279.286H279.443H279.6L279.757 26.2244L279.861 26.1659L280.018 26.1073L280.176 26.0488L280.385 25.9903L280.542 25.8732L280.699 25.7561L280.437 27.3366L280.333 27.3951H280.28L280.176 27.4537L280.071 27.5122H280.018L279.914 27.5708H279.861H279.757L279.652 27.6293H279.547H279.39H279.286H279.129H278.971H278.814H278.657H278.5H278.343H278.239H278.082L277.924 27.5708H277.82L277.663 27.5122H277.506L277.401 27.4537L277.244 27.3951L277.139 27.3366L276.982 27.2781L276.878 27.2195L276.72 27.161L276.616 27.0439L276.511 26.9269L276.406 26.8683L276.302 26.7512L276.197 26.6342L276.092 26.4586L276.04 26.3415L275.935 26.1659L275.883 26.0488L275.831 25.8732L275.726 25.6976V25.4634L275.673 25.2878V25.0537L275.621 24.8781V24.6439V24.3512L275.673 24.1171V24V23.8829L275.726 23.8244V23.7073V23.5903L275.778 23.4732V23.3561L275.831 23.1805L275.883 23.0634L275.935 22.9464V22.8293L276.04 22.6537L276.092 22.5366L276.145 22.4195L276.197 22.2439L276.302 22.1269L276.406 22.0098L276.459 21.8927L276.563 21.7756L276.668 21.6586L276.825 21.5415L276.93 21.4244L277.087 21.3659L277.192 21.2488L277.349 21.1903L277.558 21.0732L277.715 21.0147L277.872 20.9561H278.082L278.291 20.8976H278.5H278.762H278.867H278.971H279.076H279.181L279.286 20.9561H279.443H279.547L279.652 21.0147L279.757 21.0732L279.861 21.1317H279.966L280.071 21.1903L280.176 21.3073L280.28 21.3659L280.385 21.4244L280.49 21.5415L280.542 21.6586L280.647 21.7171L280.699 21.8927L280.804 22.0098L280.856 22.1269L280.908 22.3025L280.961 22.4195V22.5951L281.013 22.7708V23.0049V23.1805V23.4147V23.6488V23.8829L280.961 24.1171L280.908 24.4098L280.856 24.761H276.825L277.087 23.5903H279.495V23.4147V23.239V23.122L279.443 23.0049V22.8878L279.39 22.7708L279.338 22.6537L279.286 22.5951L279.233 22.4781L279.129 22.4195L279.076 22.361H278.971L278.919 22.3025H278.814L278.71 22.2439H278.605H278.5L278.396 22.3025H278.291L278.186 22.361H278.134L278.029 22.4195L277.977 22.4781L277.872 22.5951L277.82 22.6537L277.767 22.7708L277.715 22.8293L277.663 22.9464L277.61 23.0634L277.558 23.1805L277.506 23.2976V23.4732L277.296 24.761Z" stroke="white" stroke-width="0.215"/>
<path d="M275.148 26.2829L274.886 27.6293H273.525V27.5122V27.3951V27.2781L273.578 27.161V27.1025V26.9854L273.63 26.9269L273.525 26.9854L273.473 27.1025L273.368 27.2195L273.211 27.2781L273.107 27.3951L272.95 27.4537L272.792 27.5122L272.688 27.5708L272.531 27.6293L272.321 27.6878L272.164 27.7464H272.007H271.85H271.693H271.536H271.379L271.17 27.6878L271.013 27.6293L270.856 27.5122L270.698 27.4537L270.594 27.3366L270.489 27.2195L270.384 27.1025L270.332 26.9854L270.28 26.8098L270.227 26.6927L270.175 26.5756L270.123 26.4V26.2829L270.07 26.1659V25.9903V25.8732V25.639L270.123 25.4049L270.175 25.1708L270.227 24.9951L270.332 24.761L270.437 24.5854L270.541 24.4098L270.698 24.2342L270.856 24.1171L270.96 24L271.17 23.8829L271.327 23.7659L271.484 23.7073L271.693 23.6488L271.85 23.5903L272.06 23.5317H272.112H272.164H272.269L272.321 23.4732H272.426H272.531H272.583H272.688L272.792 23.4147H272.897H272.95H273.054H273.107H273.211H273.264H273.316H273.368H273.473H273.525H273.578H273.63H273.682H273.735H273.787H273.839H273.892H273.944H273.997V23.2976V23.1805V23.0634V23.0049V22.8878V22.8293L273.944 22.7708V22.7122L273.892 22.6537L273.839 22.5951L273.787 22.5366H273.735L273.682 22.4781L273.63 22.4195H273.578H273.525L273.473 22.361H273.368H273.316H273.159H273.002H272.845H272.635H272.478L272.269 22.4195H272.112H271.955L271.745 22.4781H271.588L271.484 22.5366H271.327L271.222 22.5951L271.117 22.6537H271.013L270.96 22.7122L271.379 21.2488L271.484 21.1903L271.588 21.1317L271.745 21.0732L271.85 21.0147H272.007L272.164 20.9561H272.269H272.426H272.583L272.74 20.8976H272.897H273.107H273.264H273.421H273.63H273.839L273.997 20.9561H274.154L274.311 21.0147L274.52 21.0732L274.677 21.1317L274.834 21.2488L274.991 21.3659L275.148 21.4829L275.305 21.6L275.41 21.7756L275.567 21.8927L275.619 22.1269L275.672 22.3025L275.724 22.5366V22.7708V23.0049L275.148 26.2829Z" fill="white"/>
<path d="M275.148 26.2829L274.886 27.6293H273.525V27.5122V27.3951V27.2781L273.578 27.161V27.1025V26.9854L273.63 26.9269L273.525 26.9854L273.473 27.1025L273.368 27.2195L273.211 27.2781L273.107 27.3951L272.95 27.4537L272.792 27.5122L272.688 27.5708L272.531 27.6293L272.321 27.6878L272.164 27.7464H272.007H271.85H271.693H271.536H271.379L271.17 27.6878L271.013 27.6293L270.856 27.5122L270.698 27.4537L270.594 27.3366L270.489 27.2195L270.384 27.1025L270.332 26.9854L270.28 26.8098L270.227 26.6927L270.175 26.5756L270.123 26.4V26.2829L270.07 26.1659V25.9903V25.8732V25.639L270.123 25.4049L270.175 25.1708L270.227 24.9951L270.332 24.761L270.437 24.5854L270.541 24.4098L270.698 24.2342L270.856 24.1171L270.96 24L271.17 23.8829L271.327 23.7659L271.484 23.7073L271.693 23.6488L271.85 23.5903L272.06 23.5317H272.112H272.164H272.269L272.321 23.4732H272.426H272.531H272.583H272.688L272.792 23.4147H272.897H272.95H273.054H273.107H273.211H273.264H273.316H273.368H273.473H273.525H273.578H273.63H273.682H273.735H273.787H273.839H273.892H273.944H273.997V23.2976V23.1805V23.0634V23.0049V22.8878V22.8293L273.944 22.7708V22.7122L273.892 22.6537L273.839 22.5951L273.787 22.5366H273.735L273.682 22.4781L273.63 22.4195H273.578H273.525L273.473 22.361H273.368H273.316H273.159H273.002H272.845H272.635H272.478L272.269 22.4195H272.112H271.955L271.745 22.4781H271.588L271.484 22.5366H271.327L271.222 22.5951L271.117 22.6537H271.013L270.96 22.7122L271.379 21.2488L271.484 21.1903L271.588 21.1317L271.745 21.0732L271.85 21.0147H272.007L272.164 20.9561H272.269H272.426H272.583L272.74 20.8976H272.897H273.107H273.264H273.421H273.63H273.839L273.997 20.9561H274.154L274.311 21.0147L274.52 21.0732L274.677 21.1317L274.834 21.2488L274.991 21.3659L275.148 21.4829L275.305 21.6L275.41 21.7756L275.567 21.8927L275.619 22.1269L275.672 22.3025L275.724 22.5366V22.7708V23.0049L275.148 26.2829Z" stroke="white" stroke-width="0.215"/>
<path d="M273.79 24.6439L273.685 24.5269H273.581H273.528H273.476H273.371H273.267L273.214 24.5854H273.11H273.005H272.9L272.848 24.6439H272.795H272.691L272.638 24.7025H272.586L272.534 24.761H272.429L272.377 24.8195L272.272 24.8781L272.22 24.9366L272.167 24.9951L272.063 25.0537L272.01 25.1122L271.958 25.1708L271.905 25.2878L271.853 25.3464V25.4634L271.801 25.5805V25.7561L271.853 25.9317V26.0488L271.958 26.1659L272.01 26.2244L272.115 26.283H272.22H272.324H272.481H272.638L272.795 26.2244H272.9L273.005 26.1659L273.11 26.1073L273.214 26.0488L273.319 25.9903L273.371 25.9317L273.424 25.8147L273.476 25.7561L273.528 25.6976L273.581 25.639V25.5805L273.633 25.4634V25.4049L273.685 25.3464V25.2293V25.1122L273.738 24.9951V24.9366V24.8195L273.79 24.7025V24.6439Z" fill="#0084C4"/>
<path d="M263.424 27.6293H261.906L263.215 19.4927H265.832L266.094 24.3512L267.874 19.4927H270.596L269.34 27.6293H267.822L268.764 21.5415H268.712L266.461 27.6293H264.785L264.733 27.3951V26.6927L264.681 25.7561L264.628 24.6439L264.576 23.5317L264.524 22.5366L264.471 21.8341V21.5415H264.419L263.424 27.6293Z" fill="white"/>
<path d="M264.419 21.5415H264.471V21.8341L264.524 22.5366L264.576 23.5317L264.628 24.6439L264.681 25.7561L264.733 26.6927V27.3951L264.785 27.6293H266.461L268.712 21.5415H268.764L267.822 27.6293H269.34L270.596 19.4927H267.874L266.094 24.3512L265.832 19.4927H263.215L261.906 27.6293H263.424L264.419 21.5415ZM264.419 21.5415H264.367" stroke="white" stroke-width="0.215"/>
<path d="M288.762 27.6293H290.332L290.856 24.1171V24L290.908 23.8829V23.7073L290.96 23.5903L291.013 23.4732L291.065 23.3561L291.117 23.239L291.222 23.122L291.275 23.0634L291.379 22.9464L291.536 22.8878L291.641 22.8293L291.798 22.7708L291.955 22.7122L292.164 22.6537H292.374H292.426H292.479H292.531L292.583 22.7122V22.6537V22.5951V22.4781L292.636 22.3025L292.688 22.1854L292.74 22.0098L292.793 21.8342L292.845 21.6586V21.5415L292.897 21.4244L292.95 21.3073L293.002 21.1903L293.054 21.1317L293.107 21.0147L293.159 20.9561H293.107H293.054H293.002H292.95V20.8976H292.897L292.74 20.9561H292.583L292.426 21.0147H292.269L292.164 21.0732L292.06 21.1317L291.955 21.1903L291.85 21.3073L291.746 21.3659L291.641 21.4829L291.589 21.5415L291.484 21.6586L291.432 21.7756L291.327 21.8927L291.275 22.0098L291.17 22.1269L291.327 21.0147H289.756L288.762 27.6293Z" fill="white"/>
<path d="M288.762 27.6293H290.332L290.856 24.1171V24L290.908 23.8829V23.7073L290.96 23.5903L291.013 23.4732L291.065 23.3561L291.117 23.239L291.222 23.122L291.275 23.0634L291.379 22.9464L291.536 22.8878L291.641 22.8293L291.798 22.7708L291.955 22.7122L292.164 22.6537H292.374H292.426H292.479H292.531L292.583 22.7122V22.6537V22.5951V22.4781L292.636 22.3025L292.688 22.1854L292.74 22.0098L292.793 21.8342L292.845 21.6586V21.5415L292.897 21.4244L292.95 21.3073L293.002 21.1903L293.054 21.1317L293.107 21.0147L293.159 20.9561H293.107H293.054H293.002H292.95V20.8976H292.897L292.74 20.9561H292.583L292.426 21.0147H292.269L292.164 21.0732L292.06 21.1317L291.955 21.1903L291.85 21.3073L291.746 21.3659L291.641 21.4829L291.589 21.5415L291.484 21.6586L291.432 21.7756L291.327 21.8927L291.275 22.0098L291.17 22.1269L291.327 21.0147H289.756L288.762 27.6293Z" stroke="white" stroke-width="0.215"/>
<path d="M295.568 20.8976L295.725 20.9561H295.882H296.092H296.249L296.406 21.0147L296.563 21.0732L296.668 21.1317L296.825 21.1903L296.982 21.2488L297.086 21.3073L297.191 21.3659L297.348 21.4829L297.453 21.5415L297.558 21.6586L297.662 21.7171L297.767 21.8342L297.872 21.9512L297.924 22.0683L298.029 22.1854L298.081 22.361L298.133 22.4781L298.186 22.5951L298.291 22.7708V22.8878L298.343 23.0634L298.395 23.239L298.448 23.3561V23.5317V23.7073V23.8829L298.5 24.0586L298.448 24.2342V24.4683V24.7025L298.395 24.8781V25.1122L298.343 25.2878L298.291 25.4634L298.238 25.639L298.186 25.8147L298.081 25.9903L298.029 26.1073L297.976 26.2829L297.872 26.4L297.767 26.5756L297.662 26.6927L297.61 26.8098L297.505 26.9269L297.348 26.9854L297.244 27.1025L297.139 27.2195L297.034 27.2781L296.877 27.3366L296.772 27.4537L296.615 27.5122L296.511 27.5708L296.354 27.6293H296.197L296.039 27.6878H295.882L295.778 27.7464H295.621H295.464H295.307H295.097H294.94H294.835L294.678 27.6878H294.521L294.364 27.6293H294.207L294.103 27.5708L293.945 27.5122L293.841 27.4537L293.684 27.3366L293.579 27.2781L293.474 27.2195L293.37 27.1025L293.265 26.9854L293.16 26.9269L293.056 26.8098L292.951 26.6927L292.898 26.5756L292.794 26.4586L292.741 26.2829L292.637 26.1659L292.584 25.9903L292.532 25.8732L292.48 25.6976V25.522L292.427 25.3464L292.375 25.1708V24.9951V24.8195V24.5854V24.4098V24.1756V24L292.427 23.7659L292.48 23.5903V23.4147L292.532 23.239L292.584 23.0634L292.637 22.8878L292.741 22.7708L292.794 22.5951L292.846 22.4781L292.951 22.3025L293.056 22.1854L293.108 22.0683L293.213 21.9512L293.317 21.8342L293.422 21.7171L293.527 21.6L293.684 21.5415L293.788 21.4244L293.893 21.3659L294.05 21.3073L294.155 21.1903L294.312 21.1317L294.469 21.0732H294.574L294.731 21.0147L294.888 20.9561H295.045H295.202H295.411L295.568 20.8976Z" fill="white"/>
<path d="M295.568 20.8976L295.725 20.9561H295.882H296.092H296.249L296.406 21.0147L296.563 21.0732L296.668 21.1317L296.825 21.1903L296.982 21.2488L297.086 21.3073L297.191 21.3659L297.348 21.4829L297.453 21.5415L297.558 21.6586L297.662 21.7171L297.767 21.8342L297.872 21.9512L297.924 22.0683L298.029 22.1854L298.081 22.361L298.133 22.4781L298.186 22.5951L298.291 22.7708V22.8878L298.343 23.0634L298.395 23.239L298.448 23.3561V23.5317V23.7073V23.8829L298.5 24.0586L298.448 24.2342V24.4683V24.7025L298.395 24.8781V25.1122L298.343 25.2878L298.291 25.4634L298.238 25.639L298.186 25.8147L298.081 25.9903L298.029 26.1073L297.976 26.2829L297.872 26.4L297.767 26.5756L297.662 26.6927L297.61 26.8098L297.505 26.9269L297.348 26.9854L297.244 27.1025L297.139 27.2195L297.034 27.2781L296.877 27.3366L296.772 27.4537L296.615 27.5122L296.511 27.5708L296.354 27.6293H296.197L296.039 27.6878H295.882L295.778 27.7464H295.621H295.464H295.307H295.097H294.94H294.835L294.678 27.6878H294.521L294.364 27.6293H294.207L294.103 27.5708L293.945 27.5122L293.841 27.4537L293.684 27.3366L293.579 27.2781L293.474 27.2195L293.37 27.1025L293.265 26.9854L293.16 26.9269L293.056 26.8098L292.951 26.6927L292.898 26.5756L292.794 26.4586L292.741 26.2829L292.637 26.1659L292.584 25.9903L292.532 25.8732L292.48 25.6976V25.522L292.427 25.3464L292.375 25.1708V24.9951V24.8195V24.5854V24.4098V24.1756V24L292.427 23.7659L292.48 23.5903V23.4147L292.532 23.239L292.584 23.0634L292.637 22.8878L292.741 22.7708L292.794 22.5951L292.846 22.4781L292.951 22.3025L293.056 22.1854L293.108 22.0683L293.213 21.9512L293.317 21.8342L293.422 21.7171L293.527 21.6L293.684 21.5415L293.788 21.4244L293.893 21.3659L294.05 21.3073L294.155 21.1903L294.312 21.1317L294.469 21.0732H294.574L294.731 21.0147L294.888 20.9561H295.045H295.202H295.411L295.568 20.8976Z" stroke="white" stroke-width="0.215"/>
<path d="M297.871 27.3366H298.342V27.3951H298.133V27.8049H298.028V27.3951L297.871 27.3366Z" fill="white"/>
<path d="M297.871 27.3366H298.342V27.3951H298.133V27.8049H298.028V27.3951L297.871 27.3366Z" stroke="white" stroke-width="0.215"/>
<path d="M298.395 27.3366H298.552L298.709 27.6878L298.866 27.3366H298.97V27.8049H298.866V27.4537L298.709 27.8049H298.656L298.499 27.4537V27.8049H298.395V27.3366Z" fill="white"/>
<path d="M298.395 27.3366H298.552L298.709 27.6878L298.866 27.3366H298.97V27.8049H298.866V27.4537L298.709 27.8049H298.656L298.499 27.4537V27.8049H298.395V27.3366Z" stroke="white" stroke-width="0.215"/>
<path d="M294.309 24.1171V24.3512V24.5853V24.761V24.9951V25.1122L294.361 25.2878L294.413 25.4049L294.466 25.5805L294.518 25.639L294.57 25.7561L294.675 25.8146L294.78 25.8732L294.884 25.9317L294.989 25.9902H295.094H295.199H295.356H295.46L295.565 25.9317H295.67L295.827 25.8146L295.931 25.7561L295.984 25.6975L296.088 25.5805L296.193 25.4634L296.246 25.2878L296.35 25.1707L296.403 24.9951L296.455 24.8195L296.507 24.5853L296.56 24.3512V24.1171L296.612 23.9414V23.7658V23.5902V23.4146L296.56 23.2975V23.1219L296.507 23.0049L296.455 22.8878L296.403 22.7707L296.298 22.6536L296.246 22.5951L296.141 22.5366L296.036 22.478L295.931 22.4195H295.827H295.67H295.513H295.408L295.251 22.478L295.146 22.5366L294.989 22.6536L294.884 22.7122L294.78 22.8293L294.727 22.9463L294.623 23.1219L294.57 23.239L294.518 23.3561L294.466 23.5317L294.413 23.6488L294.361 23.8244V23.9414L294.309 24.1171Z" fill="#EC1C2E"/>
<path d="M148.096 44.0195C148.096 45.3659 147.101 46.4781 145.897 46.4781H84.6479C83.4439 46.4781 82.4492 45.3659 82.4492 44.0195V3.04392C82.4492 1.69758 83.4439 0.585388 84.6479 0.585388H145.949C147.153 0.585388 148.148 1.69758 148.148 3.04392L148.096 44.0195Z" fill="#13457C"/>
<path d="M123.177 36.7024H123.753L124.381 36.6439L124.957 36.5268L125.533 36.4097L126.109 36.2927L126.685 36.1171L127.208 35.8829L127.732 35.6488L128.255 35.4146L128.779 35.1219L129.302 34.7707L129.773 34.478L130.244 34.0683L130.663 33.7171L131.082 33.2488L131.501 32.839L131.92 32.3707L132.286 31.9024L132.6 31.3756L132.967 30.9073L133.281 30.3219L133.542 29.7951L133.804 29.2097L134.014 28.6244L134.223 28.039L134.432 27.4536L134.589 26.8097L134.746 26.1658L134.851 25.5219L134.903 24.878L134.956 24.1756V23.5317V22.8293L134.903 22.1854L134.851 21.4829L134.746 20.839L134.589 20.2536L134.432 19.6097L134.223 18.9658L134.014 18.3805L133.804 17.7951L133.542 17.2683L133.281 16.6829L132.967 16.1561L132.6 15.6293L132.286 15.161L131.92 14.6927L131.501 14.2244L131.082 13.7561L130.663 13.3463L130.244 12.9951L129.773 12.5854L129.302 12.2927L128.779 11.9414L128.255 11.6488L127.732 11.4146L127.208 11.1805L126.685 10.9463L126.109 10.7707L125.533 10.6536L124.957 10.5366L124.381 10.4195L123.753 10.361H123.177H122.549L121.973 10.4195L121.345 10.5366L120.769 10.6536L120.246 10.7707L119.67 10.9463L119.094 11.1805L118.57 11.4146L118.047 11.6488L117.576 11.9414L117.052 12.2927L116.581 12.5854L116.11 12.9951L115.691 13.3463L115.272 13.7561L114.854 14.2244L114.435 14.6927L114.068 15.161L113.754 15.6293L113.388 16.1561L113.126 16.6829L112.812 17.2683L112.55 17.7951L112.341 18.3805L112.131 18.9658L111.922 19.6097L111.765 20.2536L111.66 20.839L111.555 21.4829L111.451 22.1854L111.398 22.8293V23.5317V24.1756L111.451 24.878L111.555 25.5219L111.66 26.1658L111.765 26.8097L111.922 27.4536L112.131 28.039L112.341 28.6244L112.55 29.2097L112.812 29.7951L113.126 30.3219L113.388 30.9073L113.754 31.3756L114.068 31.9024L114.435 32.3707L114.854 32.839L115.272 33.2488L115.691 33.7171L116.11 34.0683L116.581 34.478L117.052 34.7707L117.576 35.1219L118.047 35.4146L118.57 35.6488L119.094 35.8829L119.67 36.1171L120.246 36.2927L120.769 36.4097L121.345 36.5268L121.973 36.6439L122.549 36.7024H123.177Z" fill="#FBB231"/>
<path d="M107.421 36.7024H107.997L108.625 36.6439L109.201 36.5268L109.777 36.4097L110.352 36.2927L110.928 36.1171L111.452 35.8829L111.975 35.6488L112.499 35.4146L113.022 35.1219L113.493 34.7707L113.965 34.478L114.436 34.0683L114.907 33.7171L115.326 33.2488L115.744 32.839L116.111 32.3707L116.477 31.9024L116.844 31.3756L117.158 30.9073L117.472 30.3219L117.734 29.7951L117.996 29.2097L118.257 28.6244L118.467 28.039L118.624 27.4536L118.781 26.8097L118.938 26.1658L119.043 25.5219L119.095 24.878L119.147 24.1756V23.5317V22.8293L119.095 22.1854L119.043 21.4829L118.938 20.839L118.781 20.2536L118.624 19.6097L118.467 18.9658L118.257 18.3805L117.996 17.7951L117.734 17.2683L117.472 16.6829L117.158 16.1561L116.844 15.6293L116.477 15.161L116.111 14.6927L115.744 14.2244L115.326 13.7561L114.907 13.3463L114.436 12.9951L113.965 12.5854L113.493 12.2927L113.022 11.9414L112.499 11.6488L111.975 11.4146L111.452 11.1805L110.928 10.9463L110.352 10.7707L109.777 10.6536L109.201 10.5366L108.625 10.4195L107.997 10.361H107.421H106.793L106.217 10.4195L105.589 10.5366L105.013 10.6536L104.437 10.7707L103.913 10.9463L103.338 11.1805L102.814 11.4146L102.291 11.6488L101.767 11.9414L101.296 12.2927L100.825 12.5854L100.354 12.9951L99.8825 13.3463L99.4637 13.7561L99.0449 14.2244L98.6785 14.6927L98.312 15.161L97.9456 15.6293L97.6315 16.1561L97.3174 16.6829L97.0033 17.2683L96.7415 17.7951L96.5321 18.3805L96.3227 18.9658L96.1133 19.6097L95.9563 20.2536L95.8516 20.839L95.7469 21.4829L95.6422 22.1854V22.8293L95.5898 23.5317L95.6422 24.1756V24.878L95.7469 25.5219L95.8516 26.1658L95.9563 26.8097L96.1133 27.4536L96.3227 28.039L96.5321 28.6244L96.7415 29.2097L97.0033 29.7951L97.3174 30.3219L97.6315 30.9073L97.9456 31.3756L98.312 31.9024L98.6785 32.3707L99.0449 32.839L99.4637 33.2488L99.8825 33.7171L100.354 34.0683L100.825 34.478L101.296 34.7707L101.767 35.1219L102.291 35.4146L102.814 35.6488L103.338 35.8829L103.913 36.1171L104.437 36.2927L105.013 36.4097L105.589 36.5268L106.217 36.6439L106.793 36.7024H107.421Z" fill="#EC1C2E"/>
<path d="M113.914 15.3951H120.144V14.6927H114.438L113.914 15.3951Z" fill="#FBB231"/>
<path d="M112.973 16.9756H120.145V16.2732H113.339L112.973 16.9756Z" fill="#FBB231"/>
<path d="M112.289 18.6146H120.142V17.8536H112.551L112.289 18.6146Z" fill="#FBB231"/>
<path d="M111.766 20.1951H120.142V19.4341H111.975L111.766 20.1951Z" fill="#FBB231"/>
<path d="M112.08 27.8634H120.195V27.1609H111.871L112.08 27.8634Z" fill="#FBB231"/>
<path d="M112.658 29.4439H120.196V28.7415H112.344L112.658 29.4439Z" fill="#FBB231"/>
<path d="M113.495 31.0244H120.196V30.322H113.129L113.495 31.0244Z" fill="#FBB231"/>
<path d="M114.645 32.6049H120.194V31.9025H114.121L114.645 32.6049Z" fill="#FBB231"/>
<path d="M111.504 21.7756H120.142V21.0732H111.609L111.504 21.7756Z" fill="#FBB231"/>
<path d="M116.793 26.2829H120.091V25.5805H116.898L116.793 26.2829Z" fill="#FBB231"/>
<path d="M117.055 24.7024H120.091V24H117.159L117.055 24.7024Z" fill="#FBB231"/>
<path d="M111.297 24H112.134V24.7024H111.349L111.297 24Z" fill="#FBB231"/>
<path d="M109.675 23.122H109.622L109.57 23.0634H109.518H109.465H109.413H109.36H109.308H109.256L109.203 23.0049H109.151H109.099H108.994H108.942H108.837H108.732L108.628 23.0634H108.523H108.471H108.366L108.314 23.122H108.261L108.209 23.1805L108.156 23.239V23.2976H108.104V23.3561V23.4146V23.4732V23.5317V23.5903L108.156 23.6488L108.209 23.7073L108.261 23.7659L108.366 23.8829L108.471 23.9415H108.575L108.732 24L108.837 24.0585L108.994 24.1171L109.099 24.1756L109.256 24.2342L109.36 24.3512L109.465 24.4683L109.518 24.5854L109.57 24.761L109.622 24.9366V25.1707V25.4634V25.6976L109.57 25.8732L109.465 26.0488L109.413 26.1659L109.308 26.2829L109.203 26.4L109.099 26.5171L108.994 26.5756L108.837 26.6927L108.732 26.7512H108.575L108.471 26.8098H108.314L108.156 26.8683H108.052H107.947H107.738H107.581H107.476H107.319H107.214L107.109 26.8098H107.005H106.9H106.848H106.743L106.691 26.7512H106.586H106.534L106.481 26.6927H106.429L106.324 26.6342L106.534 25.6976H106.586H106.638L106.743 25.7561H106.795H106.9L106.952 25.8146H107.057H107.162H107.267L107.371 25.8732H107.476H107.581H107.738H107.842H107.947H108.052L108.156 25.8146L108.209 25.7561L108.261 25.6976L108.314 25.639L108.366 25.5805V25.522V25.4049L108.418 25.2878L108.366 25.1707L108.314 25.1122L108.209 25.0537L108.052 24.9366L107.947 24.8781L107.79 24.8195L107.633 24.761L107.476 24.7025L107.319 24.5854L107.162 24.4683L107.057 24.3512L106.952 24.1756L106.9 23.9415L106.848 23.7073V23.4146V23.239L106.9 23.122L106.952 22.9464L107.005 22.8293L107.057 22.6537L107.109 22.5366L107.214 22.4195L107.319 22.361L107.424 22.2439L107.528 22.1854L107.685 22.1268L107.842 22.0683H107.999L108.209 22.0098H108.418H108.68H108.837H108.942H109.046H109.203H109.256H109.36H109.465H109.518L109.57 22.0683H109.622H109.675H109.727H109.779H109.832L109.884 22.1268L109.675 23.122Z" fill="white"/>
<path d="M109.675 23.122H109.622L109.57 23.0634H109.518H109.465H109.413H109.36H109.308H109.256L109.203 23.0049H109.151H109.099H108.994H108.942H108.837H108.732L108.628 23.0634H108.523H108.471H108.366L108.314 23.122H108.261L108.209 23.1805L108.156 23.239V23.2976H108.104V23.3561V23.4146V23.4732V23.5317V23.5903L108.156 23.6488L108.209 23.7073L108.261 23.7659L108.366 23.8829L108.471 23.9415H108.575L108.732 24L108.837 24.0585L108.994 24.1171L109.099 24.1756L109.256 24.2342L109.36 24.3512L109.465 24.4683L109.518 24.5854L109.57 24.761L109.622 24.9366V25.1707V25.4634V25.6976L109.57 25.8732L109.465 26.0488L109.413 26.1659L109.308 26.2829L109.203 26.4L109.099 26.5171L108.994 26.5756L108.837 26.6927L108.732 26.7512H108.575L108.471 26.8098H108.314L108.156 26.8683H108.052H107.947H107.738H107.581H107.476H107.319H107.214L107.109 26.8098H107.005H106.9H106.848H106.743L106.691 26.7512H106.586H106.534L106.481 26.6927H106.429L106.324 26.6342L106.534 25.6976H106.586H106.638L106.743 25.7561H106.795H106.9L106.952 25.8146H107.057H107.162H107.267L107.371 25.8732H107.476H107.581H107.738H107.842H107.947H108.052L108.156 25.8146L108.209 25.7561L108.261 25.6976L108.314 25.639L108.366 25.5805V25.522V25.4049L108.418 25.2878L108.366 25.1707L108.314 25.1122L108.209 25.0537L108.052 24.9366L107.947 24.8781L107.79 24.8195L107.633 24.761L107.476 24.7025L107.319 24.5854L107.162 24.4683L107.057 24.3512L106.952 24.1756L106.9 23.9415L106.848 23.7073V23.4146V23.239L106.9 23.122L106.952 22.9464L107.005 22.8293L107.057 22.6537L107.109 22.5366L107.214 22.4195L107.319 22.361L107.424 22.2439L107.528 22.1854L107.685 22.1268L107.842 22.0683H107.999L108.209 22.0098H108.418H108.68H108.837H108.942H109.046H109.203H109.256H109.36H109.465H109.518L109.57 22.0683H109.622H109.675H109.727H109.779H109.832L109.884 22.1268L109.675 23.122Z" stroke="white" stroke-width="0.216" stroke-miterlimit="2.6131"/>
<path d="M110.613 21.0146H111.713L111.556 22.0683H112.236L112.079 23.0634H111.399L110.98 25.522V25.639L111.032 25.6976V25.7561L111.085 25.8146H111.189L111.242 25.8732H111.346H111.451H111.556H111.608H111.66H111.765L111.817 25.8146H111.87L111.713 26.6342L111.66 26.6927H111.608V26.7512H111.556H111.503H111.451L111.399 26.8098H111.346H111.294H111.242H111.189H111.137H111.085H110.77H110.613H110.456H110.352L110.247 26.7512L110.142 26.6927H110.09L109.985 26.6342L109.933 26.5756L109.88 26.5171V26.4V26.3415L109.828 26.2829V26.1659V26.0488L109.88 25.9903V25.8732L110.613 21.0146Z" fill="white"/>
<path d="M110.613 21.0146H111.713L111.556 22.0683H112.236L112.079 23.0634H111.399L110.98 25.522V25.639L111.032 25.6976V25.7561L111.085 25.8146H111.189L111.242 25.8732H111.346H111.451H111.556H111.608H111.66H111.765L111.817 25.8146H111.87L111.713 26.6342L111.66 26.6927H111.608V26.7512H111.556H111.503H111.451L111.399 26.8098H111.346H111.294H111.242H111.189H111.137H111.085H110.77H110.613H110.456H110.352L110.247 26.7512L110.142 26.6927H110.09L109.985 26.6342L109.933 26.5756L109.88 26.5171V26.4V26.3415L109.828 26.2829V26.1659V26.0488L109.88 25.9903V25.8732L110.613 21.0146Z" stroke="white" stroke-width="0.216" stroke-miterlimit="2.6131"/>
<path d="M113.126 24.761L113.074 24.9366V24.9951L113.126 25.1122V25.1707L113.178 25.2293L113.231 25.3464L113.283 25.4049L113.335 25.4634L113.388 25.522L113.44 25.639L113.492 25.6976H113.597L113.649 25.7561L113.754 25.8146H113.806H113.911H114.016L114.121 25.8732H114.225H114.33H114.435H114.539H114.644L114.749 25.8146H114.853L114.958 25.7561H115.063L115.22 25.6976L115.325 25.639L115.429 25.5805L115.534 25.522L115.377 26.5756L115.325 26.6342H115.272L115.168 26.6927H115.115L115.063 26.7512H115.011H114.958L114.853 26.8098H114.801H114.749H114.644H114.539H114.435H114.33H114.225H114.068H113.911H113.702H113.492L113.283 26.7512L113.126 26.6342L112.917 26.5756L112.759 26.4585L112.55 26.3415L112.393 26.1659L112.288 25.9903L112.184 25.8146L112.079 25.5805L111.974 25.2878V24.9951L111.922 24.7024L111.974 24.2927V24.1756L112.027 24V23.8244L112.079 23.6488L112.131 23.4732L112.236 23.239L112.288 23.0634L112.393 22.8878L112.55 22.7122L112.707 22.5366L112.864 22.361L113.074 22.2439L113.283 22.1268L113.545 22.0683L113.859 22.0098H114.173H114.33H114.487L114.644 22.0683H114.801L114.958 22.1268L115.115 22.2439L115.272 22.361L115.377 22.4781L115.534 22.5951L115.639 22.7707L115.691 23.0049L115.743 23.239L115.796 23.4732V23.8244L115.743 24.1171L115.691 24.5268V24.761H112.759L112.969 23.8829H114.696V23.7659V23.7073V23.5903V23.4732L114.644 23.4146V23.3561L114.592 23.2976L114.539 23.239L114.487 23.1805L114.435 23.122L114.382 23.0634H114.33L114.278 23.0049H114.225H114.121L114.068 22.9464L114.016 23.0049H113.911H113.859L113.806 23.0634H113.702L113.649 23.122L113.597 23.1805L113.545 23.239L113.492 23.2976L113.44 23.3561L113.388 23.4146V23.4732L113.335 23.5903L113.283 23.6488V23.7659V23.8244L113.126 24.761Z" stroke="white" stroke-width="0.216" stroke-miterlimit="2.6131"/>
<path d="M122.603 22.361L122.498 22.3025L122.446 22.2439H122.341L122.289 22.1854H122.236L122.184 22.1269H122.079H122.027L121.922 22.0683H121.87H121.765H121.713L121.608 22.0098H121.503H121.399H121.294L121.189 22.0683H121.085H120.98L120.875 22.1269L120.771 22.1854L120.666 22.2439L120.561 22.3025L120.404 22.4195L120.352 22.5366L120.247 22.6537L120.142 22.8293L120.038 23.0049L119.985 23.2391L119.881 23.4732L119.828 23.7659L119.776 23.9415V24.0586V24.2342V24.4098V24.5269L119.828 24.7025V24.8195L119.881 24.9366L119.933 25.0537L120.038 25.1708L120.09 25.2878L120.195 25.4049L120.299 25.4634L120.456 25.522L120.561 25.5805L120.718 25.6391H120.771H120.823H120.928L120.98 25.6976H121.085H121.189H121.242H121.346L121.451 25.6391H121.556L121.661 25.5805H121.765L121.87 25.522L121.975 25.4634L122.027 25.4049L122.132 25.2878L121.922 26.5171L121.87 26.5756L121.818 26.6342H121.765L121.713 26.6927H121.661L121.608 26.7513H121.503L121.399 26.8098H121.294H121.137H120.98H120.823H120.614H120.404H120.195L120.038 26.7513L119.828 26.6927L119.671 26.5756L119.462 26.4586L119.305 26.3415L119.148 26.2244L118.991 26.0488L118.886 25.8147L118.781 25.5805L118.677 25.3464L118.572 25.0537V24.761L118.52 24.4683V24.1171L118.572 23.7659L118.624 23.5903V23.4147L118.677 23.2391L118.729 23.0634L118.781 22.8878L118.834 22.7708L118.886 22.5952L118.938 22.4781L118.991 22.3025L119.043 22.1854L119.095 22.0683L119.2 21.9512L119.252 21.8342L119.357 21.7171L119.409 21.6586L119.514 21.5415L119.619 21.4244L119.671 21.3659L119.776 21.3073L119.881 21.2488L119.985 21.1317L120.09 21.0732H120.195L120.299 21.0147L120.456 20.9561L120.561 20.8976H120.718L120.823 20.8391H120.98H121.085L121.242 20.7805H121.399H121.556L121.661 20.8391H121.765H121.87H122.027L122.132 20.8976H122.236L122.289 20.9561H122.393L122.498 21.0147H122.55L122.603 21.0732H122.655H122.708L122.76 21.1317L122.603 22.361Z" fill="white"/>
<path d="M122.603 22.361L122.498 22.3025L122.446 22.2439H122.341L122.289 22.1854H122.236L122.184 22.1269H122.079H122.027L121.922 22.0683H121.87H121.765H121.713L121.608 22.0098H121.503H121.399H121.294L121.189 22.0683H121.085H120.98L120.875 22.1269L120.771 22.1854L120.666 22.2439L120.561 22.3025L120.404 22.4195L120.352 22.5366L120.247 22.6537L120.142 22.8293L120.038 23.0049L119.985 23.2391L119.881 23.4732L119.828 23.7659L119.776 23.9415V24.0586V24.2342V24.4098V24.5269L119.828 24.7025V24.8195L119.881 24.9366L119.933 25.0537L120.038 25.1708L120.09 25.2878L120.195 25.4049L120.299 25.4634L120.456 25.522L120.561 25.5805L120.718 25.6391H120.771H120.823H120.928L120.98 25.6976H121.085H121.189H121.242H121.346L121.451 25.6391H121.556L121.661 25.5805H121.765L121.87 25.522L121.975 25.4634L122.027 25.4049L122.132 25.2878L121.922 26.5171L121.87 26.5756L121.818 26.6342H121.765L121.713 26.6927H121.661L121.608 26.7513H121.503L121.399 26.8098H121.294H121.137H120.98H120.823H120.614H120.404H120.195L120.038 26.7513L119.828 26.6927L119.671 26.5756L119.462 26.4586L119.305 26.3415L119.148 26.2244L118.991 26.0488L118.886 25.8147L118.781 25.5805L118.677 25.3464L118.572 25.0537V24.761L118.52 24.4683V24.1171L118.572 23.7659L118.624 23.5903V23.4147L118.677 23.2391L118.729 23.0634L118.781 22.8878L118.834 22.7708L118.886 22.5952L118.938 22.4781L118.991 22.3025L119.043 22.1854L119.095 22.0683L119.2 21.9512L119.252 21.8342L119.357 21.7171L119.409 21.6586L119.514 21.5415L119.619 21.4244L119.671 21.3659L119.776 21.3073L119.881 21.2488L119.985 21.1317L120.09 21.0732H120.195L120.299 21.0147L120.456 20.9561L120.561 20.8976H120.718L120.823 20.8391H120.98H121.085L121.242 20.7805H121.399H121.556L121.661 20.8391H121.765H121.87H122.027L122.132 20.8976H122.236L122.289 20.9561H122.393L122.498 21.0147H122.55L122.603 21.0732H122.655H122.708L122.76 21.1317L122.603 22.361Z" stroke="white" stroke-width="0.216" stroke-miterlimit="2.6131"/>
<path d="M132.391 26.8098H131.239L131.344 26.3415V26.2829L131.292 26.4L131.239 26.4586L131.135 26.5171L131.082 26.5756L130.978 26.6342L130.925 26.6927L130.873 26.7512L130.768 26.8098H130.716L130.611 26.8683H130.559H130.454H130.402L130.297 26.9268H130.245H130.14L129.983 26.8683L129.774 26.8098L129.617 26.7512L129.407 26.6342L129.302 26.5171L129.145 26.4L129.041 26.2244L128.936 26.0488L128.884 25.8146L128.831 25.639L128.779 25.4049L128.727 25.1707V24.9366V24.7025V24.4683L128.779 24.2927L128.831 24L128.936 23.7659L128.988 23.5317L129.093 23.2976L129.198 23.122L129.302 22.9464L129.459 22.7707L129.564 22.6537L129.721 22.4781L129.878 22.4195L130.035 22.3025L130.14 22.2439L130.297 22.1268H130.506L130.664 22.0683H130.821H130.925L131.03 22.1268H131.135H131.239L131.344 22.1854L131.396 22.2439L131.501 22.3025H131.553L131.606 22.361L131.658 22.4195L131.711 22.4781L131.763 22.5366L131.815 22.5951L131.868 22.6537V22.7122L131.92 22.7707L132.182 21.0146H133.281L132.391 26.8098Z" fill="white"/>
<path d="M132.391 26.8098H131.239L131.344 26.3415V26.2829L131.292 26.4L131.239 26.4586L131.135 26.5171L131.082 26.5756L130.978 26.6342L130.925 26.6927L130.873 26.7512L130.768 26.8098H130.716L130.611 26.8683H130.559H130.454H130.402L130.297 26.9268H130.245H130.14L129.983 26.8683L129.774 26.8098L129.617 26.7512L129.407 26.6342L129.302 26.5171L129.145 26.4L129.041 26.2244L128.936 26.0488L128.884 25.8146L128.831 25.639L128.779 25.4049L128.727 25.1707V24.9366V24.7025V24.4683L128.779 24.2927L128.831 24L128.936 23.7659L128.988 23.5317L129.093 23.2976L129.198 23.122L129.302 22.9464L129.459 22.7707L129.564 22.6537L129.721 22.4781L129.878 22.4195L130.035 22.3025L130.14 22.2439L130.297 22.1268H130.506L130.664 22.0683H130.821H130.925L131.03 22.1268H131.135H131.239L131.344 22.1854L131.396 22.2439L131.501 22.3025H131.553L131.606 22.361L131.658 22.4195L131.711 22.4781L131.763 22.5366L131.815 22.5951L131.868 22.6537V22.7122L131.92 22.7707L132.182 21.0146H133.281L132.391 26.8098Z" stroke="white" stroke-width="0.216" stroke-miterlimit="2.6131"/>
<path d="M130.56 25.7561H130.665H130.77L130.874 25.6976L130.979 25.639L131.031 25.5805L131.136 25.5219L131.188 25.4634L131.293 25.3463L131.345 25.2878L131.398 25.1707L131.45 25.1122L131.503 24.9951V24.878L131.555 24.761L131.607 24.6439V24.5268V24.4098L131.66 24.2341V24.1171L131.607 24V23.8829V23.7658L131.555 23.7073V23.5902L131.503 23.4732L131.45 23.4146L131.398 23.3561L131.345 23.2976L131.293 23.239L131.188 23.1805H131.136L131.031 23.1219L130.927 23.1805H130.822L130.77 23.239H130.665L130.56 23.2976L130.508 23.4146L130.456 23.4732L130.351 23.5317L130.298 23.6488L130.246 23.7658L130.194 23.8244L130.141 23.9415L130.089 24.0585V24.2341L130.037 24.3512V24.4683L129.984 24.6439L130.037 24.878V25.1122L130.089 25.2878L130.194 25.4634L130.298 25.639L130.403 25.7561H130.56Z" fill="#FBB231"/>
<path d="M106.167 25.8732L106.01 26.8098H105.015V26.6342L105.067 26.5171V26.3415V26.2829L105.015 26.4L104.963 26.4585L104.91 26.5171L104.806 26.5756L104.701 26.6342L104.596 26.6927L104.492 26.7512L104.387 26.8098H104.282L104.178 26.8683H104.073L103.916 26.9268H103.811H103.706H103.602L103.497 26.8683H103.34L103.235 26.8098L103.131 26.7512L103.026 26.6927L102.921 26.5756L102.869 26.5171L102.764 26.4585L102.712 26.3415L102.659 26.2829V26.1659L102.607 26.0488V25.9903L102.555 25.8732V25.7561V25.639V25.5805V25.4049L102.607 25.2293V25.0537L102.659 24.9366L102.712 24.761L102.816 24.6439L102.869 24.5268L102.973 24.4098L103.078 24.2927L103.183 24.2342L103.288 24.1171L103.445 24.0585L103.549 24L103.706 23.9415L103.811 23.8829H103.968H104.02H104.073H104.125H104.178L104.23 23.8244H104.282H104.387H104.439H104.492H104.544H104.649H104.701L104.753 23.7659H104.806H104.858L104.963 23.8244H105.067H105.172H105.225H105.277H105.329V23.7659L105.382 23.7073V23.5903V23.5317V23.4146L105.329 23.3561L105.277 23.239L105.225 23.1805L105.172 23.122H105.067L104.963 23.0634H104.858H104.753H104.649H104.492H104.387H104.23H104.125H104.02L103.863 23.122H103.759H103.654L103.549 23.1805H103.445L103.34 23.239H103.288L103.235 23.2976H103.183L103.445 22.2439L103.549 22.1854H103.654L103.759 22.1268H103.811L103.916 22.0683H104.02H104.125H104.23L104.335 22.0098H104.492H104.596H104.701H104.858H104.963H105.12H105.225L105.382 22.0683H105.486H105.591L105.748 22.1268L105.853 22.1854L105.957 22.2439L106.114 22.3024L106.219 22.4195L106.324 22.4781L106.376 22.5951L106.481 22.7122L106.533 22.8878L106.586 23.0049V23.1805V23.3561V23.5317L106.167 25.8732Z" fill="white"/>
<path d="M106.167 25.8732L106.01 26.8098H105.015V26.6342L105.067 26.5171V26.3415V26.2829L105.015 26.4L104.963 26.4585L104.91 26.5171L104.806 26.5756L104.701 26.6342L104.596 26.6927L104.492 26.7512L104.387 26.8098H104.282L104.178 26.8683H104.073L103.916 26.9268H103.811H103.706H103.602L103.497 26.8683H103.34L103.235 26.8098L103.131 26.7512L103.026 26.6927L102.921 26.5756L102.869 26.5171L102.764 26.4585L102.712 26.3415L102.659 26.2829V26.1659L102.607 26.0488V25.9903L102.555 25.8732V25.7561V25.639V25.5805V25.4049L102.607 25.2293V25.0537L102.659 24.9366L102.712 24.761L102.816 24.6439L102.869 24.5268L102.973 24.4098L103.078 24.2927L103.183 24.2342L103.288 24.1171L103.445 24.0585L103.549 24L103.706 23.9415L103.811 23.8829H103.968H104.02H104.073H104.125H104.178L104.23 23.8244H104.282H104.387H104.439H104.492H104.544H104.649H104.701L104.753 23.7659H104.806H104.858L104.963 23.8244H105.067H105.172H105.225H105.277H105.329V23.7659L105.382 23.7073V23.5903V23.5317V23.4146L105.329 23.3561L105.277 23.239L105.225 23.1805L105.172 23.122H105.067L104.963 23.0634H104.858H104.753H104.649H104.492H104.387H104.23H104.125H104.02L103.863 23.122H103.759H103.654L103.549 23.1805H103.445L103.34 23.239H103.288L103.235 23.2976H103.183L103.445 22.2439L103.549 22.1854H103.654L103.759 22.1268H103.811L103.916 22.0683H104.02H104.125H104.23L104.335 22.0098H104.492H104.596H104.701H104.858H104.963H105.12H105.225L105.382 22.0683H105.486H105.591L105.748 22.1268L105.853 22.1854L105.957 22.2439L106.114 22.3024L106.219 22.4195L106.324 22.4781L106.376 22.5951L106.481 22.7122L106.533 22.8878L106.586 23.0049V23.1805V23.3561V23.5317L106.167 25.8732Z" stroke="white" stroke-width="0.216" stroke-miterlimit="2.6131"/>
<path d="M105.224 24.7025L105.171 24.6439H105.119H105.067L105.014 24.5854H104.962H104.91L104.857 24.6439H104.752H104.7H104.648H104.595H104.543L104.491 24.7025H104.438H104.386L104.334 24.761H104.281H104.229L104.177 24.8195H104.124L104.072 24.8781L104.02 24.9366L103.967 24.9951H103.915L103.863 25.0537V25.1122L103.81 25.1708V25.2878V25.3464L103.758 25.4634L103.81 25.5805L103.863 25.6976L103.915 25.7561L103.967 25.8147H104.02L104.072 25.8732H104.124H104.281L104.386 25.8147H104.491H104.543L104.648 25.7561L104.7 25.6976H104.805L104.857 25.639L104.91 25.5805L104.962 25.522L105.014 25.4634V25.4049H105.067V25.3464V25.2878L105.119 25.2293V25.1122L105.171 24.9366V24.8195L105.224 24.7025Z" fill="#EC1C2E"/>
<path d="M97.7892 26.8098H96.7422L97.6321 21.0146H99.5167L99.6738 24.4683L100.983 21.0146H102.919L102.03 26.8098H100.93L101.611 22.4781H101.558L99.9879 26.8098H98.7315V26.6342V26.1659L98.6791 25.4634L98.6268 24.7025L98.5744 23.8829V23.1805L98.5221 22.7122V22.4781H98.4697L97.7892 26.8098Z" fill="white"/>
<path d="M97.7892 26.8098H96.7422L97.6321 21.0146H99.5167L99.6738 24.4683L100.983 21.0146H102.919L102.03 26.8098H100.93L101.611 22.4781H101.558L99.9879 26.8098H98.7315V26.6342V26.1659L98.6791 25.4634L98.6268 24.7025L98.5744 23.8829V23.1805L98.5221 22.7122V22.4781H98.4697L97.7892 26.8098Z" stroke="white" stroke-width="0.216" stroke-miterlimit="2.6131"/>
<path d="M125.901 25.8732L125.744 26.8098H124.749V26.6342V26.5171V26.4V26.3415L124.697 26.4L124.645 26.4585L124.54 26.5171L124.488 26.5756L124.383 26.6342L124.331 26.6927L124.226 26.7512L124.121 26.8098H124.017L123.912 26.8683H123.755L123.65 26.9268H123.545H123.441H123.336L123.231 26.8683H123.074L122.97 26.8098L122.865 26.7512L122.76 26.6927L122.656 26.5756L122.551 26.5171L122.498 26.4585L122.446 26.3415L122.394 26.2829V26.1659L122.341 26.0488V25.9903L122.289 25.8732V25.7561V25.639V25.5805V25.4049L122.341 25.2293V25.0537L122.394 24.9366L122.446 24.761L122.551 24.6439L122.603 24.5268L122.708 24.4098L122.813 24.2927L122.917 24.2342L123.022 24.1171L123.179 24.0585L123.284 24L123.441 23.9415L123.545 23.8829H123.703H123.755H123.807H123.912L123.964 23.8244H124.017H124.069H124.174H124.226H124.278H124.331H124.383L124.435 23.7659H124.488H124.592L124.697 23.8244H124.802H124.854H124.959H125.011H125.064V23.7659V23.7073L125.116 23.5903V23.5317L125.064 23.4146V23.3561L125.011 23.239L124.959 23.1805L124.854 23.122H124.802L124.697 23.0634H124.592H124.488H124.383H124.278H124.121H124.017H123.86H123.755L123.598 23.122H123.493H123.388L123.284 23.1805H123.179L123.074 23.239H123.022L122.97 23.2976H122.917L123.179 22.2439L123.284 22.1854H123.388L123.493 22.1268H123.545L123.65 22.0683H123.755H123.86H123.964L124.069 22.0098H124.226H124.331H124.435H124.592H124.697H124.854H124.959L125.064 22.0683H125.221H125.325L125.43 22.1268L125.587 22.1854L125.692 22.2439L125.796 22.3024L125.901 22.4195L126.006 22.4781L126.111 22.5951L126.215 22.7122L126.268 22.8878L126.32 23.0049V23.1805V23.3561V23.5317L125.901 25.8732Z" fill="white"/>
<path d="M125.744 26.8683L125.901 25.8732H125.848L125.691 26.8098H125.744V26.8683Z" fill="white"/>
<path d="M124.748 26.8683H125.742V26.8098H124.748H124.695V26.8683H124.748Z" fill="white"/>
<path d="M124.747 26.3415V26.283L124.695 26.4V26.5171V26.6342V26.8098H124.747V26.6342V26.5171V26.3415Z" fill="white"/>
<path d="M123.23 26.9269H123.335H123.44H123.545H123.649H123.754L123.911 26.8683H124.016L124.12 26.8098L124.225 26.7513L124.33 26.6927H124.435L124.487 26.5756L124.592 26.5171L124.644 26.4586L124.696 26.4L124.749 26.3415V26.283L124.696 26.4L124.592 26.4586L124.539 26.5171L124.487 26.5756L124.382 26.6342L124.277 26.6927H124.173L124.12 26.7513L124.016 26.8098H123.859L123.754 26.8683H123.649H123.545H123.44H123.335H123.23V26.9269Z" fill="white"/>
<path d="M122.238 25.5805L122.291 25.7561V25.8732V25.9903L122.343 26.0488V26.1659L122.395 26.2829L122.448 26.3415L122.5 26.4586L122.552 26.5171L122.657 26.6342L122.709 26.6927L122.814 26.7512L122.971 26.8098L123.076 26.8683L123.233 26.9268V26.8683L123.076 26.8098L122.971 26.7512L122.866 26.6927L122.762 26.6342L122.657 26.5756L122.605 26.5171L122.552 26.4L122.5 26.3415L122.448 26.2244L122.395 26.1659L122.343 26.0488V25.9317V25.8732V25.7561L122.291 25.639L122.238 25.5805Z" fill="white"/>
<path d="M123.704 23.8829H123.547L123.39 23.9415L123.285 24L123.128 24.0585L123.024 24.1171L122.919 24.1756L122.814 24.2927L122.709 24.4098L122.605 24.5268L122.5 24.6439L122.448 24.761L122.395 24.9366L122.343 25.0537L122.291 25.2293V25.4049L122.238 25.5805H122.291L122.343 25.4049V25.2293L122.395 25.0537L122.448 24.9366L122.5 24.761L122.552 24.6439L122.657 24.5268L122.709 24.4098L122.814 24.3512L122.919 24.2342L123.076 24.1756L123.181 24.0585L123.285 24H123.442L123.547 23.9415L123.704 23.8829Z" fill="white"/>
<path d="M124.488 23.7659H124.384H124.331H124.279H124.227H124.174L124.07 23.8244H124.017H123.965H123.913H123.808H123.755H123.703V23.8829H123.755H123.808H123.913H123.965H124.017H124.07L124.174 23.8244H124.227H124.279H124.331H124.384L124.488 23.7659Z" fill="white"/>
<path d="M125.064 23.8244L124.959 23.7659H124.855H124.802H124.698H124.593H124.488V23.8244H124.593H124.698H124.802H124.855H124.959H125.064Z" fill="white"/>
<path d="M125.062 23.5317V23.7073V23.7659V23.8244L125.114 23.7659V23.7073L125.062 23.5317Z" fill="white"/>
<path d="M124.594 23.0634L124.698 23.122H124.803L124.855 23.1805L124.908 23.239L124.96 23.2976L125.013 23.3561L125.065 23.4146V23.5317H125.117V23.4146L125.065 23.3561L125.013 23.239L124.96 23.1805L124.908 23.122L124.803 23.0634H124.698H124.594Z" fill="white"/>
<path d="M122.918 23.2976H123.023L123.075 23.239H123.18L123.284 23.1805H123.389H123.494L123.599 23.122H123.756H123.86L124.017 23.0634H124.122H124.279H124.384H124.488H124.593L124.488 23.0049H124.384H124.279H124.122L124.017 23.0634H123.86H123.756H123.599L123.494 23.122H123.389H123.284L123.18 23.1805H123.075L123.023 23.239H122.97L122.918 23.2976Z" fill="white"/>
<path d="M123.18 22.1854V22.2439L122.918 23.2976H122.97L123.232 22.2439L123.18 22.1854Z" fill="white"/>
<path d="M124.96 22.0098H124.855H124.698H124.593H124.436H124.331H124.227H124.07H123.965H123.86L123.756 22.0683H123.651H123.546L123.494 22.1268H123.389L123.284 22.1854H123.18L123.232 22.2439H123.284L123.389 22.1854L123.494 22.1268H123.598H123.651L123.756 22.0683H123.86H123.965H124.07H124.227H124.331H124.436H124.593H124.698H124.855L124.96 22.0098Z" fill="white"/>
<path d="M126.318 23.5317L126.37 23.3561V23.1805L126.318 23.0049L126.266 22.8293L126.213 22.7122L126.109 22.5951L126.056 22.4781L125.952 22.361L125.847 22.3024L125.69 22.2439L125.585 22.1854L125.428 22.1268L125.323 22.0683L125.219 22.0098H125.062H124.957V22.0683H125.062H125.166L125.323 22.1268L125.428 22.1854H125.533L125.69 22.3024L125.795 22.361L125.899 22.4195L126.004 22.5366L126.109 22.6537L126.161 22.7707L126.213 22.8878L126.266 23.0049L126.318 23.1805V23.3561L126.266 23.4732L126.318 23.5317Z" fill="white"/>
<path d="M125.902 25.8731L126.321 23.5317L126.269 23.4731L125.902 25.8731Z" fill="white"/>
<path d="M124.908 24.7025L124.856 24.6439L124.803 24.5854H124.751H124.699H124.594L124.542 24.6439H124.489H124.437H124.384H124.332H124.28L124.227 24.7025H124.175H124.123H124.07L124.018 24.761H123.966L123.913 24.8195H123.861L123.809 24.8781H123.756L123.704 24.9366L123.652 24.9951V25.0537L123.599 25.1122L123.547 25.1708V25.2878V25.3464V25.4634V25.5805L123.599 25.6976V25.7561L123.704 25.8147H123.756L123.809 25.8732H123.861H124.018L124.123 25.8147H124.227L124.332 25.7561H124.384L124.489 25.6976L124.542 25.639L124.594 25.5805H124.646L124.699 25.522L124.751 25.4634L124.803 25.4049V25.3464L124.856 25.2878V25.2293V25.1708V25.0537L124.908 24.9366V24.8195V24.7025Z" fill="#FBB231"/>
<path d="M133.125 26.2244V26.1073V25.9903L133.23 25.8732L133.282 25.8146L133.334 25.7561L133.439 25.6976L133.544 25.639H133.648H133.753L133.858 25.6976L133.963 25.7561L134.067 25.8146L134.12 25.8732L134.172 25.9903L134.224 26.1073V26.2244H134.12V26.1659L134.067 26.0488L134.015 25.9903L133.963 25.8732L133.91 25.8146L133.858 25.7561H133.753H133.648H133.596H133.491L133.387 25.8146L133.334 25.8732L133.282 25.9903V26.0488L133.23 26.1659V26.2244H133.125Z" fill="white"/>
<path d="M133.492 26.2244V25.9902H133.702H133.754H133.806H133.859V26.0488V26.1073H133.911L133.859 26.1658V26.2244H133.702H133.754L133.806 26.1658V26.1073V26.0488H133.754H133.702H133.545V26.2244H133.492Z" fill="white"/>
<path d="M133.125 26.2244V26.4V26.517L133.23 26.6341L133.282 26.6927L133.334 26.7512L133.439 26.8097L133.544 26.8683H133.648H133.753L133.858 26.8097L133.963 26.7512L134.067 26.6927L134.12 26.6341L134.172 26.517L134.224 26.4V26.2829V26.2244H134.12V26.2829V26.3414L134.067 26.4585L134.015 26.517L133.963 26.6341L133.91 26.6927L133.858 26.7512H133.753H133.648H133.596H133.491L133.387 26.6927L133.334 26.6341L133.282 26.517V26.4585L133.23 26.3414V26.2829V26.2244H133.125Z" fill="white"/>
<path d="M133.492 26.2244V26.517H133.545V26.2829H133.649L133.806 26.517H133.859L133.754 26.2829H133.806L133.859 26.2244H133.702H133.649H133.545H133.492Z" fill="white"/>
<path d="M133.648 26.2244L133.701 26.1659M133.648 26.2244L133.596 26.3415H133.648V26.2244ZM133.648 26.2244L133.753 26.4586H133.858L133.753 26.2244H133.806H133.858V26.1659V26.1073V26.0488V25.9903H133.806H133.753H133.701H133.648H133.439V26.5171H133.544V26.2244H133.648ZM133.387 25.7561L133.282 25.8146L133.23 25.9317L133.177 26.0488L133.125 26.1659V26.2829V26.4L133.177 26.5171L133.23 26.6342L133.282 26.7512L133.387 26.8098L133.491 26.8683L133.596 26.9268H133.701H133.806L133.91 26.8683L134.015 26.8098L134.12 26.7512L134.172 26.6342L134.224 26.5171L134.277 26.4V26.2829V26.1659L134.224 26.0488L134.172 25.9317L134.12 25.8146L134.015 25.7561L133.91 25.6976L133.806 25.639H133.701H133.596L133.491 25.6976L133.387 25.7561ZM133.387 25.7561L133.439 25.6976L133.544 25.639H133.648H133.753L133.858 25.6976L133.91 25.7561L133.963 25.8146L134.015 25.8732L134.067 25.9903V26.1073V26.2244V26.3415V26.4586L134.015 26.5171L133.963 26.5756L133.91 26.6342L133.858 26.6927L133.753 26.7512H133.648H133.544L133.439 26.6927L133.387 26.6342L133.334 26.5756L133.282 26.5171L133.23 26.4586V26.3415V26.2244V26.1073V25.9903L133.282 25.8732L133.334 25.8146L133.387 25.7561Z" stroke="white" stroke-width="0.216" stroke-miterlimit="2.6131"/>
<path d="M126.164 26.8098H127.316L127.682 24.2927L127.735 24.2342V24.1171L127.787 24V23.9415L127.839 23.8244L127.892 23.7073L127.944 23.6488L127.996 23.5317L128.101 23.4732L128.153 23.4146L128.258 23.3561L128.363 23.2976L128.467 23.239L128.572 23.1805H128.729H128.886H128.939H128.991L129.148 22.0098L129.043 22.0683H128.939H128.834L128.729 22.1268H128.677L128.572 22.1854L128.52 22.2439L128.415 22.3024L128.363 22.361L128.31 22.4195L128.206 22.4781L128.153 22.5366L128.101 22.6537L128.049 22.7122L127.996 22.7707L127.944 22.8878L128.049 22.0683H126.949L126.164 26.8098Z" fill="white"/>
<path d="M126.164 26.8098H127.316L127.682 24.2927L127.735 24.2342V24.1171L127.787 24V23.9415L127.839 23.8244L127.892 23.7073L127.944 23.6488L127.996 23.5317L128.101 23.4732L128.153 23.4146L128.258 23.3561L128.363 23.2976L128.467 23.239L128.572 23.1805H128.729H128.886H128.939H128.991L129.148 22.0098L129.043 22.0683H128.939H128.834L128.729 22.1268H128.677L128.572 22.1854L128.52 22.2439L128.415 22.3024L128.363 22.361L128.31 22.4195L128.206 22.4781L128.153 22.5366L128.101 22.6537L128.049 22.7122L127.996 22.7707L127.944 22.8878L128.049 22.0683H126.949L126.164 26.8098Z" stroke="white" stroke-width="0.216" stroke-miterlimit="2.6131"/>
<path d="M115.641 26.8098H116.792L117.159 24.2927L117.211 24.2342V24.1171L117.263 24V23.9415L117.316 23.8244V23.7659L117.368 23.7073L117.421 23.5903L117.525 23.5317L117.578 23.4732L117.682 23.4146L117.735 23.3561H117.892L117.996 23.2976H118.153L118.31 23.239V23.2976H118.363H118.415V23.239V23.122L118.468 23.0634V22.9464L118.52 22.7707L118.572 22.6537V22.5366L118.625 22.4781L118.677 22.361V22.3024L118.729 22.2439L118.782 22.1268L118.834 22.0683H118.782H118.729L118.677 22.0098H118.625L118.52 22.0683H118.415H118.31L118.206 22.1268H118.101L118.049 22.1854L117.944 22.2439L117.892 22.3024L117.839 22.361L117.735 22.4195L117.682 22.4781L117.63 22.5366L117.578 22.5951L117.525 22.7122L117.473 22.7707L117.421 22.8878L117.525 22.0683H116.426L115.641 26.8098Z" fill="white"/>
<path d="M115.641 26.8098H116.792L117.159 24.2927L117.211 24.2342V24.1171L117.263 24V23.9415L117.316 23.8244V23.7659L117.368 23.7073L117.421 23.5903L117.525 23.5317L117.578 23.4732L117.682 23.4146L117.735 23.3561H117.892L117.996 23.2976H118.153L118.31 23.239V23.2976H118.363H118.415V23.239V23.122L118.468 23.0634V22.9464L118.52 22.7707L118.572 22.6537V22.5366L118.625 22.4781L118.677 22.361V22.3024L118.729 22.2439L118.782 22.1268L118.834 22.0683H118.782H118.729L118.677 22.0098H118.625L118.52 22.0683H118.415H118.31L118.206 22.1268H118.101L118.049 22.1854L117.944 22.2439L117.892 22.3024L117.839 22.361L117.735 22.4195L117.682 22.4781L117.63 22.5366L117.578 22.5951L117.525 22.7122L117.473 22.7707L117.421 22.8878L117.525 22.0683H116.426L115.641 26.8098Z" stroke="white" stroke-width="0.216" stroke-miterlimit="2.6131"/>
<path d="M133.125 31.4927V31.3756L133.23 31.2586L133.282 31.2L133.334 31.1415L133.439 31.0829L133.544 31.0244H133.648H133.753L133.858 31.0829L133.963 31.1415L134.067 31.2L134.12 31.2586L134.172 31.3756L134.224 31.4927H134.12L134.067 31.4342L134.015 31.3171L133.963 31.2586L133.91 31.2L133.858 31.1415H133.753L133.648 31.0829L133.596 31.1415H133.491L133.387 31.2L133.334 31.2586L133.282 31.3171V31.4342L133.23 31.4927H133.125Z" fill="#FBB231"/>
<path d="M133.492 31.4927V31.3756H133.702H133.754H133.806H133.859V31.4341V31.4927H133.911H133.806V31.4341H133.754H133.702H133.545V31.4927H133.492Z" fill="#FBB231"/>
<path d="M133.125 31.6097V31.4927H133.23V31.6097H133.125Z" fill="#FBB231"/>
<path d="M133.492 31.6097V31.4927H133.545V31.6097H133.649H133.702H133.754V31.5512H133.806V31.4927H133.911L133.859 31.5512V31.6097H133.492Z" fill="#FBB231"/>
<path d="M134.121 31.6097V31.4927H134.226V31.6097H134.121Z" fill="#FBB231"/>
<path d="M133.125 31.6097V31.7268V31.8439L133.23 31.961L133.282 32.078L133.334 32.1366L133.439 32.1951L133.544 32.2536H133.648H133.753L133.858 32.1951L133.963 32.1366L134.067 32.078L134.12 31.961L134.172 31.8439L134.224 31.7268V31.6097H134.12V31.7268L134.067 31.8439L134.015 31.9024L133.963 31.961L133.91 32.078H133.858L133.753 32.1366H133.648H133.596L133.491 32.078H133.387L133.334 31.961L133.282 31.9024V31.8439L133.23 31.7268V31.6097H133.125Z" fill="#FBB231"/>
<path d="M133.492 31.6097V31.8439H133.545V31.6683H133.649L133.806 31.8439H133.859L133.754 31.6683L133.806 31.6097H133.859H133.492Z" fill="#FBB231"/>
<path d="M115.799 23.4732L115.747 23.1805L115.694 22.9464L115.589 22.7707L115.485 22.5951L115.38 22.4195L115.275 22.3025L115.118 22.1854L114.961 22.1268L114.804 22.0683L114.647 22.0098L114.49 21.9512H114.333H114.176H113.862L113.6 22.0098L113.338 22.0683L113.129 22.1854L112.92 22.3025L112.763 22.4781L112.606 22.6537L112.501 22.8293L112.396 23.0049L112.291 23.1805L112.239 23.3561L112.187 23.5317L112.134 23.7073L112.082 23.8829V24.0585V24.1756V24.5268V24.8781L112.134 25.1707L112.187 25.4049L112.291 25.639L112.396 25.8146L112.553 25.9903L112.71 26.1659L112.867 26.2829L113.024 26.4L113.234 26.4586L113.443 26.5171L113.653 26.5756L113.862 26.6342H114.071H114.281H114.385H114.49H114.595H114.7H114.804H114.909H115.014H115.066H115.118H115.171H115.223H115.275H115.328H115.38L115.432 26.5756L115.485 26.5171L115.642 25.4049L115.537 25.4634L115.432 25.522L115.328 25.5805L115.223 25.639L115.118 25.6976H115.014H114.909H114.804H114.7H114.595H114.49H114.385H114.281H114.176H114.071H113.967H113.862L113.757 25.639L113.653 25.5805L113.6 25.522L113.548 25.4634L113.495 25.4049L113.443 25.3464L113.391 25.2878L113.338 25.2293L113.286 25.1707L113.234 25.1122L113.181 25.0537V24.9951V24.9366V24.8781V24.8195H115.747V24.5268L115.799 24.1756L115.851 23.8244L115.799 23.4732ZM114.7 23.8829H113.234V23.8244V23.7073V23.5903L113.286 23.4732L113.338 23.4146L113.391 23.3561L113.443 23.2976L113.495 23.239L113.548 23.1805L113.6 23.122L113.653 23.0634L113.705 23.0049L113.757 22.9464H113.81H113.862H113.914H113.967H114.019H114.071H114.124H114.176L114.228 23.0049L114.281 23.0634L114.333 23.122L114.385 23.1805L114.438 23.239L114.49 23.2976L114.542 23.3561L114.595 23.4146V23.5317V23.6488V23.7659L114.7 23.8829Z" fill="white"/>
<path d="M395.765 44.0195C395.765 45.3659 394.771 46.4781 393.567 46.4781H332.265C331.061 46.4781 330.066 45.3659 330.066 44.0195V3.04392C330.066 1.69758 331.061 0.585388 332.265 0.585388H393.567C394.771 0.585388 395.765 1.69758 395.765 3.04392V44.0195Z" fill="#E1E7EA"/>
<path d="M396.164 39.6696C396.164 43.5087 393.355 46.6497 389.921 46.6497H350.906C350.906 46.6497 387.736 40.0186 396.164 20.4741V39.6696ZM360.27 20.4741C360.27 23.4407 362.299 25.7093 364.952 25.7093C367.605 25.7093 369.633 23.4407 369.633 20.4741C369.633 17.5075 367.605 15.239 364.952 15.239C362.299 15.239 360.27 17.5075 360.27 20.4741Z" fill="#FF6D00"/>
<path d="M343.416 15.239H345.133V25.7093H343.416V15.239ZM352.779 20.4741C352.779 23.4407 354.808 25.7093 357.461 25.7093C358.241 25.7093 358.865 25.5348 359.646 25.1857V22.9172C359.021 23.6152 358.397 23.9642 357.461 23.9642C355.744 23.9642 354.496 22.5682 354.496 20.4741C354.496 18.5546 355.744 16.984 357.461 16.984C358.241 16.984 358.865 17.333 359.646 18.0311V15.7625C358.865 15.4135 358.241 15.0645 357.461 15.0645C354.808 15.239 352.779 17.6821 352.779 20.4741ZM373.691 22.0447L371.194 15.239H369.322L373.223 25.7093H374.159L378.061 15.239H376.189L373.691 22.0447ZM378.842 25.7093H383.835V23.9642H380.558V21.1722H383.679V19.4271H380.558V16.984H383.835V15.239H378.842V25.7093ZM390.702 18.3801C390.702 16.4606 389.609 15.239 387.581 15.239H384.928V25.7093H386.644V21.5212H386.8L389.297 25.7093H391.482L388.673 21.3467C389.921 20.9977 390.702 19.9506 390.702 18.3801ZM387.112 20.1251H386.644V16.984H387.112C388.205 16.984 388.829 17.5075 388.829 18.5546C388.829 19.4271 388.361 20.1251 387.112 20.1251ZM337.953 15.239H335.301V25.7093H337.797C341.699 25.7093 342.635 22.0447 342.635 20.4741C342.791 17.333 340.762 15.239 337.953 15.239ZM337.485 23.9642H337.017V16.984H337.641C339.982 16.984 340.919 18.7291 340.919 20.4741C340.919 21.1722 340.762 23.9642 337.485 23.9642ZM349.814 19.2526C348.722 18.7291 348.41 18.5546 348.41 18.0311C348.41 17.333 349.034 16.984 349.658 16.984C350.126 16.984 350.594 17.1585 351.063 17.8566L351.999 16.4606C351.219 15.588 350.438 15.239 349.346 15.239C347.785 15.239 346.537 16.4606 346.537 18.2056C346.537 19.6016 347.161 20.2996 348.722 20.9977C349.658 21.3467 350.438 21.6957 350.438 22.5682C350.438 23.4407 349.814 23.9642 349.034 23.9642C348.254 23.9642 347.473 23.4407 347.161 22.5682L346.069 23.7897C346.849 25.1857 347.785 25.7093 349.19 25.7093C351.063 25.7093 352.311 24.3132 352.311 22.3937C352.311 20.8232 351.687 20.1251 349.814 19.2526Z" fill="black"/>
<mask id="mask0_298_1629" style="mask-type:luminance" maskUnits="userSpaceOnUse" x="412" y="0" width="67" height="47">
<path d="M478.879 0.585388H412.918V46.8293H478.879V0.585388Z" fill="white"/>
</mask>
<g mask="url(#mask0_298_1629)">
<path d="M479 44.0195C479 45.3659 478.005 46.4781 476.801 46.4781H415.499C414.295 46.4781 413.301 45.3659 413.301 44.0195V3.04392C413.301 1.69758 414.295 0.585388 415.499 0.585388H476.801C478.005 0.585388 479 1.69758 479 3.04392V44.0195Z" fill="#1976D2"/>
<path d="M443.039 16.8989L439.734 25.0901L436.444 16.8989H432.228V28.6636L427.531 16.8989H423.974L419.176 29.1096H422.015L423.065 26.3845H428.433L429.5 29.1096H434.92V20.0404L438.516 29.1096H440.962L444.639 20.1978V29.1096H447.333V16.8989H443.039ZM424.08 23.7468L425.685 19.4789L427.352 23.7468H424.08ZM467.485 22.8687L472.361 16.9304H468.893L465.774 20.7156L462.756 16.8989H452.025V29.1114H462.404L465.676 25.0691L468.868 29.1428H472.325L467.485 22.8687ZM460.985 26.5472H454.711V24.1316H460.715V21.8175H454.711V19.5296L461.334 19.5506L463.982 22.8687L460.985 26.5472Z" fill="white"/>
</g>
</svg>
