<svg width="249" height="167" viewBox="0 0 249 167" fill="none" xmlns="http://www.w3.org/2000/svg">
<mask id="mask0_139_346" style="mask-type:luminance" maskUnits="userSpaceOnUse" x="0" y="0" width="258" height="167">
<path d="M246.533 166.448H11.4666C5.13378 166.448 0 161.329 0 155.014V12.0864C0 5.7715 5.13378 0.652237 11.4666 0.652237H246.533C252.866 0.652237 258 5.7715 258 12.0864V155.014C258 161.329 252.866 166.448 246.533 166.448Z" fill="white"/>
</mask>
<g mask="url(#mask0_139_346)">
<path d="M216.805 112.884L190.957 107.17L185.606 38.0842L228.652 105.38L216.805 112.884Z" fill="#C0DBFF"/>
<path d="M240.505 97.8749L246.244 72.1553L185.609 38.084L228.656 105.379L240.505 97.8749Z" fill="#2D81F7"/>
<path d="M228.654 105.377L212.86 115.38L220.402 127.171L236.196 117.167L228.654 105.377Z" fill="#C0DBFF"/>
<path d="M244.446 95.3727L228.654 105.376L236.195 117.166L251.989 107.164L244.446 95.3727Z" fill="#2D81F7"/>
<path d="M219.855 91.6306C222.309 90.0767 223.032 86.8378 221.471 84.3963C219.908 81.9548 216.653 81.2351 214.2 82.7891C211.747 84.3429 211.024 87.5818 212.585 90.0235C214.147 92.465 217.401 93.1845 219.855 91.6306Z" fill="#FDF7EA"/>
<path d="M250.031 108.683L222.219 126.297L253.796 175.661L281.607 158.047L250.031 108.683Z" fill="#C0DBFF"/>
<path d="M237.15 196.399L195.812 225.611L175.779 197.543C162.294 178.648 169.868 150.25 192.698 134.117L237.15 196.399Z" fill="#FFCDCD"/>
<path d="M249.774 332.903L116.409 131.719L59.4287 169.119L192.794 370.302L249.774 332.903Z" fill="#FFEED7"/>
<path d="M219.332 336.284L85.9663 135.1L59.4277 152.52L192.793 353.703L219.332 336.284Z" fill="#FFAD3B"/>
<path d="M59.1973 93.033L116.016 115.378L59.4266 152.522L59.1973 93.033Z" fill="#FFAD3B"/>
<path d="M59.1973 93.0305L116.016 115.376L85.9652 135.1L59.1973 93.0305Z" fill="#FFEED7"/>
<g style="mix-blend-mode:color-burn">
<g style="mix-blend-mode:color-burn">
<path d="M59.1994 93.0309L73.5661 98.6501L59.126 108.128L59.1994 93.0309Z" fill="#3C4852"/>
</g>
</g>
<g style="mix-blend-mode:soft-light">
<g style="mix-blend-mode:soft-light">
<path d="M123.221 154.122C129.477 163.559 126.861 176.257 117.377 182.482C107.893 188.707 95.1333 186.102 88.8769 176.664C82.6204 167.227 85.2368 154.529 94.7206 148.304C104.205 142.08 116.964 144.684 123.221 154.122Z" fill="white"/>
</g>
</g>
<path d="M167.133 125.458L126.006 70.9771L130.983 67.2571L172.11 121.737L167.133 125.458Z" fill="#2D81F7"/>
<path d="M127.11 72.4368L118.62 78.7823C126.057 86.366 134.894 92.449 144.648 96.6967L145.804 97.2003L127.11 72.4368Z" fill="#FFDBA9"/>
<path d="M166.476 124.585L157.985 130.931C152.736 121.711 149.328 111.571 147.945 101.067L147.781 99.8215L166.476 124.585Z" fill="#FFDBA9"/>
<path d="M154.881 92.237C156.461 94.3287 156.037 97.2981 153.935 98.8693L148.216 91.2945C150.319 89.7233 153.303 90.1452 154.881 92.237Z" fill="#2D81F7"/>
<path d="M23.8823 143.979C31.937 143.979 38.4666 150.476 38.4666 158.491C38.4666 166.506 31.937 173.004 23.8823 173.004C15.8275 173.004 9.29785 166.506 9.29785 158.491C9.29785 150.476 15.8275 143.979 23.8823 143.979Z" fill="#2D81F7"/>
<path d="M251.119 9.15295C242.285 9.15295 235.123 16.0692 235.123 24.6016C235.123 33.133 242.285 40.0503 251.119 40.0503C259.952 40.0503 267.114 33.133 267.114 24.6016C267.114 16.0692 259.952 9.15295 251.119 9.15295Z" fill="#FFAD3B"/>
</g>
</svg>
