<svg width="109" height="18" viewBox="0 0 109 18" fill="none" xmlns="http://www.w3.org/2000/svg">
<path d="M8.09375 1.5625C8.46875 0.8125 9.53125 0.84375 9.875 1.5625L11.9375 5.71875L16.5 6.375C17.3125 6.5 17.625 7.5 17.0312 8.09375L13.75 11.3125L14.5312 15.8438C14.6562 16.6562 13.7812 17.2812 13.0625 16.9062L9 14.75L4.90625 16.9062C4.1875 17.2812 3.3125 16.6562 3.4375 15.8438L4.21875 11.3125L0.9375 8.09375C0.34375 7.5 0.65625 6.5 1.46875 6.375L6.0625 5.71875L8.09375 1.5625Z" fill="#FFC700"/>
<path d="M30.0938 1.5625C30.4688 0.8125 31.5312 0.84375 31.875 1.5625L33.9375 5.71875L38.5 6.375C39.3125 6.5 39.625 7.5 39.0312 8.09375L35.75 11.3125L36.5312 15.8438C36.6562 16.6562 35.7812 17.2812 35.0625 16.9062L31 14.75L26.9062 16.9062C26.1875 17.2812 25.3125 16.6562 25.4375 15.8438L26.2188 11.3125L22.9375 8.09375C22.3438 7.5 22.6562 6.5 23.4688 6.375L28.0625 5.71875L30.0938 1.5625Z" fill="#FFC700"/>
<path d="M52.0938 1.5625C52.4688 0.8125 53.5312 0.84375 53.875 1.5625L55.9375 5.71875L60.5 6.375C61.3125 6.5 61.625 7.5 61.0312 8.09375L57.75 11.3125L58.5312 15.8438C58.6562 16.6562 57.7812 17.2812 57.0625 16.9062L53 14.75L48.9062 16.9062C48.1875 17.2812 47.3125 16.6562 47.4375 15.8438L48.2188 11.3125L44.9375 8.09375C44.3438 7.5 44.6562 6.5 45.4688 6.375L50.0625 5.71875L52.0938 1.5625Z" fill="#FFC700"/>
<path d="M74.0938 1.5625C74.4688 0.8125 75.5312 0.84375 75.875 1.5625L77.9375 5.71875L82.5 6.375C83.3125 6.5 83.625 7.5 83.0312 8.09375L79.75 11.3125L80.5312 15.8438C80.6562 16.6562 79.7812 17.2812 79.0625 16.9062L75 14.75L70.9062 16.9062C70.1875 17.2812 69.3125 16.6562 69.4375 15.8438L70.2188 11.3125L66.9375 8.09375C66.3438 7.5 66.6562 6.5 67.4688 6.375L72.0625 5.71875L74.0938 1.5625Z" fill="#FFC700"/>
<path d="M107.5 6.375C108.312 6.5 108.625 7.5 108.031 8.09375L104.75 11.3125L105.531 15.8438C105.656 16.6562 104.781 17.2812 104.062 16.9062L100 14.75L95.9062 16.9062C95.1875 17.2812 94.3125 16.6562 94.4375 15.8438L95.2188 11.3125L91.9375 8.09375C91.3438 7.5 91.6562 6.5 92.4688 6.375L97.0625 5.71875L99.0938 1.5625C99.4688 0.8125 100.531 0.84375 100.875 1.5625L102.938 5.71875L107.5 6.375ZM103.125 10.7812L106.281 7.71875L101.938 7.09375L100 3.15625L98.0312 7.09375L93.6875 7.71875L96.8438 10.7812L96.0938 15.0938L100 13.0625L103.875 15.0938L103.125 10.7812Z" fill="#FFC700"/>
</svg>
