<svg width="30" height="30" xmlns="http://www.w3.org/2000/svg"><style id="styles"></style><g id="Page-1" stroke="none" stroke-width="1" fill="none" fill-rule="evenodd"><g id="Types-Icons" transform="translate(-278 -252)"><g id="icn-html,-html5,-website,-web" transform="translate(278 252)"><rect id="bg" fill="#DDE3E6" x="0" y="0" width="30" height="30" rx="3" fill-opacity="inherit"/><path id="Shape" fill="#E44D26" d="M7.664 23.004L6.03 5.03H23.97L22.335 23l-7.346 2z"/><path id="Shape" fill="#F16529" d="M15 23.472l5.936-1.615L22.332 6.5H15z"/><path id="Shape" fill="#EBEBEB" d="M15 13.166h-2.971l-.206-2.257H15V8.704H9.369l.054.592.552 6.074H15zM15 18.89l-.01.003-2.5-.662-.16-1.759h-2.255l.315 3.462 4.6 1.253.01-.003z"/><path id="Shape" fill="#FFF" d="M14.992 13.166v2.204h2.765l-.26 2.86-2.505.663v2.293l4.604-1.252.034-.373.527-5.803.055-.592h-.605zM14.992 8.704v2.205H20.416l.045-.496.103-1.117.053-.592z"/></g></g></g></svg>